<svg width="798" height="272" viewBox="0 0 798 272" fill="none" xmlns="http://www.w3.org/2000/svg">
<path d="M1.25847 137.825L1.90287 139.695C2.75585 140.052 3.24347 140.003 4.13321 139.93C9.55096 139.483 15.8545 140.663 21.294 141.119C36.0387 142.357 51.0038 144.102 65.7786 144.631C67.2938 144.557 68.3533 144.591 69.7953 145.081C75.3808 144.579 117.579 145.841 121.409 146.938C124.294 150.018 144.15 147.416 149.712 149.96L147.803 152.643L148.059 159.323C147.677 169.349 148.119 185.823 149.571 195.704C150.517 195.977 151.46 196.262 152.416 196.496C136.703 196.338 120.908 195.156 105.236 194.047C77.9648 192.116 51.0122 189.56 23.9742 185.451C17.1216 184.41 7.38129 184.032 1.46833 180.555C-0.438695 178.152 0.273232 174.234 0.381406 171.335C0.223313 164.662 -0.734039 142.852 1.25847 137.825Z" fill="#4F557D"/>
<path d="M1.25847 137.825L1.90287 139.695C2.75585 140.052 3.24347 140.003 4.13321 139.93C9.55096 139.483 15.8545 140.663 21.294 141.119C36.0387 142.357 51.0038 144.102 65.7786 144.631C67.2938 144.557 68.3532 144.591 69.7953 145.081C75.3808 144.579 117.579 145.841 121.409 146.938C124.294 150.018 144.15 147.416 149.712 149.96L147.803 152.643C129.23 150.818 110.402 150.847 91.7699 149.862C86.9076 149.606 82.1667 148.669 77.3387 148.352C72.131 148.008 66.9085 149.156 61.6869 148.423C51.3937 147.79 32.612 147.599 23.2105 145.531C19.9617 144.816 16.5163 145.134 13.2049 144.853C9.12558 144.505 5.25505 143.213 1.07092 143.67C-0.830361 152.457 2.39012 162.539 0.381406 171.335C0.223313 164.662 -0.734039 142.852 1.25847 137.825Z" fill="#8A6D81"/>
<path d="M17.6242 152.616C22.859 152.452 34.3293 151.763 38.8223 154.022C40.719 154.975 41.8322 156.682 42.3916 158.687C43.2224 161.67 43.7817 181.884 42.5203 184.081L41.1376 184.242C35.8107 184.329 20.9525 183.069 16.3199 181.457C15.1984 177.888 14.2517 158.404 15.337 154.905C15.8043 153.399 16.3599 153.326 17.6242 152.616Z" fill="#443F61"/>
<path d="M56.7468 155.512C66.7574 154.52 77.1377 155.233 87.1993 155.424C97.071 155.333 106.7 153.917 114.821 160.546C114.781 165.521 116.153 180.929 115.291 184.247C110.503 187.313 68.7783 182.49 58.4472 184.157C56.7607 176.438 56.7671 163.666 56.7468 155.512Z" fill="#443F61"/>
<path d="M56.7468 155.512C66.7574 154.52 77.1377 155.233 87.1993 155.424C90.3475 155.699 93.5004 155.904 96.658 156.04C92.4737 158.32 64.9811 153.603 58.4861 156.605C57.522 164.026 60.3791 178.458 58.4472 184.157C56.7607 176.438 56.7671 163.666 56.7468 155.512Z" fill="#482C48"/>
<path d="M210.438 79.2302C224.944 76.7694 239.231 72.5119 253.81 70.2559C250.717 73.4686 228.928 92.7824 228.651 94.2985C225.502 97.7984 210.323 118.085 208.618 118.816C203.94 122.275 189.711 142.444 185.459 148.205C180.387 148.226 174.446 147.606 169.48 148.324C163.775 147.804 157.717 148.181 151.974 148.174L152.904 145.526C150.397 147.919 148.778 148.163 145.432 148.118C138.858 148.03 127.31 145.861 121.409 146.939C117.579 145.841 75.3807 144.579 69.7952 145.081C68.3531 144.591 67.2937 144.558 65.7785 144.632C51.0037 144.102 36.0386 142.357 21.2939 141.12C15.8544 140.663 9.55086 139.483 4.13311 139.931C3.24336 140.004 2.75575 140.052 1.90277 139.695L1.25836 137.825L1.73856 137.127C3.00794 135.977 4.28259 134.819 5.80498 134.011C11.6015 130.932 27.0279 126.444 33.6287 125.358C53.1237 118.734 73.3367 114.278 93.2349 109.07L126.877 100.55C136.342 98.0531 145.706 95.1811 155.299 93.1946L157.169 92.5574C174.854 87.8378 192.765 83.9859 210.438 79.2302Z" fill="#E3A0AF"/>
<path d="M33.6288 125.357C53.1238 118.734 73.3368 114.278 93.235 109.069L126.877 100.55C136.342 98.0529 145.707 95.1809 155.3 93.1943L155.226 93.7565C150.693 94.8345 119.01 102.547 117.064 104.507L117.209 105.023L117.226 104.261L117.422 105.17C120.279 106.2 130.396 102.28 134.102 101.773C136.917 101.389 139.407 99.907 142.124 99.1291C146.365 97.914 150.699 97.2731 154.807 95.5236L155.269 95.8079C153.772 96.3266 152.291 96.8341 150.833 97.4518C148.859 98.289 146.641 98.6317 144.585 99.2458C137.031 101.503 129.441 103.41 121.809 105.373C109.486 108.542 97.5564 113.168 85.2785 116.499C78.714 118.28 72.0356 119.489 65.4313 121.077C62.7483 121.721 60.1884 122.78 57.5183 123.463C53.0191 124.617 48.5718 125.552 44.2782 127.376C43.7392 127.605 43.4021 127.624 42.8278 127.539C43.3613 127.029 43.7105 127.041 44.4069 126.775C52.6959 123.622 61.7045 121.342 70.3491 119.327C76.3589 117.927 91.5735 115.345 96.3237 112.431L95.0642 109.682C94.1195 109.654 93.5397 109.793 92.6386 110.01C79.6812 113.047 66.7983 116.373 53.9897 119.989C48.0467 121.647 42.1453 123.774 36.1771 125.274C35.2462 125.507 34.5867 125.52 33.6288 125.357Z" fill="#F7BEC5"/>
<path d="M210.438 79.2302C224.944 76.7694 239.231 72.5119 253.811 70.2559C250.717 73.4686 228.928 92.7824 228.651 94.2985C225.502 97.7984 210.323 118.085 208.619 118.816C203.94 122.275 189.711 142.444 185.459 148.205C180.387 148.226 174.446 147.606 169.48 148.324C163.775 147.804 157.717 148.181 151.974 148.174L152.904 145.526C153.01 145.108 184.851 106.095 187.84 102.612C190.867 99.083 194.123 95.7544 197.394 92.4518C199.857 89.966 209.791 81.8058 210.438 79.2302Z" fill="#8A6D81"/>
<path d="M398.081 1.10566C406.202 0.775031 435.295 -0.61789 441.85 1.17234C445.664 2.21426 449.201 4.67687 452.572 6.7079C461.469 13.5391 467.693 20.814 472.527 30.9552L488.544 31.3192C491.774 31.2627 495.217 31.0914 498.409 31.6786C502.426 31.6934 506.423 31.6313 510.411 32.1759C510.492 32.1861 510.573 32.1954 510.654 32.2055L512.562 37.4623C512.995 39.2665 513.495 40.9622 514.172 42.6904C518.234 43.0034 522.301 43.2211 526.373 43.3433C530.934 43.3526 539.389 42.7719 543.412 44.301C545.205 45.1827 546.326 46.2718 547.718 47.6907L547.253 60.0195C561.13 60.9956 576.87 69.8514 590.132 70.8211C592.185 66.747 593.463 62.132 594.747 57.7643C595.348 56.2528 595.911 54.7127 596.586 53.2336C608.493 55.3267 620.621 56.9234 632.391 59.6777C634.572 64.4455 636.56 68.5391 634.572 73.8218C633.673 76.2112 632.509 78.5562 631.455 80.8827L640.86 82.7702L674.305 91.2129C679.157 92.4419 685.28 93.3291 689.788 95.4241C690.542 96.3771 691.092 96.541 692.322 96.6049C693.36 96.6586 694.437 96.5558 695.474 96.4928C701.481 97.1569 708.058 99.6213 713.946 101.234C730.127 105.664 746.168 110.498 762.269 115.199C773.55 118.492 784.846 121.829 796.186 124.911C805.811 127.526 815.641 129.807 825.048 133.138C829.12 134.579 833.078 136.385 836.418 139.164C838.451 144.626 837.663 174.461 837.294 181.359C815.944 190.357 733.875 194.449 707.447 194.857C699.925 194.984 692.402 194.979 684.879 194.844C679.809 194.752 674.387 194.26 669.36 194.781C663.426 195.395 657.626 197.854 652.013 199.77C644.363 202.381 636.609 205.075 628.81 207.194C619.33 209.77 609.19 210.489 599.842 213.238C590.442 214.636 581.165 216.789 571.749 218.111C553.402 220.688 534.808 222.496 516.579 225.768C501.449 228.484 484.569 233.435 469.627 235.054C461.718 235.912 453.452 235.537 445.496 235.517C432.175 235.492 418.855 235.364 405.537 235.132C393.917 234.935 381.946 235.76 370.39 234.797C363.809 234.249 357.205 232.64 350.72 231.384C337.385 228.801 324.043 226.15 310.67 223.775C305.086 222.784 299.352 221.451 293.71 220.916C290.813 219.422 280.58 218.454 276.545 217.743C264.748 215.667 253.022 213.266 241.199 211.319C230.613 209.575 219.927 208.29 209.374 206.376C201.927 205.025 194.285 202.935 187.069 200.679C182.637 199.294 178.152 197.351 173.546 196.676C166.918 195.703 159.156 196.498 152.416 196.496C151.46 196.262 150.517 195.976 149.571 195.704C148.119 185.823 147.677 169.349 148.059 159.322L147.803 152.643L149.712 149.959C144.15 147.416 124.294 150.017 121.409 146.938C127.31 145.86 138.858 148.029 145.432 148.117C148.778 148.162 150.397 147.919 152.904 145.526L151.974 148.173C157.717 148.18 163.775 147.803 169.48 148.324C174.446 147.606 180.387 148.225 185.459 148.204C189.711 142.443 203.94 122.274 208.618 118.816C210.323 118.084 225.502 97.7978 228.651 94.2979C228.928 92.7818 250.717 73.468 253.811 70.2552C239.231 72.5113 224.944 76.7688 210.438 79.2295C192.765 83.9853 174.854 87.8371 157.169 92.5567L157.205 91.5713C174.059 86.8822 191.186 83.2184 208.115 78.8267C205.99 69.9153 203.86 61.0836 201.201 52.3121C216.738 51.084 232.728 50.7395 247.252 57.0012C249.454 60.4594 249.776 66.1885 249.956 70.2228C256.412 69.1531 262.803 67.3684 269.215 66.0339C278.16 64.1723 287.112 62.6997 296.128 61.2614L296.313 60.2399C296.197 60.1658 296.075 60.1019 295.966 60.0176C293.817 58.3626 293.204 55.8 292.938 53.2429C292.742 50.3928 292.646 47.5397 292.649 44.6835C303.559 44.6575 314.492 44.2389 325.407 44.0796C325.845 43.2813 325.349 41.0159 325.254 40.0148C325.88 38.1495 326.687 35.2887 328.544 34.2838C334.782 30.9089 367.671 32.8705 371.823 30.1393C374.387 26.7181 375.84 22.4551 378.102 18.8256C379.897 15.9452 382.877 13.2168 385.195 10.6977C389.342 7.26544 393.581 4.06376 398.081 1.10566Z" fill="#443F61"/>
<path d="M466.165 200.469C468.91 199.791 473.225 199.907 475.979 200.531C475.596 200.575 475.211 200.617 474.826 200.639C473.209 200.73 467.139 201.319 466.165 200.469Z" fill="#333151"/>
<path d="M430.266 88.7022C432.507 88.7337 434.453 88.6207 436.657 88.191C434.874 87.9465 432.987 88.2818 431.203 88.4614C434.858 86.5267 447.511 87.4381 451.925 87.8428C453.16 88.0604 454.473 87.9947 455.358 88.9097C453.163 89.8905 433.683 89.1005 430.266 88.7022Z" fill="#333151"/>
<path d="M149.712 149.96C149.733 151.471 149.363 151.971 148.556 153.176C150.423 153.532 151.292 154.096 152.653 155.408C153.027 155.875 153.84 156.639 154.056 157.157C155.603 160.879 153.466 172.852 154.683 178.02C155.801 182.769 161.187 185.538 161.952 188.583C159.254 187.653 156.105 183.121 154.955 180.68C151.485 173.317 153.953 164.651 153.231 156.845C151.92 156.373 150.277 155.524 148.887 155.906C148.584 157.221 149.24 158.144 148.495 159.282L148.059 159.323L147.803 152.644L149.712 149.96Z" fill="#333151"/>
<path d="M435.473 182.833L436.072 183.459L435.556 183.012L436.013 184.215C434.385 185.991 432.809 186.334 430.469 186.587C426.47 187.019 408.66 187.189 405.286 186.616C404.17 186.427 402.665 185.783 401.903 184.912C399.998 182.739 400.043 176.576 400.054 173.707C400.06 172.227 399.738 168.732 400.715 167.769C400.985 172.661 400.785 180.998 404.42 184.673C406.368 186.642 425.685 186.082 429.119 185.826C430.689 185.708 433.083 185.615 434.296 184.511C434.773 184.077 435.142 183.381 435.473 182.833Z" fill="#333151"/>
<path d="M433.062 52.2181L497.779 52.1523C491.377 53.3637 484.501 52.1977 477.955 53.0442L482.287 53.3415C475.341 54.0547 446.938 54.2112 440.562 53.0035C444.652 53.0229 455.575 53.8805 458.911 52.7053L458.272 52.8182C454.854 51.0456 438.908 53.8935 433.062 52.2181Z" fill="#333151"/>
<path d="M595.729 59.3862C596.271 57.9396 596.82 56.5865 597.562 55.2315C598.972 54.4073 599.362 54.5712 600.948 54.674C600.13 56.104 599.353 57.345 599.058 58.9815C597.571 63.4483 597.475 67.7678 596.532 72.2929L591.077 70.8269C592.745 67.0621 594.221 63.2167 595.729 59.3862Z" fill="#AF94A9"/>
<path d="M388.796 166.418C388.958 166.603 389.118 166.79 389.282 166.975C389.835 167.592 390.427 167.985 391.087 168.478C391.796 169.007 392.36 169.718 392.929 170.391L394 170.681C394.071 170.474 394.14 170.266 394.213 170.061C394.516 169.203 394.372 169.538 394.787 168.773C395.099 170.153 394.307 183.255 393.816 184.091C393.314 184.945 392.566 185.428 391.6 185.571C390.977 185.662 390.224 185.606 389.605 185.597C390.146 185.26 390.624 184.859 391.124 184.465C391.816 181.587 389.922 181.353 389.259 178.993C389.191 178.755 389.134 178.514 389.072 178.274C388.576 175.988 388.332 172.38 386.668 170.625C385.622 169.521 384.27 169.619 382.868 169.586C383.66 169.141 385.457 169.261 386.453 169.088L386.867 169.091C388.016 168.405 388.199 167.579 388.796 166.418Z" fill="url(#paint0_linear_6_5230)"/>
<path d="M448.166 108.805C447.58 106.134 446.815 102.49 448.389 99.9742C449.029 98.9545 449.905 98.5405 451.06 98.3692C452.752 98.1182 454.834 99.0851 456.077 100.171C457.559 101.467 458.559 103.169 458.527 105.181C458.513 106.079 458.197 106.96 457.912 107.803C457.183 108.436 456.618 108.747 455.715 109.086C453.467 108.551 450.531 108.888 448.166 108.805Z" fill="#34DCDE"/>
<path d="M344.343 179.184L344.638 179.183C346.68 180.515 363.349 219.037 365.724 223.935C367.546 227.694 370.604 230.885 371.985 234.842L370.572 234.347C360.27 222.817 350.67 194.232 344.343 179.184Z" fill="#333151"/>
<path d="M448.166 108.806C450.531 108.889 453.467 108.552 455.715 109.086C455.644 109.707 455.597 109.359 456.133 110.055L458.502 110.01C460.287 111.685 460.329 118.708 460.597 121.31H449.737C448.85 117.188 448.326 113.02 448.166 108.806Z" fill="#4F557D"/>
<path d="M503.263 157.121C536.742 155.446 570.318 156.729 603.831 157.112C611.252 157.198 618.749 157.345 626.164 157.086C631.315 156.906 636.478 156.234 641.632 156.435C638.622 156.821 635.545 156.888 632.515 157.046C632.957 157.691 633.971 157.81 634.712 158.053C631.918 159.099 622.272 158.186 618.599 158.18L541.618 157.595C531.754 157.555 516.518 156.394 507.227 158.218C506.051 158.45 504.772 158.323 503.58 158.266C499.017 158.689 494.374 158.662 489.793 158.787C489.252 160.476 488.664 162.966 487.284 164.093C486.637 162.214 487.501 159.181 487.771 157.24C492.934 157.102 498.099 157.062 503.263 157.121Z" fill="#333151"/>
<path d="M121.409 146.939C127.31 145.861 138.858 148.03 145.432 148.118C148.778 148.163 150.397 147.92 152.904 145.526L151.974 148.174C157.717 148.181 163.775 147.804 169.48 148.324C171.743 150.407 201.507 149.538 207.528 149.549C201.006 150.268 191.598 150.539 185.078 149.685L185.314 150.429L184.746 150.401L184.737 150.03C184.604 150.985 184.667 151.367 184.877 152.28L186.039 152.639L185.984 153.074L184.315 152.865C184.017 151.946 184.007 151.277 183.953 150.315L183.472 150.422L182.984 152.335C180.961 154.17 170.196 153.045 167.01 153.104C163.723 153.994 155.392 153.235 153.262 154.493C152.946 154.679 152.855 155.103 152.653 155.408C151.292 154.096 150.423 153.532 148.556 153.175C149.363 151.97 149.733 151.471 149.712 149.96C144.15 147.417 124.294 150.018 121.409 146.939Z" fill="#4F557D"/>
<path d="M148.556 153.175C154.707 153.105 160.858 153.082 167.01 153.104C163.723 153.994 155.392 153.234 153.262 154.493C152.946 154.679 152.855 155.102 152.653 155.408C151.292 154.096 150.423 153.532 148.556 153.175Z" fill="#482C48"/>
<path d="M600.948 54.6738C602.61 55.7889 603.882 55.9232 605.847 55.8973C607.785 56.1705 609.67 56.4956 611.574 56.9512L614.194 57.7005C612.147 62.8193 610.861 69.7153 607.339 73.9441C607.187 74.1265 607.046 74.3182 606.898 74.5035L606.625 74.8415L605.783 74.4238C602.684 73.9904 599.572 73.0457 596.532 72.2928C597.475 67.7676 597.571 63.4481 599.058 58.9813C599.353 57.3448 600.13 56.1038 600.948 54.6738Z" fill="#8A6D81"/>
<path d="M605.74 56.4365C606.916 56.9691 607.398 56.9478 607.947 58.1508C607.315 61.8183 604.864 65.0274 603.189 68.3088C602.565 66.9112 601.894 65.6053 601.102 64.2948C602.354 61.3636 603.446 58.7176 605.74 56.4365Z" fill="#4F557D"/>
<path d="M380.891 127.29C380.245 125.469 380.365 123.907 380.474 122.002C380.641 122.08 380.802 122.174 380.978 122.234C382.374 122.71 428.708 123.139 434.492 123.378C437.097 123.486 441.133 122.925 443.534 123.808C443.506 124.018 443.45 124.226 443.451 124.437C443.452 124.624 443.511 124.806 443.538 124.992C443.696 126.05 443.598 125.041 443.486 126.253C443.464 126.479 443.488 126.707 443.49 126.933C439.257 127.52 434.814 127.178 430.54 127.306C418.805 127.642 407.067 127.732 395.328 127.575C390.733 127.52 385.755 127.859 381.222 127.183L380.891 127.29Z" fill="#4F557D"/>
<path d="M600.177 180.315C607.134 178.826 616.368 179.417 623.376 180.603C625.435 183.369 625.646 186.085 625.223 189.452C624.848 192.452 623.496 195.884 620.978 197.697C620.525 198.023 620.053 198.296 619.555 198.547C612.226 197.4 600.978 200.293 594.449 197.319C592.957 195.648 593.141 192.216 592.988 190.026C593.146 188.584 593.208 187.676 594.178 186.51L593.911 187.493C595.896 184.782 596.674 182.78 599.595 180.853L600.177 180.315Z" fill="#4F557D"/>
<path d="M598.96 182.787C605.261 182.118 614.54 181.974 620.799 182.861C621.959 184.743 621.149 187.449 620.646 189.508C620.258 191.096 619.691 192.694 618.981 194.166C612.206 194.526 603.792 195.633 597.261 193.852C596.138 189.295 597.246 186.962 598.96 182.787Z" fill="#38E3E2"/>
<path d="M358.034 166.357C368.266 166.268 378.568 166.157 388.796 166.418C388.199 167.579 388.016 168.404 386.867 169.09L386.453 169.088C385.457 169.261 383.66 169.14 382.868 169.586C384.27 169.618 385.622 169.521 386.668 170.625C388.332 172.379 388.576 175.987 389.072 178.274C389.134 178.514 389.191 178.755 389.259 178.993C389.922 181.353 391.816 181.587 391.124 184.464C390.624 184.859 390.146 185.26 389.605 185.597C384.541 185.416 368.977 187.209 365.235 185.576C364.586 185.292 363.182 184.495 362.749 183.93C361.379 182.143 359.849 175.469 358.989 173C358.325 177.364 360.441 181.898 361.786 186.014C361.385 185.706 361.327 185.345 361.128 184.877C359.583 181.247 355.608 170.277 357.082 166.634L358.034 166.357Z" fill="#4F557D"/>
<path d="M382.868 169.586C384.27 169.618 385.622 169.521 386.668 170.625C388.332 172.379 388.576 175.987 389.072 178.274C388.9 179.266 388.698 179.724 388.074 180.514C383.611 182.694 371.051 181.58 365.71 181.537C364.183 177.713 363.09 173.735 361.925 169.789C368.906 169.759 375.887 169.691 382.868 169.586Z" fill="#38E3E2"/>
<path d="M478.106 166.557C479 167.749 478.69 168.675 478.48 170.109C477.827 174.569 477.281 179.326 475.324 183.434C472.255 185.277 469.437 186.403 465.78 185.786C461.006 185.923 455.949 186.376 451.203 185.852C448.43 185.545 447.478 185.306 445.746 183.165C445.44 182.456 445.126 181.764 444.962 181.004C444.224 177.593 443.933 171.203 446.018 168.354C446.895 167.157 448.078 167.025 449.439 166.757C458.857 167.434 468.591 166.134 478.106 166.557Z" fill="#4F557D"/>
<path d="M449.013 170.054C455.398 168.638 467.52 169.705 474.541 169.8C473.292 173.705 472.176 177.724 470.682 181.539L449.084 181.637L448.776 175.617C449.067 173.779 449.002 171.91 449.013 170.054Z" fill="#34DCDE"/>
<path d="M259.429 177.601C266.075 176.114 273.725 176.411 280.5 176.892C283.944 179.124 286.871 181.715 287.731 185.934C288.271 188.59 288.037 191.717 286.49 194.014C284.841 196.462 281.961 197.55 279.154 197.994C274.355 198.751 268.985 198.516 264.15 198.295C263.79 198.307 263.431 198.296 263.072 198.261C262.713 198.226 262.359 198.168 262.008 198.086C261.657 198.005 261.313 197.901 260.976 197.773C260.639 197.647 260.311 197.499 259.993 197.329C256.715 195.55 255.22 191.724 254.222 188.348C253.653 186.802 253.968 184.942 254.602 183.409C255.576 181.058 257.559 179.239 259.429 177.601Z" fill="#4F557D"/>
<path d="M262.493 181.512L264.371 181.733C263.696 182.492 263.065 183.296 262.258 183.918C261.106 184.686 260.221 185.222 259.79 186.636C259.536 187.467 259.522 188.479 259.438 189.344L259.38 189.889C259.153 189.673 258.891 189.488 258.697 189.241C257.9 188.227 257.784 186.445 258.268 185.286C259.084 183.329 260.684 182.405 262.493 181.512Z" fill="#34DCDE"/>
<path d="M260.584 191.26C266.31 191.333 275.924 190.123 280.982 192.674C279.919 193.297 279.179 193.475 277.989 193.679C272.44 193.405 265.128 195.036 260.584 191.26Z" fill="#34DCDE"/>
<path d="M264.371 181.733C267.786 180.256 275.427 181.082 279.371 181.326C281.197 182.836 282.562 184.323 282.691 186.808C282.798 188.849 282.022 190.948 280.982 192.674C275.924 190.123 266.31 191.333 260.584 191.26L259.379 189.889L259.438 189.344C259.522 188.479 259.536 187.467 259.79 186.636C260.221 185.222 261.106 184.686 262.258 183.918C263.065 183.296 263.696 182.492 264.371 181.733Z" fill="#52EDE7"/>
<path d="M264.371 181.733C267.786 180.256 275.427 181.082 279.371 181.326L277.318 182.417L278.466 182.74L278.916 183.826C276.852 185.398 266.215 184.452 263.274 184.062C262.935 184.017 262.596 183.968 262.258 183.918C263.065 183.296 263.696 182.492 264.371 181.733Z" fill="#38E3E2"/>
<path d="M554.074 177.287C564.49 177.181 570.361 176.789 580.219 181.079C581.408 182.772 581.54 184.435 581.232 186.445C580.735 189.682 578.664 194.791 575.798 196.65C574.817 197.286 573.438 197.619 572.29 197.771C566.104 198.728 555.867 199.516 549.78 198.552C547.932 198.26 546.514 197.666 545.424 196.078C545.038 194.667 545.369 193.708 545.748 192.354L546.462 193.359L547.111 192.9C546.225 188.559 549.009 184.084 551.369 180.581C552.166 179.399 553.106 178.331 554.074 177.287Z" fill="#4F557D"/>
<path d="M553.894 182.493C557.86 182.493 572.548 181.724 575.597 182.933L576.211 183.622C570.8 185.357 560.531 185.12 554.684 184.947C553.459 186.696 553.617 187.793 553.71 189.867C553.769 191.203 553.723 191.932 553.171 193.14L552.217 193.876C551.128 192.492 550.538 191.309 550.571 189.531C550.619 186.801 552.019 184.391 553.894 182.493Z" fill="#52EDE7"/>
<path d="M554.684 184.947C560.531 185.121 570.8 185.358 576.211 183.622C575.704 187.369 574.871 190.179 572.951 193.5C566.147 194.048 559.048 194 552.217 193.876L553.171 193.14C553.722 191.932 553.769 191.203 553.709 189.867C553.617 187.793 553.459 186.696 554.684 184.947Z" fill="#38E3E2"/>
<path d="M556.985 185.596C557.729 185.531 558.768 185.34 559.492 185.479C560.855 185.741 561.021 186.617 561.602 187.7C560.547 187.798 559.531 187.753 558.474 187.715C557.431 186.999 557.435 186.801 556.985 185.596Z" fill="#34DCDE"/>
<path d="M407.256 166.935C411.319 165.72 429.944 165.613 433.73 167.19C434.972 168.078 435.527 168.725 435.821 170.259C436.571 174.176 435.795 178.887 435.473 182.834C435.142 183.382 434.773 184.078 434.296 184.512C433.083 185.616 430.689 185.709 429.119 185.826C425.685 186.083 406.368 186.643 404.42 184.673C400.785 180.999 400.985 172.662 400.715 167.769C402.875 167.163 404.782 167.391 406.992 167.541L407.256 166.935Z" fill="#4F557D"/>
<path d="M407.791 179.932L407.325 175.717C407.121 173.956 407.005 172.872 407.564 171.165C408.74 169.956 409.335 170.201 410.976 170.076C411.09 174.067 410.236 176.767 407.791 179.932Z" fill="#38E3E2"/>
<path d="M410.976 170.076C414.274 170.109 425.104 169.369 427.089 169.772C428.116 169.98 428.632 170.3 429.466 170.888C431.455 173.896 430.722 177.801 430.397 181.228C425.969 181.669 411.54 182.69 408.053 181.163L407.791 179.932C410.236 176.767 411.09 174.067 410.976 170.076Z" fill="#34DCDE"/>
<path d="M519.641 176.836C527.696 176.129 529.953 179.821 535.083 180.01C536.951 180.078 539.089 179.531 540.932 179.198C541.228 185.857 539.863 192.246 537.42 198.417L531.067 198.511C525.701 198.562 513.008 199.711 508.653 197.325C507.585 196.741 507.188 195.588 506.924 194.458C506.061 190.739 506.526 182.568 508.872 179.487C510.926 176.791 516.555 177.075 519.641 176.836Z" fill="#4F557D"/>
<path d="M511.925 183.914C512.515 183.071 512.858 182.565 513.889 182.294C515.735 181.807 531.685 181.433 533.253 181.94C533.645 182.066 533.947 182.383 534.293 182.605C534 182.834 533.77 183.182 533.415 183.295C533.117 183.389 514.423 184.51 513.651 184.437C512.967 184.373 512.514 184.22 511.925 183.914Z" fill="#52EDE7"/>
<path d="M534.293 182.605C535.252 186.156 534.169 190.272 533.527 193.818C528.229 193.916 514.964 195.197 510.626 192.816C509.623 189.727 510.752 186.818 511.925 183.915C512.514 184.221 512.967 184.373 513.651 184.437C514.422 184.511 533.117 183.39 533.415 183.295C533.77 183.182 534 182.835 534.293 182.605Z" fill="#38E3E2"/>
<path d="M210.418 177.254C216.844 176.501 231.936 174.668 237.402 177.346C241.228 179.222 242.302 181.862 243.682 185.616C242.758 189.124 241.903 194.22 238.629 196.32C237.359 197.134 235.92 197.551 234.475 197.922C228.541 198.288 220.383 199.224 214.805 196.806C211.95 195.567 209.658 193.238 208.656 190.268C207.212 185.986 208.446 181.145 210.418 177.254Z" fill="#4F557D"/>
<path d="M215.632 181.264C219.948 179.659 231.058 179.531 235.157 181.364C236.859 183.431 238.347 185.441 238.155 188.259C238.051 189.791 237.464 191.094 236.259 192.061C232.741 194.884 222.524 194.163 218.279 193.466C216.428 193.163 215.14 192.367 214.084 190.813C212.858 189.01 212.599 186.647 213.045 184.548C213.409 182.839 214.207 182.156 215.632 181.264Z" fill="#52EDE7"/>
<path d="M215.632 181.264C219.948 179.659 231.058 179.531 235.157 181.364C234.957 181.576 234.78 181.813 234.557 182C232.909 183.385 218.422 182.793 215.923 182.252L215.632 181.264Z" fill="#34DCDE"/>
<path d="M294.751 193.737C294.283 189.134 293.309 183.381 296.465 179.446C298.951 176.348 303.882 175.238 307.668 174.89C312.62 174.433 319.688 174.856 323.644 178.09C326.591 181.052 329.463 184.347 329.532 188.782C329.572 191.384 328.221 195.407 326.587 197.409C325.471 198.777 323.489 198.682 321.871 198.649C318.186 198.573 314.518 198.504 310.832 198.502C308.117 199.32 304.383 199.461 301.612 198.751C301.461 198.712 301.315 198.652 301.165 198.611C298.542 197.89 296.644 195.587 294.751 193.737Z" fill="#4F557D"/>
<path d="M300.535 183.678C302.775 181.327 304.799 181.196 307.92 181.115C312.405 180.997 316.962 181.238 321.455 181.308C322.444 182.558 323.549 183.803 324.322 185.196C317.923 185.96 311.368 185.098 304.951 185.574C302.872 185.366 302.156 185.001 300.535 183.678Z" fill="#38E3E2"/>
<path d="M300.535 183.678C302.156 185 302.872 185.365 304.951 185.574C311.368 185.098 317.923 185.96 324.322 185.196C324.948 186.486 325.506 187.459 325.053 188.929C324.832 189.65 324.432 190.373 324.093 191.046C322.959 192.621 322.186 193.269 320.232 193.572C315.102 194.369 308.184 194.302 303.217 192.938C302.648 192.578 301.933 192.179 301.468 191.693C299.45 189.583 300.261 186.283 300.535 183.678Z" fill="#38E3E2"/>
<path d="M300.535 183.678C302.156 185 302.872 185.365 304.951 185.574L305.254 186.053C305.973 187.649 306.67 188.111 308.087 189.104C308.711 189.54 309.133 189.966 309.594 190.569L309.114 190.577C307.567 190.584 306.427 190.41 304.947 189.963C304.165 190.277 304.047 190.117 303.706 190.956C303.422 191.656 303.31 192.2 303.217 192.938C302.648 192.578 301.933 192.179 301.468 191.693C299.45 189.583 300.261 186.283 300.535 183.678Z" fill="#34DCDE"/>
<path d="M324.323 185.196C324.949 186.486 325.506 187.46 325.053 188.93C324.832 189.651 324.432 190.373 324.093 191.047C321.57 190.272 318.885 190.451 316.273 190.465L312.915 190.561L313.109 187.467C312.209 186.306 311.596 186.349 310.211 185.956L305.254 186.054L304.951 185.574C311.368 185.098 317.923 185.96 324.323 185.196Z" fill="#52EDE7"/>
<path d="M296.313 60.2403L296.656 59.7383L296.359 59.3725C295.45 58.2269 294.079 56.5283 294.122 54.9826C294.138 54.3991 294.266 54.5112 294.789 54.0861C315.029 53.1433 334.98 53.724 355.216 53.9397C373.338 54.1324 391.434 53.8944 409.551 54.526C409.503 56.7543 409.35 59.0326 409.425 61.2581C381.419 61.4897 353.413 61.4894 325.407 61.2572C319.03 61.2303 301.093 59.7698 296.128 61.2618L296.313 60.2403Z" fill="#4F557D"/>
<path d="M368.573 44.591C382.64 45.3708 397.109 44.7355 411.225 44.792C417.877 44.8188 425.987 43.8751 432.352 45.933C434.324 46.5702 436.055 47.0647 438.151 47.0175L438.604 46.7461C437.158 46.3479 435.437 46.0478 434.15 45.2995L439.963 45.3569V50.9231C432.883 50.9434 425.794 51.4732 418.703 51.5825C411.489 51.6936 404.079 51.3148 396.913 51.9983C386.585 51.6816 376.212 52.5966 365.896 52.0141L315.197 52.5818C308.905 52.6577 301.519 53.708 295.356 52.9893C294.317 52.8689 294.735 53.0791 294.064 52.2206L293.74 45.6802C309.946 45.7061 326.141 44.9976 342.346 45.0735C350.417 43.9121 360.297 44.6568 368.573 44.591Z" fill="#8A6D81"/>
<path d="M293.74 45.6787C309.946 45.7047 326.141 44.9962 342.346 45.0721L342.915 45.1249C347.834 45.5407 352.842 45.3805 357.777 45.3935C349.036 45.9769 340.077 45.5741 331.308 45.6074L331.801 45.901C334.347 47.4384 336.791 49.8816 339.43 51.0948C343.902 53.1518 359.314 50.5938 365.896 52.0126L315.197 52.5804C308.905 52.6563 301.519 53.7065 295.356 52.9878C294.317 52.8674 294.735 53.0777 294.064 52.2192L293.74 45.6787Z" fill="#B86972"/>
<path d="M503.183 113.885C503.402 112.499 503.356 111.64 504.246 110.533C512.239 108.195 546.062 109.355 556.271 109.325L585.983 109.259C591.964 109.252 598.075 109.022 604.038 109.508C605.637 109.637 607.137 110.508 608.555 111.201C609.437 111.141 609.99 110.933 610.787 110.556C611.695 111.298 612.223 111.783 612.384 112.998C612.559 114.318 611.968 115.804 611.497 116.999L610.028 118.286C603.08 119.126 589.844 118.276 584.108 120.208C574.075 120.214 564.043 119.328 553.994 119.366L522.364 119.519C518.612 119.503 513.798 119.965 510.129 119.303C508.552 119.02 508.068 117.818 507.141 116.62C505.244 116.048 504.188 115.679 503.183 113.885Z" fill="#333151"/>
<path d="M380.474 122.002L382.027 120.945C383.508 118.072 383.207 113.157 383.361 109.99C383.571 105.669 383.358 98.7571 386.997 95.6897C390.776 92.5047 400.261 93.8643 404.935 94.1773C405.854 95.2887 406.961 95.0794 408.349 95.2646C413.699 95.6045 421.667 97.052 426.67 96.0472C428.182 96.125 430.515 95.8916 431.655 96.8279C432.375 99.6452 432.772 102.452 433.354 105.294C432.588 106.005 432.995 105.699 432.139 106.222L432.285 106.737C434.88 107.96 435.193 109.244 436.127 111.803C437.176 114.676 438.261 117.938 436.921 120.863C435.062 122.029 424.244 122.119 421.782 121.607C421.636 121.576 421.495 121.525 421.352 121.484L399.546 121.521L396.699 121.048C393.621 121.017 390.545 120.965 387.469 120.892L383.861 121.021L380.474 122.002Z" fill="#4F557D"/>
<path d="M416.262 116.022L415.444 116.087C414.686 114.738 414.467 113.358 414.675 111.824C414.891 110.232 415.764 108.971 417.026 108.011C420.915 105.047 427.537 105.548 432.139 106.222L432.285 106.737C433.318 109.969 435.52 116.037 433.938 119.311C433.561 120.091 433.292 120.051 432.557 120.416C431.613 120.27 431.036 120.208 430.191 119.74C430.331 119.079 430.499 118.705 430.88 118.143C431.581 117.108 432.275 116.246 432.399 114.962C432.586 113.025 432.16 110.942 430.769 109.513C429.492 108.201 427.417 107.6 425.624 107.593C422.327 107.581 419.895 108.241 417.541 110.499L416.475 110.806C415.725 112.557 415.707 114.189 416.262 116.022Z" fill="#3394A7"/>
<path d="M383.861 121.021C383.884 116.244 384.232 111.368 384.659 106.612C384.965 103.193 385.35 98.9895 388.265 96.7223C390.983 94.6107 394.272 95.4822 397.399 95.9305C394.955 96.3407 390.937 96.3454 389.37 98.545C388.851 99.2738 388.829 100.25 388.812 101.129L388.9 101.546L388.284 103.926C388.082 105.945 387.904 107.893 387.96 109.926C387.471 111.987 387.543 114.062 387.522 116.169L387.469 120.892L383.861 121.021Z" fill="#8A6D81"/>
<path d="M387.96 109.926L391.45 109.891C392.032 110.409 392.714 110.869 393.064 111.574C394.763 111.666 397.352 111.406 398.862 112.152C398.128 114.958 397.742 118.039 396.801 120.752L396.699 121.048C393.621 121.016 390.545 120.964 387.469 120.891L387.522 116.168C387.543 114.062 387.471 111.986 387.96 109.926Z" fill="#5BA2C2"/>
<path d="M387.961 109.926L391.45 109.891C392.032 110.409 392.714 110.869 393.064 111.574C392.684 112.386 392.48 112.54 392.581 113.459C392.267 114.458 391.953 115.423 391.546 116.39L389.591 116.538C389.238 115.56 389.07 114.339 388.196 113.757C387.955 114.558 387.724 115.356 387.522 116.168C387.543 114.062 387.471 111.986 387.961 109.926Z" fill="#5F88B3"/>
<path d="M393.064 111.574C394.763 111.666 397.353 111.406 398.862 112.152C398.128 114.957 397.742 118.039 396.801 120.752C395.283 120.576 394.543 120.644 393.292 119.727C392.214 117.895 392.557 115.529 392.581 113.459C392.48 112.54 392.684 112.386 393.064 111.574Z" fill="#34A5B4"/>
<path d="M417.541 110.499C419.895 108.24 422.327 107.581 425.624 107.593C427.417 107.599 429.492 108.2 430.769 109.513C432.16 110.942 432.586 113.025 432.399 114.961C432.275 116.246 431.581 117.108 430.88 118.143C430.499 118.705 430.331 119.079 430.191 119.739C427.759 119.813 425.189 120.025 422.768 119.795C420.954 119.623 418.93 118.959 417.917 117.339C416.652 115.315 417.077 112.688 417.541 110.499Z" fill="#34DCDE"/>
<path d="M397.724 95.7881C399.584 96.3104 401.64 96.6707 402.657 98.5137C404.011 100.964 402.79 105.536 401.895 108.074C401.248 109.207 401.097 109.982 399.861 110.519L398.862 112.152C397.352 111.406 394.763 111.666 393.064 111.574C392.714 110.868 392.032 110.409 391.45 109.89L387.96 109.926C387.904 107.892 388.082 105.944 388.284 103.925L388.9 101.545L388.812 101.128C388.829 100.249 388.851 99.2732 389.37 98.5443C390.937 96.3447 394.955 96.3401 397.399 95.9298L397.724 95.7881Z" fill="#3394A7"/>
<path d="M391.45 109.891C393.842 109.926 397.707 109.566 399.861 110.52L398.862 112.153C397.353 111.406 394.763 111.666 393.064 111.575C392.714 110.869 392.032 110.409 391.45 109.891Z" fill="#5BA2C2"/>
<path d="M388.9 101.545C389.735 102.109 390.054 102.291 390.569 103.188C393.998 106.417 396.181 104.466 399.81 105.797C399.567 107.228 399.672 107.717 398.606 108.748C395.967 109.598 393.212 108.774 390.472 109.229C389.408 109.038 389.24 109.052 388.471 108.315C388.196 106.835 388.247 105.425 388.284 103.925L388.9 101.545Z" fill="#52EDE7"/>
<path d="M388.812 101.128C390.404 99.2009 391.546 98.5137 394.057 98.2674C395.692 98.1062 397.116 98.5137 398.368 99.5917C399.269 100.367 399.869 101.274 399.947 102.482C400.019 103.558 399.88 104.719 399.809 105.797C396.181 104.466 393.998 106.417 390.569 103.188C390.053 102.291 389.735 102.109 388.9 101.545L388.812 101.128Z" fill="#38E3E2"/>
<path d="M372.987 208.958C372.581 207.932 372.357 207.15 372.285 206.047C375.4 204.666 406.049 205.212 411.602 205.423L471.316 205.755C470.729 209.205 469.104 224.021 467.254 225.927C457.049 225.967 446.853 226.427 436.638 226.414C430.487 226.406 424.34 225.854 418.193 225.968C406.074 226.192 393.378 227.45 381.338 225.736C379.956 225.837 379.019 225.967 377.754 225.264C374.962 222.115 374.191 213.272 372.987 208.958Z" fill="#333151"/>
<path d="M374.2 208.027L374.522 207.184C380.148 206.097 395.439 206.973 401.989 206.965C402.08 212.451 402.253 217.949 402.184 223.435C396.562 223.385 390.885 223.07 385.382 224.423C383.585 223.401 380.706 224.481 378.734 223.407C376.022 219.447 375.277 212.692 374.2 208.027Z" fill="#443F61"/>
<path d="M418.719 206.392C420.207 206.437 421.116 206.257 422.384 207.072C423.445 211.884 421.892 217.844 423.447 222.284L423.789 222.482L423.933 221.355L423.467 221.348L423.401 220.984L423.955 220.811L423.302 206.665C426.774 206.668 431.336 206.102 434.647 207.043C435.03 208.033 434.933 207.542 434.981 208.506L434.339 207.851L435.189 208.35C436.042 207.137 437.218 207.147 438.666 206.917C446.713 205.638 460.929 206.943 469.937 206.72C468.564 212.79 467.55 218.918 466.893 225.107C462.655 225.217 455.853 226.21 452.028 224.415C451.092 223.184 451.235 222.93 451.235 221.435L450.713 221.317C450.764 222.513 450.975 223.685 450.326 224.749C446.046 226.05 439.94 224.992 435.463 224.844C431.8 224.723 428.137 224.911 424.472 224.783C418.704 224.58 413.212 223.983 407.409 224.238C407.252 221.372 407.724 209.58 406.306 207.798C404.196 210.288 407.195 220.403 405.9 223.84C404.805 224.108 404.816 224.216 403.853 223.665C405.137 220.038 403.735 211.268 403.835 207.005C408.543 206.759 414.266 207.808 418.719 206.392Z" fill="#443F61"/>
<path d="M454.844 207.828C454.98 207.88 455.137 207.891 455.25 207.982C456.302 208.826 456.522 214.564 456.578 216.158C455.951 215.887 455.491 215.531 454.941 215.13C453.553 212.522 454.159 210.606 454.844 207.828Z" fill="#333151"/>
<path d="M376.171 83.1614C380.344 83.1326 385.027 82.6742 389.117 83.4568C386.857 83.4966 382.942 83.0317 381.05 84.0282L382.136 85.1294L385.127 85.0535C385.115 85.2804 385.095 85.5073 385.092 85.7351C385.082 86.7076 385.256 87.3642 385.511 88.2876L385.249 88.8794C388.287 89.2989 391.088 88.5793 394.115 88.6802C399.78 88.8701 405.428 89.6758 411.089 89.9731L410.61 91.1466C419.053 92.2394 458.401 88.4478 461.738 93.0118C462.399 93.9167 462.724 95.204 463.088 96.2589C462.237 95.2994 461.359 94.1973 460.341 93.4147C457.077 90.9021 433.614 91.8236 428.483 92.2264C420.838 92.4719 413.173 92.3959 405.524 92.4107L404.935 94.1769C400.262 93.8639 390.776 92.5043 386.997 95.6893C383.359 98.7567 383.571 105.668 383.361 109.99C383.208 113.156 383.509 118.071 382.027 120.944L380.474 122.002C380.365 123.907 380.245 125.469 380.891 127.29L381.222 127.183C383.785 129.604 414.852 128.688 420.089 128.619C423.231 129.014 426.379 129.345 429.535 129.611C429.302 129.634 429.066 129.645 428.835 129.681C421.119 130.84 413.711 130.793 405.92 130.81C408.542 132.414 428.092 131.779 432.488 131.477C434.852 133.205 439.549 135.713 440.828 138.355L440.662 138.928C438.949 139.552 437.061 139.204 435.278 139.065L425.15 139.196C412.098 138.768 398.926 139.148 385.861 139.141C369.515 139.61 353.167 139.717 336.816 139.461C338.596 135.8 340.917 132.27 342.934 128.728C347.292 120.979 351.748 113.287 356.303 105.652C360.056 99.3133 363.354 92.5617 367.531 86.5066C370.709 85.9389 371.888 83.228 376.171 83.1614Z" fill="#8A6D81"/>
<path d="M379.95 90.2461C380.147 91.2797 380.112 92.3494 379.441 93.2505C378.573 94.4147 377.88 94.473 376.558 94.7962L375.958 94.5397C376.644 92.2438 378.047 91.5066 379.95 90.2461Z" fill="#7D415E"/>
<path d="M392.531 131.441C396.855 131.1 401.606 130.324 405.92 130.81C408.542 132.414 428.092 131.779 432.488 131.477C434.852 133.206 439.549 135.714 440.828 138.355L440.662 138.928C438.949 139.552 437.061 139.204 435.278 139.065C436.102 138.845 436.901 138.638 437.746 138.511C437.948 138.481 438.152 138.458 438.354 138.431L438.556 137.867L435.316 134.718C423.836 134.81 409.274 135.495 398.092 134.505C396.743 134.102 395.289 133.887 393.905 133.609L393.818 133.283L394.691 133.873L394.301 133.332C403.429 132.579 413.01 133.053 422.202 132.834C421.354 132.424 421.801 132.542 420.69 132.517C416.298 132.421 394.523 132.691 392.531 131.441Z" fill="#4F557D"/>
<path d="M410.61 91.1465C419.053 92.2393 458.401 88.4477 461.738 93.0117C462.399 93.9166 462.724 95.2039 463.088 96.2588C462.237 95.2993 461.359 94.1972 460.341 93.4146C457.077 90.902 433.614 91.8235 428.483 92.2264C420.838 92.4718 413.173 92.3958 405.524 92.4107C400.151 92.3273 386.186 90.6436 382.373 94.2018C379.036 97.3164 377.774 112.924 376.988 117.836C376.632 119.799 376.473 122.24 375.369 123.92C375.627 118.938 378.633 95.805 381.359 93.0627C384.62 89.7823 405.258 91.0001 410.61 91.1465Z" fill="#333151"/>
<path d="M398.081 1.10566C406.202 0.775031 435.295 -0.61789 441.85 1.17234C445.664 2.21426 449.201 4.67687 452.572 6.7079C461.469 13.5391 467.693 20.814 472.527 30.9552L488.544 31.3192C491.774 31.2627 495.217 31.0914 498.409 31.6786C502.426 31.6934 506.423 31.6313 510.411 32.1759C510.492 32.1861 510.573 32.1954 510.654 32.2055L512.562 37.4623C512.995 39.2665 513.495 40.9622 514.172 42.6904C518.234 43.0034 522.301 43.2211 526.373 43.3433C519.504 44.99 499.806 43.8888 491.692 43.711C464.185 44.1691 436.675 44.3914 409.163 44.3778C402.654 44.3871 372.21 43.4869 368.573 44.5899C360.297 44.6557 350.417 43.9111 342.346 45.0724C326.141 44.9965 309.946 45.705 293.74 45.6791L294.064 52.2195L293.85 53.479C293.057 53.3605 293.336 53.505 292.938 53.2429C292.742 50.3928 292.646 47.5397 292.649 44.6835C303.559 44.6575 314.492 44.2389 325.407 44.0796C325.845 43.2813 325.35 41.0159 325.254 40.0148C325.88 38.1495 326.687 35.2887 328.544 34.2838C334.782 30.9089 367.671 32.8705 371.823 30.1393C374.387 26.7181 375.84 22.4551 378.102 18.8256C379.897 15.9452 382.877 13.2168 385.195 10.6977C389.342 7.26544 393.581 4.06376 398.081 1.10566Z" fill="#333151"/>
<path d="M488.544 31.3202C491.774 31.2637 495.217 31.0924 498.409 31.6795C501.465 33.5253 506.117 32.7409 509.605 32.9039C510.13 34.7793 510.793 36.6575 510.841 38.6154L510.251 39.2545C502.834 38.1301 480.835 39.6481 475.996 37.5939C474.158 36.8141 473.285 33.6522 472.566 31.9231C477.749 31.8147 483.463 32.3028 488.544 31.3202Z" fill="#443F61"/>
<path d="M396.546 3.58417C399.98 1.15489 406.642 1.97453 410.708 1.93563L410.909 2.97848C410.268 3.67957 409.761 3.89165 408.915 4.25377C399.083 8.46402 392.96 17.0688 384.544 22.8729C383.945 23.286 384.186 23.086 383.679 23.6426L385.883 24.3307C383.63 26.1163 381.621 24.678 378.999 25.3643L376.819 24.9966C376.378 24.1853 376.384 24.0603 376.618 23.1841C378.25 17.0827 391.132 6.52467 396.546 3.58417Z" fill="#B86972"/>
<path d="M439.85 42.8912C440.117 41.8363 440.176 40.7972 440.271 39.7164C441.785 38.4059 500.255 39.4367 508.015 39.8701L509.317 40.4749C509.357 41.3733 509.44 41.0343 509.28 41.5196C502.822 41.4427 496.281 42.1586 489.837 42.5911C479.646 42.8542 469.449 42.643 459.259 42.8893C452.405 43.0542 445.15 44.06 438.33 43.4219C427.766 42.1281 415.453 44.7666 405.16 42.8393C406.424 42.7069 407.497 42.8616 408.475 42.0095L408.618 39.2339C414.416 39.3126 434.318 38.7217 438.97 39.872L439.85 42.8912Z" fill="#443F61"/>
<path d="M385.883 24.331C392.992 22.1156 399.847 23.0927 407.147 23.3881L403.265 23.9901L401.767 24.3754C401.758 26.3944 401.837 28.4162 401.463 30.4065L396.767 30.325C398.274 30.7047 399.773 31.1076 401.304 31.3752L401.099 31.3613C401.066 33.4692 400.945 35.6169 401.085 37.7202C402.984 37.7054 405.434 37.3636 407.197 38.0388C398.16 37.9845 389.123 38.0129 380.086 38.124L376.265 38.2222C375.236 38.2537 374.21 38.2213 373.181 38.2009C372.28 37.397 372.17 37.1932 371.958 35.9439C371.438 32.8867 373.828 28.6283 375.554 26.2416L378.644 26.1684L378.999 25.3645C381.621 24.6783 383.63 26.1166 385.883 24.331Z" fill="#8A6D81"/>
<path d="M390.252 25.7338L390.413 25.2078C392.743 23.5555 398.771 24.3391 401.768 24.3752C401.758 26.3942 401.837 28.4159 401.463 30.4062L396.767 30.3247L389.867 30.2904C390.107 29.1031 390.117 27.9881 390.15 26.7822L390.252 25.7338Z" fill="#52EDE7"/>
<path d="M410.708 1.93624C416.386 0.791532 425.057 1.62228 431.067 1.62228C426.373 9.08329 421.904 16.9963 415.697 23.3311C412.864 23.3338 409.973 23.2246 407.147 23.3885C399.847 23.093 392.992 22.116 385.883 24.3313L383.679 23.6432C384.185 23.0866 383.945 23.2866 384.544 22.8736C392.96 17.0694 399.082 8.46463 408.915 4.25439C409.761 3.89226 410.268 3.68018 410.909 2.97909L410.708 1.93624Z" fill="url(#paint1_linear_6_5230)"/>
<path d="M327.343 37.6507C327.436 37.4525 327.521 37.2506 327.622 37.0561C328.225 35.9077 329.003 34.9575 330.312 34.6139C333.756 33.7072 369.401 31.5178 371.074 32.4467L371.182 35.9883C371.07 36.9755 370.981 37.898 371.03 38.8908C375.415 39.5021 380.098 39.164 384.524 39.1575C392.556 39.1322 400.587 39.1575 408.618 39.2335L408.475 42.0091C407.497 42.8612 406.424 42.7065 405.16 42.8389C394.559 42.5342 383.019 43.4317 372.262 43.5113C356.733 43.6262 340.881 42.9612 325.407 44.08C325.845 43.2816 325.349 41.0163 325.254 40.0151L325.814 41.7146L326.147 41.6711C326.503 40.3097 326.894 38.9843 327.343 37.6507Z" fill="#8A6D81"/>
<path d="M431.067 1.62249C435.599 1.61508 440.801 0.998277 444.741 3.63315C453.092 7.68688 461.64 14.2606 465.304 23.1183C465.37 23.2776 465.417 23.4452 465.473 23.6091L465.07 24.2908C464.28 24.2083 463.49 24.0972 462.701 24.0166C461.95 23.9407 461.71 23.9907 461.07 24.3362C460.887 24.7761 460.636 25.253 460.531 25.717C461.315 26.6913 461.699 27.5452 462.173 28.6862C462.247 27.4119 462.094 27.2516 462.984 26.369C464.647 26.3598 465.549 27.0849 466.723 28.2343C468.111 29.5939 471.275 32.7705 471.292 34.7099C471.301 35.9213 471.237 36.4538 470.403 37.329C460.161 38.6302 449.211 38.0384 438.865 38.0931C428.391 38.1468 417.636 38.6599 407.197 38.0394C405.434 37.3642 402.984 37.706 401.085 37.7208C400.945 35.6175 401.066 33.4698 401.099 31.3619L401.304 31.3758C399.773 31.1081 398.274 30.7052 396.767 30.3255L401.463 30.407C401.837 28.4167 401.758 26.395 401.767 24.376L403.265 23.9907L407.147 23.3887C409.973 23.2248 412.864 23.3341 415.697 23.3313C421.905 16.9965 426.373 9.0835 431.067 1.62249Z" fill="#443F61"/>
<path d="M418.007 29.4108C418.159 29.2367 418.359 29.0941 418.464 28.8885C419.033 27.7734 419.322 26.2323 419.935 24.9968C421.553 23.841 426.945 24.6042 429.057 24.6338L431.865 24.7431C431.704 26.7435 431.224 28.4875 430.622 30.3963C427.537 30.4064 420.135 31.3289 418.007 29.4108Z" fill="#34DCDE"/>
<path d="M431.865 24.7441C436.684 24.8266 441.512 24.8238 446.308 25.3387L446.737 25.2758C447.109 26.5492 447.709 27.8301 447.197 29.1257C446.348 29.7425 445.953 29.8101 444.91 29.812C440.266 30.4973 435.314 30.5761 430.622 30.3973C431.224 28.4885 431.704 26.7446 431.865 24.7441Z" fill="#34A5B4"/>
<path d="M446.737 25.2764C447.109 26.5498 447.709 27.8307 447.197 29.1263C446.348 29.7432 445.953 29.8108 444.91 29.8126C443.62 29.2338 442.474 29.0476 441.247 28.2233L441.16 27.3519C442.54 26.2145 444.28 26.7814 445.728 25.7719C445.926 25.6339 446.115 25.4829 446.308 25.3393L446.737 25.2764Z" fill="#3394A7"/>
<path d="M431.067 1.62249C435.599 1.61508 440.801 0.998277 444.741 3.63315C445.84 5.03348 447.481 5.52527 448.105 6.67369C447.963 6.73481 447.812 6.77926 447.677 6.85706C443.148 9.466 440.412 19.5147 436.108 23.5989C433.799 23.8546 431.273 23.9342 429.057 24.6353C426.945 24.6057 421.553 23.8425 419.935 24.9983C419.322 26.2338 419.033 27.7749 418.464 28.89C418.359 29.0956 418.159 29.2382 418.007 29.4123L417.324 29.5865C414.242 31.4499 408.063 30.3366 404.45 30.4478L401.463 30.407C401.837 28.4167 401.758 26.395 401.767 24.376L403.265 23.9907L407.147 23.3887C409.973 23.2248 412.865 23.3341 415.697 23.3313C421.905 16.9965 426.373 9.0835 431.067 1.62249Z" fill="#4F557D"/>
<path d="M417.192 24.6533C417.638 26.1083 417.412 27.0956 417.117 28.5357C415.573 28.206 413.981 28.0634 412.425 27.755C411.279 26.6788 411.325 26.2157 410.984 24.7191C413.046 24.7024 415.134 24.7552 417.192 24.6533Z" fill="#52EDE7"/>
<path d="M404.663 24.6846L410.983 24.7198C411.325 26.2164 411.279 26.6795 412.424 27.7557C413.98 28.0641 415.572 28.2067 417.116 28.5364L417.324 29.5857C414.242 31.4491 408.063 30.3359 404.449 30.447L404.663 24.6846Z" fill="#38E3E2"/>
<path d="M201.201 52.3124C216.738 51.0844 232.728 50.7398 247.252 57.0015C249.454 60.4597 249.776 66.1888 249.956 70.2231C256.412 69.1534 262.803 67.3687 269.215 66.0342C278.16 64.1726 287.112 62.7001 296.128 61.2618C301.093 59.7697 319.03 61.2303 325.407 61.2571C353.413 61.4893 381.419 61.4896 409.425 61.258L412.345 61.3942C430.086 61.0867 447.887 61.7906 465.625 62.1221C480.724 62.4046 495.874 62.2972 510.976 62.2222C515.754 62.2024 520.526 62.0076 525.291 61.6378C531.242 61.1284 539.699 58.5269 545.366 59.9003C543.83 60.1745 542.292 60.4875 540.741 60.6542C543.023 61.823 545.45 62.4407 547.828 63.3632C543.898 63.9327 540.312 65.0108 536.519 66.1305C524.087 69.9138 511.247 73.5887 498.605 76.5552C492.873 77.9295 487.133 79.2647 481.382 80.5607C478.429 81.2025 474.512 81.4683 471.811 82.7233C470.854 85.1618 473.513 87.366 472.837 89.0886C472.155 88.6895 472.019 88.4533 471.558 87.7744C470.449 86.1417 468.903 85.4887 467.084 84.8941L467.435 83.9726C467.992 83.9096 468.422 83.7244 468.943 83.5262L468.954 82.9826C466.006 80.8765 464.141 80.3792 460.52 80.6431C460.49 80.6302 460.46 80.6116 460.428 80.6033C459.392 80.3449 436.337 79.566 435.85 79.705C435.492 79.8068 435.212 80.0884 434.893 80.2801L430.165 81.5183C431.744 81.9722 433.313 82.3843 434.921 82.7233L434.879 82.3648L435.345 82.8409C423.769 82.9316 412.15 82.702 400.584 82.9372C399.811 82.9529 399.185 83.2586 398.437 83.3614C396.301 83.655 393.527 83.3262 391.359 83.278C394.37 83.9624 397.291 84.0319 400.345 84.3431L400.009 84.2903L400.655 85.0136C400.545 85.0275 400.434 85.0395 400.325 85.0544C400.165 85.0757 400.008 85.1025 399.849 85.1229C396.877 85.4915 392.918 85.2803 390.214 83.9819C389.993 83.8754 389.767 83.7781 389.545 83.6716C389.402 83.6031 389.26 83.5281 389.117 83.4568C385.027 82.6742 380.344 83.1326 376.171 83.1613C371.888 83.228 370.709 85.9388 367.531 86.5066L366.185 86.4158C365.011 85.6304 363.634 85.2878 362.301 84.8339C358.733 84.4496 354.779 83.0807 351.263 82.2343C338.035 79.0492 304.176 70.5936 294.191 62.6704C289.413 63.177 282.803 63.2678 278.489 65.4877C273.577 68.0152 253.6 89.7184 250.846 89.7657C250.986 89.0581 251.161 88.7386 251.678 88.2245C254.708 85.2081 258.201 82.5593 261.399 79.7151C266.551 75.0529 271.62 70.3018 276.606 65.4618C270.28 66.675 262.645 67.4104 256.778 70.0082C250.676 72.7098 242.14 82.5519 236.872 87.4429C234.662 89.4952 231.362 93.0285 228.651 94.2982C228.928 92.7821 250.717 73.4683 253.811 70.2555C239.231 72.5116 224.944 76.7691 210.438 79.2299C192.765 83.9856 174.854 87.8374 157.169 92.5571L157.205 91.5716C174.059 86.8826 191.186 83.2187 208.115 78.827C205.99 69.9156 203.86 61.0839 201.201 52.3124Z" fill="#333151"/>
<path d="M208.004 72.294C209.707 71.4642 211.59 71.2178 213.313 70.4714C214.532 69.9435 214.767 69.5758 215.179 68.3486C215.446 70.9733 216.021 73.6721 216.832 76.1847L217.535 76.3727C214.876 77.4804 211.849 77.861 209.029 78.3964L208.004 72.294Z" fill="#A66471"/>
<path d="M247.252 57.002C249.454 60.4602 249.776 66.1893 249.956 70.2236C247.802 70.4125 245.709 70.9015 243.595 71.3442L241.624 60.625C243.299 59.4164 245.566 59.5674 246.796 58.0216L247.252 57.002Z" fill="#4F557D"/>
<path d="M483.727 63.2285C496.271 63.461 508.823 63.0924 521.348 63.3526C516.166 64.9095 510.622 65.3549 505.286 66.232C497.612 67.5632 489.945 68.9385 482.285 70.358C481.843 69.7449 481.144 68.9993 480.902 68.2723C480.565 67.26 480.442 65.8745 481.025 64.916C481.782 63.6666 482.426 63.5749 483.727 63.2285Z" fill="#443F61"/>
<path d="M202.509 53.0276C212.535 52.3867 225.41 50.715 234.991 54.0241L233.132 55.0364C230.888 54.0222 228.635 54.0602 226.311 54.8863C223.141 56.0125 220.36 59.2031 219.124 62.2705C218.598 63.5745 218.313 65.0155 218.01 66.3835L217.275 67.1336C217.254 66.1677 217.277 65.5175 216.988 64.5923C215.963 65.3943 215.628 67.1105 215.179 68.3478C214.767 69.5749 214.532 69.9426 213.313 70.4705C211.59 71.217 209.707 71.4633 208.004 72.2932C206.473 65.8009 204.796 59.2985 202.509 53.0276Z" fill="#B86972"/>
<path d="M234.991 54.0254C239.012 54.8765 243.171 56.0342 246.796 58.0217C245.566 59.5674 243.299 59.4165 241.624 60.6251C241.273 59.9147 240.912 59.3331 240.406 58.7274C239.729 57.918 240.142 58.1301 239.133 58.0458C239.828 59.0664 240.534 60.062 241.092 61.166C241.509 64.6131 242.063 68.0574 242.401 71.511C236.287 73.0558 230.178 74.0995 223.958 75.1229L217.535 76.3732L216.832 76.1852C216.021 73.6726 215.446 70.9738 215.179 68.3491C215.628 67.1118 215.963 65.3957 216.988 64.5936C217.277 65.5188 217.254 66.169 217.275 67.1349L218.01 66.3848C218.313 65.0169 218.598 63.5758 219.124 62.2718C220.36 59.2044 223.141 56.0138 226.311 54.8876C228.635 54.0615 230.888 54.0235 233.132 55.0377L234.991 54.0254Z" fill="#8A6D81"/>
<path d="M218.01 66.3843C218.313 65.0164 218.598 63.5754 219.124 62.2713C220.36 59.204 223.141 56.0134 226.311 54.8872C228.635 54.0611 230.888 54.0231 233.132 55.0372L232.044 55.6003C228.627 55.4188 225.537 55.8032 222.889 58.1778C222.629 58.4118 222.381 58.6585 222.147 58.9178C221.912 59.1765 221.691 59.4466 221.484 59.7282C221.276 60.0097 221.083 60.3011 220.906 60.6024C220.728 60.9031 220.565 61.2121 220.419 61.5295C220.272 61.8469 220.142 62.1707 220.028 62.501C219.913 62.832 219.817 63.1675 219.737 63.5077C219.657 63.8479 219.594 64.1915 219.549 64.5385C219.503 64.8849 219.475 65.2328 219.466 65.5823C219.43 67.1308 219.86 69.06 220.987 70.2019C221.861 71.0882 222.78 71.4846 224.033 71.4587C225.485 71.4281 226.89 70.6863 228.077 69.9259C229.269 70.589 230.469 70.6289 231.806 70.5946C233.247 70.5566 234.435 70.2084 235.396 69.0729C237.282 66.8483 236.877 64.7728 236.704 62.0806C236.113 60.7914 235.731 59.3762 235.294 58.025L236.153 57.8184L236.896 57.3544L239.133 58.0453C239.828 59.066 240.534 60.0616 241.092 61.1655C241.509 64.6126 242.063 68.057 242.401 71.5105C236.287 73.0554 230.178 74.0991 223.958 75.1225L217.535 76.3728L216.832 76.1848C216.021 73.6722 215.446 70.9734 215.179 68.3487C215.628 67.1114 215.963 65.3952 216.988 64.5932C217.277 65.5184 217.254 66.1685 217.275 67.1345L218.01 66.3843Z" fill="#4F557D"/>
<path d="M236.153 57.8185L236.896 57.3545L239.133 58.0454C239.828 59.066 240.534 60.0616 241.092 61.1656C239.412 62.0991 239.333 62.8039 238.69 64.5099C237.313 62.5029 236.815 60.1348 236.153 57.8185Z" fill="#B86972"/>
<path d="M215.179 68.3483C215.628 67.1109 215.963 65.3948 216.988 64.5928C217.277 65.518 217.254 66.1681 217.275 67.1341L218.01 66.3839C219.09 68.7493 220.705 71.1841 220.916 73.7986C221.942 74.2033 223.014 74.5507 223.958 75.1221L217.535 76.3724L216.832 76.1844C216.021 73.6717 215.446 70.973 215.179 68.3483Z" fill="#8A6D81"/>
<path d="M410.241 62.3233C434.698 61.8593 459.275 62.6706 483.727 63.2282C482.426 63.5745 481.782 63.6662 481.025 64.9156C480.442 65.8742 480.565 67.2597 480.902 68.2719C481.144 68.999 481.843 69.7445 482.285 70.3576C481.061 70.4965 479.727 70.5549 478.534 70.8337C473.226 71.356 467.905 71.5665 462.572 71.4653C459.671 71.4403 456.822 71.5283 453.927 71.7329C449.99 72.2312 442.038 72.9869 438.37 71.7533C431.885 72.7748 424.384 72.008 417.817 71.8848C420.451 71.1856 423.525 71.5783 426.238 71.6246C428.6 71.6644 432.412 72.0617 434.162 70.1214C434.746 69.475 434.526 69.3398 434.431 68.56C430.177 64.3266 416.381 68.4322 410.732 65.9575C410.038 64.6933 410.233 63.7487 410.241 62.3233Z" fill="url(#paint2_linear_6_5230)"/>
<path d="M452.763 69.4579C452.959 67.8372 452.85 66.7758 453.868 65.4727C455.051 65.1532 455.886 64.817 457.075 65.3338L457.931 67.1954C459.064 67.6047 460.123 67.8242 461.302 68.0409L460.73 68.0807C459.373 68.1826 458.29 68.2539 457.039 68.8531C458.719 69.9377 461.476 70.0608 463.451 70.6388C462.788 71.3713 463.113 71.1342 462.572 71.4658C459.671 71.4408 456.822 71.5288 453.927 71.7335C449.99 72.2317 442.038 72.9875 438.369 71.7538C437.186 71.1518 435.861 71.0046 434.565 70.7434L434.426 70.41C435.366 69.8876 436.296 70.0377 437.335 70.0738L437.862 70.0951C437.002 69.8599 436.419 69.4653 435.685 68.968L435.605 67.9622L436.275 67.4713C438.008 67.6871 439.332 67.5065 441.038 67.1657L440.861 67.1509C442.806 66.585 444.888 66.1173 446.924 66.347C449.717 66.6619 451.124 67.2815 452.763 69.4579Z" fill="#443F61"/>
<path d="M309.562 61.7207C315.307 62.5524 321.17 62.3486 326.962 62.3764C354.716 62.0736 382.484 62.4014 410.241 62.3245C410.233 63.7499 410.038 64.6946 410.732 65.9587C416.381 68.4334 430.177 64.3278 434.431 68.5612C434.526 69.341 434.747 69.4762 434.162 70.1227C432.412 72.0629 428.6 71.6656 426.238 71.6258C423.525 71.5795 420.451 71.1868 417.818 71.886C414.878 72.0379 411.967 72.0361 409.025 71.9889C399.275 71.7666 389.2 72.6436 379.516 71.5767C370.089 71.787 360.405 71.0016 350.991 70.4459C354.706 68.0361 366.232 71.5767 371.086 69.4327C369.568 68.7742 367.822 69.0743 366.205 69.1799C366.101 69.1845 365.996 69.1873 365.892 69.1919C360.281 69.4568 354.99 68.4667 349.432 68.3639C338.466 67.7286 327.051 65.5373 316.197 63.7841C313.877 63.3248 311.765 62.5487 309.562 61.7207Z" fill="#8A6D81"/>
<path d="M402.81 66.5052C405.011 66.3801 407.171 66.3561 409.375 66.395C409.201 68.2574 408.976 70.1153 409.025 71.9879C399.275 71.7657 389.2 72.6427 379.516 71.5758C381.893 71.3239 384.316 71.3082 386.706 71.2091C382.817 71.021 378.996 70.8784 375.103 71.0599C375.957 70.6422 376.917 70.5506 377.848 70.3755C376.944 70.0764 377.336 70.1421 376.341 70.0856C375.411 70.0329 375.475 69.9486 374.764 69.4225L374.771 68.5445L375.576 67.7758L376.255 67.9944C380.8 68.4825 405.595 68.6186 408.563 67.3461C407.331 66.419 404.738 67.4961 403.179 66.7487C403.045 66.6848 402.933 66.5867 402.81 66.5052Z" fill="#4F557D"/>
<path d="M326.962 62.3761C354.716 62.0732 382.484 62.4011 410.241 62.3242C410.233 63.7496 410.038 64.6942 410.732 65.9584C416.381 68.4331 430.177 64.3275 434.431 68.5609C434.526 69.3407 434.746 69.4759 434.162 70.1224C432.412 72.0626 428.6 71.6653 426.238 71.6255C423.525 71.5792 420.45 71.1865 417.817 71.8857C414.878 72.0376 411.967 72.0358 409.025 71.9885C408.976 70.1159 409.201 68.258 409.375 66.3956C407.171 66.3567 405.011 66.3807 402.81 66.5058C400.113 66.6215 397.468 66.1288 394.811 65.7297C399.066 63.8311 404.55 65.5268 408.788 63.707C408.971 63.6283 409.152 63.5403 409.334 63.4569C409.315 63.4875 408.426 63.7903 408.38 63.807L407.959 63.1198C394.983 62.19 381.605 62.6419 368.586 62.7855C354.887 62.7919 340.577 63.5829 326.962 62.3761Z" fill="#443F61"/>
<path d="M510.773 66.639C518.753 68.5691 533.661 60.4996 539.269 63.2373L539.665 64.2227C538.177 64.7626 537.239 64.6478 536.518 66.1305C524.087 69.9138 511.247 73.5888 498.605 76.5552C492.873 77.9296 487.132 79.2648 481.382 80.5608C478.429 81.2026 474.512 81.4684 471.811 82.7233C470.854 85.1618 473.513 87.3661 472.837 89.0887C472.155 88.6895 472.019 88.4534 471.558 87.7745C470.449 86.1417 468.903 85.4888 467.084 84.8942L467.435 83.9727C467.992 83.9097 468.422 83.7245 468.943 83.5263L468.953 82.9826C466.006 80.8766 464.141 80.3792 460.52 80.6432C460.489 80.6302 460.46 80.6117 460.427 80.6034C459.392 80.345 436.337 79.5661 435.85 79.705C435.492 79.8069 435.212 80.0884 434.893 80.2801L430.165 81.5184C431.744 81.9722 433.313 82.3843 434.92 82.7233L434.879 82.3649L435.345 82.8409C423.769 82.9317 412.149 82.702 400.584 82.9373C399.81 82.953 399.185 83.2586 398.437 83.3614C396.301 83.655 393.527 83.3262 391.358 83.2781C394.37 83.9625 397.29 84.032 400.345 84.3431L400.009 84.2903L400.655 85.0137C400.545 85.0276 400.434 85.0396 400.324 85.0544C400.165 85.0757 400.008 85.1026 399.848 85.123C396.877 85.4916 392.918 85.2804 390.214 83.9819C389.992 83.8754 389.767 83.7782 389.545 83.6717C389.401 83.6031 389.26 83.5281 389.117 83.4568C385.027 82.6742 380.344 83.1327 376.171 83.1614C371.888 83.2281 370.709 85.9389 367.531 86.5066L366.185 86.4158C365.011 85.6305 363.633 85.2878 362.301 84.834C358.733 84.4496 354.779 83.0808 351.263 82.2343C338.035 79.0493 304.176 70.5936 294.191 62.6705C300.304 61.6147 308.501 62.3908 314.311 64.4561L316.196 63.7837C327.051 65.5369 338.465 67.7281 349.432 68.3635C354.99 68.4663 360.281 69.4563 365.891 69.1914C365.996 69.1868 366.101 69.184 366.204 69.1794C367.821 69.0738 369.568 68.7737 371.086 69.4322C366.232 71.5763 354.705 68.0356 350.991 70.4454C348.996 70.7242 346.788 70.2584 344.792 70.0231L344.438 70.7557C350.035 72.1616 356.843 71.868 362.646 72.1357C383.561 73.1007 404.393 72.7682 425.315 72.8895C438.617 72.9655 451.833 74.1352 465.159 73.51C469.564 73.3026 474.063 72.2699 478.422 71.6105C483.847 71.8661 504.02 67.6383 510.773 66.639Z" fill="url(#paint3_linear_6_5230)"/>
<path d="M316.197 63.7832C327.051 65.5364 338.466 67.7277 349.432 68.363C354.99 68.4658 360.281 69.4558 365.892 69.191C365.996 69.1863 366.101 69.1835 366.205 69.1789C367.822 69.0733 369.568 68.7733 371.086 69.4317C366.232 71.5758 354.706 68.0351 350.991 70.445C348.996 70.7237 346.788 70.2579 344.792 70.0226L344.438 70.7552C333.828 71.2618 316.443 69.1206 306.542 65.1789C312.506 65.9689 318.192 66.356 324.047 67.9101L322.823 67.9944C325.827 68.801 328.298 69.3512 331.436 68.8492L330.729 68.5649L331.831 68.0537L332.132 67.3831C328.704 65.0668 318.946 65.8513 314.311 64.4556L316.197 63.7832Z" fill="#443F61"/>
<path d="M372.869 81.2574C368.79 81.3833 365.367 79.7014 361.442 79.0115C354.451 77.7815 347.122 77.4833 340.23 75.8857C345.096 75.6218 356.704 77.1981 361.667 78.3595C364.828 79.0995 367.903 80.4803 371.165 80.7008C377.742 81.1444 384.501 80.7711 391.096 80.8137C397.694 80.8573 404.286 81.2592 410.886 81.2425C417.238 81.2259 423.854 80.8091 430.165 81.5185C431.744 81.9723 433.313 82.3845 434.921 82.7234L434.879 82.365L435.345 82.8411C423.769 82.9318 412.15 82.7021 400.584 82.9374C399.811 82.9531 399.185 83.2588 398.437 83.3616C396.301 83.6552 393.527 83.3264 391.359 83.2782C394.37 83.9626 397.291 84.0321 400.345 84.3433L400.009 84.2905L400.655 85.0138C400.545 85.0277 400.434 85.0397 400.325 85.0545C400.165 85.0758 400.008 85.1027 399.849 85.1231C396.878 85.4917 392.918 85.2805 390.214 83.9821C389.993 83.8756 389.768 83.7783 389.545 83.6718C389.402 83.6033 389.26 83.5283 389.117 83.457C385.028 82.6744 380.344 83.1328 376.171 83.1615C371.888 83.2282 370.709 85.939 367.531 86.5067L366.185 86.416C365.011 85.6306 363.634 85.2879 362.301 84.8341C366.793 85.2379 369.112 83.3532 372.869 81.2574Z" fill="#4F557D"/>
<path d="M276.606 65.4623C271.62 70.3023 266.551 75.0534 261.399 79.7156C258.201 82.5598 254.708 85.2086 251.678 88.225C251.161 88.739 250.986 89.0586 250.846 89.7661C253.6 89.7189 273.577 68.0157 278.489 65.4882C282.803 63.2683 289.413 63.1775 294.191 62.6709C304.176 70.5941 338.035 79.0497 351.263 82.2347C354.779 83.0812 358.733 84.4501 362.301 84.8344C363.633 85.2882 365.011 85.6309 366.185 86.4163C362.291 92.7622 358.976 99.5249 355.156 105.945C347.999 117.976 336.038 136.262 331.613 149.158C326.784 149.506 321.674 149.074 316.826 148.962C307.163 148.692 297.498 148.499 287.831 148.385L186.746 148.354L187.049 147.889C193.71 137.816 201.983 128.91 208.618 118.816C210.323 118.085 225.502 97.7986 228.651 94.2987C231.362 93.0289 234.662 89.4957 236.872 87.4434C242.14 82.5524 250.676 72.7103 256.778 70.0087C262.645 67.4109 270.28 66.6755 276.606 65.4623Z" fill="#B86972"/>
<path d="M342.931 109.688C344.385 111.515 346.267 113.198 347.981 114.788C344.967 118.15 341.839 120.856 337.113 121.097C329.678 121.475 322.096 121.14 314.651 121.096L268.346 120.693L246.521 120.673C242.05 120.697 237.203 121.067 232.775 120.461C231.005 120.22 229.687 119.125 228.37 118.011L230.224 116.394C231.333 116.266 231.278 116.229 232.171 116.892C231.884 117.925 231.192 117.416 230.287 118.105C230.579 118.046 231.782 117.784 232.048 117.798C233.141 117.854 234.2 118.269 235.373 118.282C239.178 118.325 243.002 117.991 246.813 117.978L297.421 117.625C309.223 117.496 321.362 118.351 333.106 117.687C334.462 117.611 335.286 117.432 336.482 116.771C339.355 115.181 342.03 112.955 342.931 109.688Z" fill="#8A6D81"/>
<path d="M248.819 130.564C251.53 129.654 254.231 129.036 257.077 128.764C266.758 127.84 276.929 128.346 286.664 128.385C293.508 128.413 300.973 127.917 307.723 128.869C309.111 129.098 309.842 129.511 311.012 130.235C311.54 131.18 311.918 131.59 311.493 132.711C310.844 134.427 308.798 135.549 307.129 136.036C306.875 136.111 306.617 136.174 306.362 136.243C295.531 137.45 284.207 136.928 273.31 136.93C266.047 136.931 258.055 137.525 250.883 136.43C249.317 136.19 248.403 135.718 247.152 134.768L247.289 134.333L248.742 133.846L246.904 131.845C247.374 130.807 247.795 130.951 248.819 130.564Z" fill="#4F557D"/>
<path d="M247.152 134.768L247.289 134.333L248.742 133.846L246.904 131.845C247.374 130.807 247.795 130.951 248.819 130.563C250.604 130.724 252.26 130.89 253.987 131.383C254.041 131.687 254.162 131.997 254.105 132.299C253.998 133.838 254.179 134.475 253.159 135.671C252.081 135.848 250.807 135.585 249.846 135.042C248.961 134.896 248.044 134.851 247.152 134.768Z" fill="#8A6D81"/>
<path d="M228.37 118.01C228.755 116.301 229.389 115.192 230.745 114.045C233.252 111.924 236.782 110.99 239.981 110.615C248.18 109.654 256.648 110.026 264.898 110.027L303.408 109.99C311.666 109.965 319.93 109.994 328.186 109.868C333.058 109.793 338.085 109.207 342.931 109.687C342.03 112.954 339.355 115.181 336.482 116.77C335.286 117.431 334.462 117.61 333.106 117.686C321.362 118.35 309.223 117.495 297.421 117.625L246.813 117.978C243.002 117.991 239.178 118.324 235.373 118.282C234.2 118.269 233.141 117.854 232.048 117.797C231.782 117.783 230.579 118.045 230.287 118.105C231.192 117.416 231.884 117.924 232.171 116.891C231.278 116.228 231.333 116.265 230.224 116.393L228.37 118.01Z" fill="#4F557D"/>
<defs>
<linearGradient id="paint0_linear_6_5230" x1="393.837" y1="176.54" x2="389.227" y2="177.154" gradientUnits="userSpaceOnUse">
<stop stop-color="#48416C"/>
<stop offset="1" stop-color="#3A5278"/>
</linearGradient>
<linearGradient id="paint1_linear_6_5230" x1="417.852" y1="19.6166" x2="397.64" y2="5.63114" gradientUnits="userSpaceOnUse">
<stop stop-color="#886B82"/>
<stop offset="1" stop-color="#C77E8F"/>
</linearGradient>
<linearGradient id="paint2_linear_6_5230" x1="475.443" y1="79.4754" x2="417.474" y2="49.7099" gradientUnits="userSpaceOnUse">
<stop stop-color="#393257"/>
<stop offset="1" stop-color="#5A4E6B"/>
</linearGradient>
<linearGradient id="paint3_linear_6_5230" x1="423.486" y1="37.4062" x2="411.343" y2="94.5899" gradientUnits="userSpaceOnUse">
<stop stop-color="#2A1C42"/>
<stop offset="1" stop-color="#524C6C"/>
</linearGradient>
</defs>
</svg>
