<svg width="1920" height="1080" viewBox="0 0 1920 1080" fill="none" xmlns="http://www.w3.org/2000/svg">
<g clip-path="url(#clip0_1_2)">
<rect width="1920" height="1080" fill="#2D1A37"/>
<g clip-path="url(#clip1_1_2)">
<path d="M1319.08 598.496L1323.02 598.029C1325.49 599.292 1325.92 599.435 1327.24 601.829C1326.35 604.742 1326.12 604.78 1323.58 606.504C1321.14 606.765 1321.05 606.797 1319.01 605.454C1317.91 602.742 1318.33 601.172 1319.08 598.496Z" fill="#F0F4EE"/>
<path d="M1669.21 575.499C1670.41 575.325 1671.83 575.036 1673.05 575.11C1675.53 575.261 1678.01 576.25 1679.57 578.309C1681.17 580.424 1681.04 581.578 1680.78 584.027C1678.86 586.627 1678.09 586.874 1675.18 587.972C1673.22 588.87 1671.94 589.014 1669.8 588.845C1667.87 587.059 1667.18 586.131 1666.59 583.561C1665.79 580.109 1667.49 578.198 1669.21 575.499Z" fill="#482446"/>
<path d="M662.961 605.213C664.158 605.163 665.351 605.135 666.549 605.182C668.994 605.279 671.143 606.282 672.642 608.294C674.02 610.143 674.36 612.256 673.801 614.466C672.982 617.709 670.835 619.025 668.138 620.561C664.994 620.406 661.442 620.469 659.171 617.916C657.515 616.055 656.862 614.122 657.363 611.646C657.99 608.546 660.539 606.859 662.961 605.213Z" fill="#482446"/>
<path d="M1746.59 515.836C1747.12 517.068 1747.24 518.414 1747.44 519.73C1746.44 522.1 1746.03 523.545 1743.42 524.57C1741.12 525.477 1737.97 524.906 1735.74 523.987C1732.95 522.84 1731.29 521.125 1730.15 518.314C1729.95 515.72 1730.38 514.047 1731.88 511.897C1733.21 509.999 1735.57 507.775 1738 507.68C1740.83 507.568 1741.77 508.435 1743.76 510.166L1746.67 512.249C1746.75 513.452 1746.93 514.663 1746.59 515.836Z" fill="#864561"/>
<path d="M1415.96 666.498C1418.34 666.031 1420.63 665.69 1422.99 666.473C1425.45 667.293 1427.86 669.567 1428.76 671.962C1428.85 672.194 1428.92 672.43 1428.98 672.67C1429.05 672.911 1429.1 673.153 1429.13 673.398C1429.17 673.643 1429.2 673.89 1429.21 674.138C1429.22 674.386 1429.21 674.634 1429.2 674.881C1429.19 675.129 1429.16 675.375 1429.12 675.62C1429.08 675.865 1429.03 676.107 1428.96 676.346C1428.89 676.585 1428.82 676.82 1428.73 677.051C1428.64 677.282 1428.53 677.508 1428.42 677.728C1426.84 680.716 1424.2 681.549 1421.21 682.458C1420.98 682.582 1420.77 682.758 1420.52 682.83C1418.52 683.405 1415.81 682.855 1414.16 681.719C1412.22 679.331 1411.55 677.368 1411.49 674.283C1411.42 670.768 1413.67 668.813 1415.96 666.498Z" fill="#C7775A"/>
<path d="M286.631 660.774C285.68 657.285 284.755 654.022 286.559 650.596C287.801 648.239 289.994 646.66 292.54 645.961C295.433 645.167 299.011 645.679 301.534 647.331C303.595 648.681 304.931 650.691 305.296 653.135C305.694 655.804 304.844 658.862 303.556 661.177C301.814 662.291 300.018 663.477 297.984 663.962C293.417 665.052 290.367 663.048 286.631 660.774Z" fill="#864561"/>
<path d="M1280.19 615.498C1282.59 615.115 1285.24 614.577 1287.6 615.414C1290.39 616.408 1293.18 618.888 1294.34 621.624C1295.31 623.927 1295.34 626.712 1294.2 628.96C1292.56 632.186 1290.08 633.366 1286.83 634.502C1285.55 635.072 1284.22 635.043 1282.85 635.01C1280.32 634.949 1278.12 634.354 1276.41 632.367C1274.51 630.162 1274.07 626.935 1274.38 624.118C1274.83 620.003 1277.14 617.935 1280.19 615.498Z" fill="#624D73"/>
<path d="M1631.56 501.5C1635.04 504.666 1634.99 511.45 1636.96 515.552C1639.09 519.996 1646.81 521.844 1651.07 523.411C1647.5 523.959 1642.16 524.615 1639.14 526.602C1634.46 529.688 1634.61 541.403 1633.53 546.737L1631.66 547.51C1631.8 546.878 1631.91 546.247 1631.98 545.602C1632.49 540.849 1631.28 532.638 1628.09 528.991C1622.89 523.033 1613.93 523.637 1606.77 523.305C1612.97 522.523 1619.71 521.321 1625.52 518.983C1625.69 518.819 1625.87 518.659 1626.04 518.489C1629.65 514.886 1631.53 506.442 1631.56 501.5Z" fill="#FEE395"/>
<path d="M1774.63 661.021C1774.75 660.872 1774.88 660.727 1775 660.574C1777.43 657.358 1777.96 653.304 1779.46 649.631C1784.68 636.821 1797.08 630.311 1810.17 628.103C1822.26 626.064 1833.8 628.856 1843.69 636.087C1850.64 641.169 1859.01 649.244 1860.17 658.153C1860.74 662.571 1860.31 668.751 1857.54 672.264C1853.69 670.469 1848.2 671.088 1844 671.055C1844.85 669.526 1845.57 667.693 1845.82 665.963C1846.19 663.476 1845.13 661.752 1843.71 659.834C1844.41 656.017 1842.69 653.029 1840.45 649.858C1839.04 647.857 1837.6 645.959 1835.63 644.475C1832.89 641.955 1827.58 638.952 1823.77 639.049C1817.01 639.222 1811.72 644.117 1807.46 648.9C1803.38 653.479 1801.53 658.995 1797.84 663.596C1791.91 665.214 1780.72 662.072 1774.63 661.021Z" fill="#302446"/>
<path d="M1797.84 663.596C1801.53 658.995 1803.38 653.479 1807.46 648.9C1811.72 644.117 1817.01 639.222 1823.77 639.049C1827.58 638.952 1832.89 641.955 1835.63 644.475C1837.6 645.959 1839.04 647.857 1840.45 649.858C1842.69 653.029 1844.41 656.017 1843.71 659.834C1845.13 661.752 1846.19 663.476 1845.82 665.963C1845.57 667.693 1844.85 669.526 1844 671.055C1848.2 671.088 1853.69 670.469 1857.54 672.264C1857.87 673.025 1858.12 673.737 1858.2 674.569C1858.63 679.286 1854.19 686.243 1851.27 689.699C1843.76 698.597 1831.89 705.458 1820.25 706.321C1809.25 707.137 1796.97 703.806 1788.6 696.462C1777.76 686.955 1775.44 674.646 1774.63 661.021C1780.72 662.072 1791.91 665.214 1797.84 663.596Z" fill="#3C365B"/>
<path d="M1797.98 693.866C1797.54 692.437 1797.09 690.971 1796.88 689.488C1796.44 686.473 1797.02 682.781 1799.08 680.439C1800.78 678.507 1803.15 677.926 1805.62 677.774C1810.35 677.483 1812.36 678.991 1815.75 681.998C1817.28 683.031 1818.8 684.252 1819.62 685.953C1820.52 687.84 1820.83 690.328 1819.82 692.213C1818.31 695.014 1814.8 696.375 1811.87 697.067C1806.32 698.381 1802.69 696.709 1797.98 693.866Z" fill="#624D73"/>
<path d="M1807.84 669.891C1809.53 665.769 1810.5 661.032 1812.92 657.307C1815.23 653.769 1818.41 651.879 1822.53 651.08C1827.2 650.173 1832.27 650.62 1836.19 653.528C1838.62 655.327 1839.4 657.044 1839.81 659.928C1842.1 662.252 1843.28 666.766 1843.17 669.991C1843.07 672.946 1841.29 675.935 1839.11 677.878C1835.3 681.287 1828.86 684.158 1823.66 683.723C1820.97 683.497 1818.34 682.756 1815.75 681.998C1815.77 679.416 1809.46 672.283 1807.84 669.891Z" fill="#F0F4EE"/>
<path d="M242.407 529.903C243.501 532.31 244.053 535.679 243.45 538.301C243.033 540.11 242.209 541.037 240.606 541.878C238.63 542.915 236.481 542.505 234.467 541.819C230.683 540.529 227.904 538.234 226.153 534.638C226.178 533.067 225.88 531.958 226.916 530.697C229.159 527.97 233.382 527.591 236.669 527.337L242.407 529.903Z" fill="#8CE1DC"/>
<path d="M-81 600.014C-62.461 595.922 -46.5792 598.105 -30.5159 608.45C-23.5097 612.962 -16.6252 618.915 -11.5802 625.557C-5.9081 634.403 1.2488 642.643 4.6064 652.754C5.3808 655.086 5.4907 658.553 6.9364 660.528C8.5866 662.781 10.8225 663.504 13.4185 664.179C13.6169 664.231 13.8192 664.266 14.0196 664.31L12.9709 665.458L12.1854 665.417L8.4301 667.68C-1.2895 673.477 -11.4419 677.683 -21.4616 682.814C-24.8189 683.978 -28.0452 685.17 -31.617 685.414C-32.7881 685.494 -33.5274 684.415 -34.394 683.663C-37.0063 691.742 -40.2453 697.219 -45.9904 703.468C-48.1629 704.926 -51.3104 706.512 -53.1045 708.339C-63.4779 711.567 -70.311 712.306 -81 709.407V657.637V645.635V631.795V600.014Z" fill="#302446"/>
<path d="M-35.5103 667.486C-20.5011 666.146 -2.71421 663.491 12.1854 665.417L8.43008 667.68C-1.28952 673.477 -11.4419 677.683 -21.4616 682.814C-24.8189 683.978 -28.0452 685.17 -31.617 685.414C-32.7881 685.494 -33.5274 684.415 -34.394 683.663C-33.9007 677.936 -34.5137 673.092 -35.5103 667.486Z" fill="#624D73"/>
<path d="M1678.76 715.499C1680.76 715.203 1683.06 714.894 1685.06 715.264C1687.39 715.696 1690.06 717.696 1691.25 719.789C1692.29 721.621 1692.37 723.74 1691.42 725.624C1690.14 728.182 1687.72 729.133 1685.21 729.999C1685.03 730.096 1684.87 730.221 1684.69 730.289C1682.75 731.005 1680.59 730.559 1678.7 729.99C1677.19 728.534 1676.35 727.328 1675.95 725.276C1675.16 721.112 1676.51 718.822 1678.76 715.499Z" fill="#C7775A"/>
<path d="M1548.84 703.852C1557.46 700.849 1559.11 697.954 1564.62 691.004C1567.2 692.72 1568.57 697.174 1569.93 700.024C1572.87 701.27 1576.01 701.969 1578.05 704.455C1575.64 707.084 1572.03 707.9 1569.6 710.483C1567.51 712.698 1567.2 716.197 1564.87 717.912C1558.98 711.658 1556.84 707.683 1548.84 703.852Z" fill="#4C486E"/>
<path d="M303.556 661.177C304.256 661.479 304.96 661.735 305.697 661.938C315.337 664.596 340.292 660.997 351.258 660.623L431.217 658.46C501.529 656.616 572.223 655.046 642.535 656.543C814.586 659.624 986.378 668.018 1157.91 681.724C1163.7 682.162 1169.39 684.115 1175.18 684.679C1201.05 687.196 1226.81 690.244 1252.65 693.259C1262.18 694.371 1271.83 694.818 1281.31 696.193C1300 698.905 1318.56 701.119 1337.3 703.408C1346.37 704.516 1355.54 706.351 1364.65 706.863L1365.72 707.997C1381.48 711.326 1397.75 712.9 1413.72 715.012C1442.69 718.653 1471.62 722.673 1500.49 727.072C1526.61 731.239 1552.48 736.372 1578.52 740.954L1765.14 774.805C1780.7 777.736 1796.28 780.926 1811.94 783.265C1817.65 784.117 1826.33 783.625 1831.53 785.29C1838.8 787.62 1847.23 802.622 1858.08 800.215C1859.8 798.252 1859.93 796.83 1859.7 794.186C1859.67 793.821 1859.59 793.437 1859.53 793.08C1862.73 799.805 1864.43 815.006 1862.31 822.058C1846.77 816.651 1800.5 818.83 1785.75 826.07C1784.91 826.483 1784.17 827.126 1783.49 827.753C1783.38 827.854 1783.26 827.952 1783.15 828.051C1787.45 832.116 1791.37 835.249 1796.6 838.072C1793.26 843.713 1787.44 841.953 1783.1 852.373C1782.86 852.939 1782.56 853.369 1782.17 853.836L1780.64 853.837C1780.29 852.538 1779.94 851.241 1779.47 849.982C1775.01 838.081 1767.33 843.538 1759.88 840.096L1762.74 838.73C1759.4 836.522 1754.03 839.229 1750.02 836.319L1748.18 837.596L1746.3 838.102C1743.54 838.877 1740.85 839.743 1737.97 839.903C1737.86 839.521 1737.7 839.154 1737.51 838.805C1735.51 835.132 1722.43 831.463 1718.3 829.609C1702.95 822.731 1687.83 815.276 1672.23 808.994C1650.85 800.389 1628.7 793.569 1606.73 786.662C1584.04 779.526 1561.26 772.286 1538.08 766.867C1520.79 762.829 1503.77 757.878 1486.4 754.057C1458.1 747.829 1429.48 742.924 1401.09 737.07C1382.96 736.202 1364.92 729.393 1346.68 729.069L1345.99 729.896C1331.31 729.526 1309.61 724.77 1294.48 722.659C1257.68 717.524 1220.71 712.548 1183.86 708.106C1175.82 707.137 1167.62 707.427 1159.56 706.538C1057.79 695.145 955.792 686.501 853.556 680.607C843.406 679.992 833.073 680.413 822.873 679.93C798.243 678.763 773.498 676.693 748.869 675.52C736.762 674.944 724.511 675.75 712.382 675.469C660.75 674.27 609.337 671.869 557.643 672.563C531.325 672.916 504.719 672.828 478.445 673.657C471.324 673.882 464.235 675.222 457.137 675.351C449.181 675.496 441.194 674.019 433.237 674.31C409.39 675.182 384.639 677.767 360.798 676.139C358.63 677.9 355.002 677.449 352.307 677.559C266.376 680.666 180.502 684.913 94.683 690.298C76.1137 691.443 57.5743 692.957 39.065 694.841C30.401 695.714 18.2302 698.667 9.77411 697.729C8.19841 697.555 6.74161 697.248 5.38461 696.412L5.19861 695.622L6.9201 694.919C7.6451 690.598 6.495 685.024 8.7373 681.203C11.2913 678.976 14.9765 679.407 18.1797 679.318C46.386 679.036 74.631 674.036 102.701 672.504L240.012 665.167C253.29 664.474 266.797 665.046 280.017 663.992C283.149 663.742 284.662 663.156 286.631 660.774C290.367 663.048 293.417 665.052 297.984 663.962C300.018 663.477 301.814 662.291 303.556 661.177Z" fill="url(#paint0_linear_1_2)"/>
<path d="M1750.02 836.319C1756.3 834.05 1768.38 828.203 1775.09 829.654L1774.19 832.048C1773.62 834.437 1773.34 835.323 1771.07 836.577C1768.79 837.84 1765.33 838.231 1762.74 838.73C1759.4 836.522 1754.03 839.229 1750.02 836.319Z" fill="#5B284A"/>
<path d="M1774.19 832.048C1774.34 831.978 1774.5 831.924 1774.65 831.839C1779.19 829.207 1780.27 821.331 1781.34 816.582L1780.81 817.174L1781.46 817.634C1782.94 820.434 1782.84 824.874 1783.15 828.051C1787.45 832.116 1791.37 835.249 1796.6 838.072C1793.26 843.713 1787.44 841.953 1783.1 852.373C1782.86 852.939 1782.56 853.369 1782.17 853.836L1780.64 853.837C1780.29 852.538 1779.94 851.241 1779.47 849.982C1775.01 838.081 1767.33 843.538 1759.88 840.096L1762.74 838.73C1765.33 838.231 1768.79 837.84 1771.07 836.577C1773.34 835.323 1773.62 834.437 1774.19 832.048Z" fill="#D14B70"/>
<path d="M6.9201 694.919C27.717 691.284 49.809 690.646 70.853 689.041C112.678 685.927 154.529 683.198 196.404 680.854L362.591 673.156C425.745 670.535 488.683 667.872 551.93 668.193C578.391 668.328 604.861 667.618 631.311 667.81C637.67 667.856 646.914 670.511 653.005 668.914C653.672 668.739 654.87 667.711 655.501 667.305L654.927 669.584L655.129 669.646C650.288 672.572 606.357 670.774 598.091 670.763C534.074 670.274 470.079 671.223 406.106 673.609C396.895 673.929 368.421 673.07 361.413 675.868C361.205 675.951 361.003 676.049 360.798 676.139C358.63 677.9 355.002 677.449 352.307 677.559C266.376 680.666 180.502 684.913 94.683 690.298C76.1137 691.443 57.5743 692.957 39.065 694.841C30.401 695.714 18.2302 698.667 9.77411 697.729C8.19841 697.555 6.74161 697.248 5.38461 696.412L5.19861 695.622L6.9201 694.919Z" fill="#2D1A37"/>
<path d="M900.326 682.343C877.107 680.596 853.872 679.116 830.619 677.903C808.256 676.83 785.79 676.369 763.493 674.307C767.101 672.904 771.452 672.513 775.313 672.507C782.726 672.496 790.216 673.886 797.671 674.058C820.891 674.453 844.093 675.327 867.277 676.68C879.518 677.302 892.792 677.041 904.747 679.829C921.59 678.367 941.41 681.359 958.35 682.674C990.62 685.179 1022.8 687.608 1055.01 690.826C1076.38 692.961 1097.87 693.992 1119.23 696.145C1203.95 704.539 1288.34 715.471 1372.41 728.941C1377.65 729.799 1396.96 731.535 1400.33 733.696C1400.47 733.783 1400.58 733.903 1400.7 734.007C1417.42 734.798 1531.49 758.042 1538.63 763.913C1553.75 765.01 1570.78 771.848 1585.22 776.306C1609.97 783.941 1634.78 791.246 1659.1 800.206C1676.71 806.692 1693.75 814.399 1711.11 821.499C1723.09 826.403 1735.66 830.519 1747.36 836L1748.18 837.596L1746.3 838.102C1743.54 838.877 1740.85 839.743 1737.97 839.903C1737.86 839.521 1737.7 839.154 1737.51 838.805C1735.51 835.132 1722.43 831.463 1718.3 829.609C1702.95 822.731 1687.83 815.276 1672.23 808.994C1650.85 800.389 1628.7 793.569 1606.73 786.662C1584.04 779.526 1561.26 772.286 1538.08 766.867C1520.79 762.829 1503.77 757.878 1486.4 754.057C1458.1 747.829 1429.48 742.924 1401.09 737.07C1382.96 736.202 1364.92 729.393 1346.68 729.069C1343.52 726.029 1310.73 722.903 1304.56 722.045C1237.49 712.666 1170.25 704.666 1102.85 698.046C1035.45 691.427 967.942 686.192 900.326 682.343Z" fill="#2D1A37"/>
<path d="M1859.15 740.769L1859.77 739.752C1859.39 736.054 1861.9 728.538 1863.66 725.247L1865.41 725.509C1867.41 728.106 1867.26 729.868 1867.65 733.076L1870.84 735.205C1870.84 735.205 1865.55 823.207 1867.65 822.649C1875.22 820.642 1893.06 734.752 1900.89 734.939C1900.89 734.939 1910.36 733.83 1913.24 734.639C1914.06 734.87 1916.5 737.353 1917.64 737.997C1921.46 736.468 1927.7 733.732 1931.58 735.044L1933.39 738.725L1933.06 738.512L1935.13 738.262C1935.25 737.501 1920.06 784.793 1933.39 787.099C1946.72 789.405 1944.77 737.159 1956.39 736.045C1959.37 735.76 1962.6 734.66 1965.49 735.618C1965.49 735.618 1968.27 801.699 1966.35 806.734C1966.08 807.428 1965.77 808.046 1965.38 808.675C1968.45 813.875 1968.16 854.334 1966.6 861.103C1966.4 861.961 1966.06 862.771 1965.66 863.556C1968.01 868.841 1968.41 922.613 1966.16 928.508C1965.98 928.971 1965.94 929.047 1965.74 929.445C1967.19 933.507 1967.56 937.378 1965.92 941.483C1967.88 947.265 1968.18 1001.57 1965.92 1006.09C1965.67 1006.6 1965.55 1006.74 1965.26 1007.17C1967.59 1011.26 1967.91 1018.13 1966.5 1022.61C1966.22 1023.51 1965.84 1024.27 1965.31 1025.03C1968.33 1030.2 1968.15 1046.32 1966.59 1052.3C1966.34 1053.28 1965.86 1054.2 1965.34 1055.07C1968.49 1060.41 1968.24 1083.87 1966.67 1090.75C1966.45 1091.71 1965.96 1092.63 1965.5 1093.5C1965.41 1093.67 1965.33 1093.83 1965.25 1094H1912.5H1603.59C1605.88 1088.28 1603.53 1075.4 1603.62 1068.81C1603.82 1054.78 1605.69 1041 1607.73 1027.14L1608.58 1026.31C1610.38 1018.21 1616.21 1007.25 1615.97 999.27C1618.67 996.372 1633.04 967.728 1633.59 963.254C1635.36 961.279 1635.54 961.017 1635.89 958.399C1636.12 958.309 1636.35 958.23 1636.57 958.129C1639.59 956.734 1655.7 934.973 1657.01 931.337C1660.41 929.107 1663.69 925.548 1665.91 922.148C1672.98 918.161 1685 906.009 1692.97 900.327C1698.51 896.381 1707.68 892.513 1711.77 887.35C1713.39 884.625 1713.18 884.528 1712.54 881.384C1713.75 880.549 1714.83 879.657 1715.69 878.449C1718.14 875.006 1719.51 870.625 1718.63 866.423C1717.95 863.166 1716.3 861.465 1713.64 859.669C1713.13 856.513 1710.08 857.893 1708.73 855.151C1717.53 848.682 1728.64 846.819 1737.48 840.802C1737.65 840.689 1737.81 840.571 1737.97 840.455C1740.85 840.295 1743.54 839.431 1746.3 838.658L1748.18 838.153L1750.02 836.879C1754.03 839.782 1759.4 837.081 1762.74 839.285L1759.88 840.648C1767.33 844.082 1775.01 838.637 1779.47 850.512C1779.94 851.768 1780.29 853.063 1780.64 854.359L1782.17 854.358C1782.56 853.892 1782.86 853.463 1783.1 852.898C1787.44 842.501 1793.26 844.257 1796.6 838.628C1791.37 835.811 1787.45 832.685 1783.15 828.629C1783.26 828.53 1783.38 828.432 1783.49 828.331C1784.17 827.706 1784.91 827.064 1785.75 826.652C1800.5 819.428 1846.77 817.254 1862.31 822.649C1864.43 815.612 1862.73 800.444 1859.53 793.734C1859.67 793.347 1859.76 793.151 1859.87 792.713C1860.49 790.3 1860.87 789.317 1859.66 787.099C1851.43 782.778 1856.27 813.286 1846.92 812.29L1842.88 781.532C1846.51 781.664 1850.53 781.423 1854.14 780.989C1856.83 780.665 1858.78 779.94 1860.51 777.757C1861.23 774.884 1866.58 793.81 1865.41 791.262C1866.26 789.646 1860.89 767.623 1861.22 765.824C1862.29 760.054 1864.45 746.643 1861.26 741.931L1859.15 740.769Z" fill="#BE7588"/>
<path d="M1718.6 1012.06C1724.14 1006.71 1726.05 999.66 1733.14 995.052C1736.79 992.678 1742.3 991.109 1746.62 992.24C1748.79 992.806 1750.41 994.044 1751.51 996C1753.5 999.549 1753.04 1003.21 1752.04 1006.97C1751.08 1012.16 1747.61 1016.65 1743.56 1019.91C1741.54 1023.46 1737.44 1026.24 1733.52 1027.28C1730.15 1028.18 1725.01 1028.45 1721.94 1026.58C1720.61 1025.78 1719.37 1024.84 1718.15 1023.89C1719.35 1020.21 1719.41 1015.83 1718.6 1012.06Z" fill="#F0F4EE"/>
<path d="M1752.04 1006.97C1762.19 1004.11 1834.57 1005.64 1844.12 1008.92C1845.08 1011.86 1842.97 1016.15 1841.6 1018.93C1840.62 1020.92 1839.51 1022.51 1837.73 1023.88C1828.5 1025.5 1816.82 1024.23 1807.35 1024.26C1786.04 1024.5 1764.72 1024.6 1743.41 1024.59C1743.7 1023.08 1743.76 1021.92 1743.61 1020.38L1743.56 1019.91C1747.61 1016.65 1751.08 1012.16 1752.04 1006.97Z" fill="#CE8B9F"/>
<path d="M1664.82 961.079C1664.98 961.002 1665.14 960.929 1665.3 960.846C1673.83 956.335 1682.21 941.656 1693.98 944.737C1697.92 945.768 1701.22 948.912 1703.17 952.419C1705.02 955.741 1705.36 959.086 1704.33 962.715C1704.2 963.138 1704.07 963.557 1703.93 963.973C1705.49 969.958 1701.53 977.844 1698.51 983.024C1693.76 991.164 1685.15 1001.83 1675.81 1004.31C1687.46 1007.15 1708.1 1001.38 1717.27 1006.2C1718.43 1008.23 1718.51 1009.75 1718.6 1012.06C1719.41 1015.83 1719.35 1020.21 1718.15 1023.89C1709.35 1029.07 1620.98 1019.64 1608.58 1026.16C1610.38 1018.05 1616.21 1007.06 1615.97 999.064C1618.67 996.159 1633.04 967.453 1633.59 962.969C1637.78 964.341 1642.82 964.173 1647.2 964.236C1652.69 964.315 1660.73 965.061 1664.82 961.079Z" fill="#CE8B9F"/>
<path d="M1633.59 962.969C1637.78 964.341 1642.82 964.173 1647.2 964.236C1652.69 964.315 1660.73 965.061 1664.82 961.079C1665.49 966.27 1659.92 973.318 1658.4 978.445C1656.6 984.556 1658.89 991.547 1657.24 997.889C1660.09 1000.3 1662.27 1003.28 1664.56 1006.21L1663.64 1007.2C1649.33 1005.33 1634.63 1007.96 1620.39 1005.98C1615.6 1005.31 1618.33 1002.27 1615.97 999.064C1618.67 996.159 1633.04 967.453 1633.59 962.969Z" fill="#BE7588"/>
<path d="M1664.82 961.079C1664.98 961.002 1665.14 960.929 1665.3 960.846C1673.83 956.335 1682.21 941.656 1693.98 944.737C1697.92 945.768 1701.22 948.912 1703.17 952.419C1705.02 955.741 1705.36 959.086 1704.33 962.715C1704.2 963.138 1704.07 963.557 1703.93 963.973C1705.49 969.958 1701.53 977.844 1698.51 983.024C1693.76 991.164 1685.15 1001.83 1675.81 1004.31C1672.51 1006.66 1668.44 1006.58 1664.56 1006.21C1662.27 1003.28 1660.09 1000.3 1657.24 997.889C1658.89 991.547 1656.6 984.556 1658.4 978.445C1659.92 973.318 1665.49 966.27 1664.82 961.079Z" fill="#F0F4EE"/>
<path d="M1955.63 916.136C1959.95 918.855 1963.47 924.604 1965.74 929.087C1967.19 933.158 1967.56 937.037 1965.92 941.151C1964.25 944.094 1937.01 956.199 1932.06 957.553C1922.44 960.18 1792.51 963.908 1786.86 962.116L1788.29 962.132L1786.02 961.397L1786.23 960.927C1786.07 961.132 1785.91 961.342 1785.74 961.543C1781.31 966.839 1770.25 971.596 1763.6 972.136C1758.56 972.545 1753.94 971.487 1750.09 968.039C1745.41 963.839 1745.72 958.833 1745.51 953.051C1745.44 953.181 1745.37 953.307 1745.3 953.439C1744.02 956.01 1745.4 962.226 1742.99 962.781C1730.81 965.581 1716.14 960.852 1703.93 963.973C1704.07 963.557 1704.2 963.138 1704.33 962.715C1705.36 959.086 1705.02 955.741 1703.17 952.419C1701.22 948.912 1697.92 945.768 1693.98 944.737C1682.21 941.656 1673.83 956.335 1665.3 960.846C1665.14 960.929 1664.98 961.002 1664.82 961.079C1660.73 965.061 1652.69 964.315 1647.2 964.236C1642.82 964.173 1637.78 964.341 1633.59 962.969C1635.36 960.99 1635.54 960.727 1635.89 958.104C1636.12 958.014 1636.35 957.934 1636.57 957.833C1639.59 956.435 1655.7 934.627 1657.01 930.983C1660.41 928.748 1663.69 925.181 1665.91 921.774C1738.83 921.727 1811.75 921.023 1884.66 919.664C1896.58 919.53 1947.63 920.785 1955.17 918.474L1955.63 916.136Z" fill="#CE8B9F"/>
<path d="M1745.51 953.051C1752.88 940.835 1760.97 929.863 1775.6 926.207C1781.07 924.842 1787.52 924.725 1792.5 927.709C1792.87 927.933 1793.24 928.175 1793.59 928.436C1793.94 928.697 1794.27 928.975 1794.59 929.271C1794.91 929.566 1795.22 929.877 1795.51 930.204C1795.8 930.531 1796.07 930.872 1796.32 931.227C1796.57 931.582 1796.81 931.948 1797.03 932.327C1797.24 932.706 1797.44 933.095 1797.62 933.494C1797.79 933.893 1797.95 934.3 1798.08 934.715C1798.21 935.13 1798.33 935.551 1798.42 935.978C1799.67 941.644 1797.42 947.194 1794.35 951.865C1792.19 955.164 1789.43 958.566 1786.23 960.927C1786.07 961.132 1785.91 961.342 1785.74 961.543C1781.31 966.839 1770.25 971.596 1763.6 972.136C1758.56 972.545 1753.94 971.487 1750.09 968.039C1745.41 963.839 1745.72 958.833 1745.51 953.051Z" fill="#F0F4EE"/>
<path d="M1840.83 1024.05C1840.95 1023.97 1841.07 1023.9 1841.2 1023.83C1845.63 1021 1846.8 1010.32 1847.99 1005.26C1848.4 1007.62 1848.36 1009.56 1848.05 1011.94L1850.97 1010.36C1851.38 1008.76 1851.8 1007.79 1852.81 1006.48C1872.34 1004.91 1892.85 1006.36 1912.44 1006.88C1930.03 1007.34 1947.66 1007.07 1965.26 1006.98C1967.59 1011.08 1967.91 1017.96 1966.5 1022.46C1966.22 1023.36 1965.84 1024.11 1965.31 1024.88C1968.33 1030.06 1968.15 1046.22 1966.59 1052.21C1966.34 1053.19 1965.86 1054.12 1965.34 1054.99C1968.49 1060.33 1968.24 1083.85 1966.67 1090.74C1966.45 1091.71 1965.96 1092.63 1965.5 1093.5C1965.41 1093.67 1965.33 1093.83 1965.25 1094H1912.5H1603.59C1605.88 1088.27 1603.53 1075.36 1603.62 1068.76C1603.82 1054.69 1605.69 1040.89 1607.73 1027L1608.58 1026.16C1620.98 1019.64 1709.35 1029.07 1718.15 1023.89C1719.37 1024.84 1720.61 1025.78 1721.94 1026.58C1725.01 1028.45 1730.15 1028.18 1733.52 1027.28C1737.44 1026.24 1741.54 1023.46 1743.56 1019.91L1743.61 1020.38C1743.76 1021.92 1743.7 1023.08 1743.41 1024.59C1764.72 1024.6 1786.04 1024.5 1807.35 1024.26C1816.82 1024.23 1828.5 1025.5 1837.73 1023.88L1840.83 1024.05Z" fill="#BE7588"/>
<path d="M1840.83 1024.05C1840.95 1023.97 1841.07 1023.9 1841.2 1023.83C1845.63 1021 1846.8 1010.32 1847.99 1005.26C1848.4 1007.62 1848.36 1009.56 1848.05 1011.94C1849.94 1015.44 1850.8 1019.34 1851.81 1023.16C1857.78 1029.68 1863.1 1031.97 1871.25 1034.8C1864.33 1036.72 1857.73 1039.39 1853.97 1045.91C1850.23 1052.39 1850.6 1059.86 1847.72 1066.44C1849.16 1062.41 1847.76 1054.61 1845.94 1050.83C1842.69 1044.07 1835.85 1038.93 1828.8 1036.69C1825.98 1035.79 1823.02 1035.52 1820.08 1035.28C1826.18 1034.05 1836.19 1032.58 1840.13 1027.35C1841.1 1026.07 1840.97 1025.61 1840.83 1024.05Z" fill="url(#paint1_linear_1_2)"/>
<path d="M1912.5 1094C1916.23 1090.49 1919.26 1085.8 1922.58 1081.86C1934.61 1067.58 1946.68 1058.44 1965.34 1054.99C1968.49 1060.33 1968.24 1083.85 1966.67 1090.74C1966.45 1091.71 1965.96 1092.63 1965.5 1093.5C1965.41 1093.67 1965.33 1093.83 1965.25 1094H1912.5Z" fill="#864561"/>
<path d="M1848.05 1011.94L1850.97 1010.36C1851.38 1008.76 1851.8 1007.79 1852.81 1006.48C1872.34 1004.91 1892.85 1006.36 1912.44 1006.88C1930.03 1007.34 1947.66 1007.07 1965.26 1006.98C1967.59 1011.08 1967.91 1017.96 1966.5 1022.46C1966.22 1023.35 1965.84 1024.11 1965.31 1024.88C1944.31 1022.11 1862.78 1028.15 1851.81 1023.16C1850.8 1019.34 1849.94 1015.43 1848.05 1011.94Z" fill="#CE8B9F"/>
<path d="M1813.9 872.499C1816.26 872.001 1818.8 871.337 1821.16 872.154C1823.78 873.064 1826.53 875.615 1827.57 878.252C1828.5 880.629 1828.48 883.241 1827.34 885.55C1826.07 888.129 1823.75 888.993 1821.25 889.958C1820.61 890.063 1819.97 890.156 1819.32 890.196C1816.47 890.375 1814.01 889.629 1811.97 887.558C1810.05 885.611 1809.51 883.172 1809.52 880.536C1809.55 876.731 1811.39 875.005 1813.9 872.499Z" fill="#CE8B9F"/>
<path d="M1750.02 836.319C1754.03 839.229 1759.4 836.522 1762.74 838.73L1759.88 840.096C1767.33 843.538 1775.01 838.081 1779.47 849.982C1779.94 851.241 1780.29 852.538 1780.64 853.837L1779.65 856.839L1780.39 860.548C1765.53 862.809 1748.35 868.487 1734.91 875.312C1727.87 878.892 1719.31 885.009 1711.77 886.9C1713.39 884.169 1713.18 884.072 1712.54 880.921C1713.75 880.084 1714.83 879.19 1715.69 877.98C1718.14 874.529 1719.51 870.139 1718.63 865.928C1717.95 862.663 1716.3 860.959 1713.64 859.159C1713.13 855.996 1710.08 857.379 1708.73 854.631C1717.53 848.148 1728.64 846.281 1737.48 840.251C1737.65 840.138 1737.81 840.019 1737.97 839.903C1740.85 839.743 1743.54 838.877 1746.3 838.102L1748.18 837.596L1750.02 836.319Z" fill="#3C365B"/>
<path d="M1783.15 828.051C1783.26 827.952 1783.38 827.854 1783.49 827.753C1784.17 827.126 1784.91 826.483 1785.75 826.07C1800.5 818.83 1846.77 816.651 1862.31 822.058C1862.42 822.206 1862.53 822.349 1862.62 822.501C1864.91 826.065 1864.39 831.75 1864.33 835.868L1863.59 835.768C1864.21 834.602 1865.09 834.342 1865.58 833.564C1865.7 833.38 1864.9 824.138 1864.67 823.1C1866.26 826.218 1867.01 828.977 1865.85 832.45C1865.77 832.689 1865.68 832.921 1865.59 833.157C1866.88 830.285 1866.71 827.131 1868.11 824.073C1871.66 822.712 1876.08 824.413 1879.81 825.161C1903.13 828.132 1948.41 847.438 1965.66 863.054C1968.01 868.351 1968.41 922.24 1966.16 928.148C1965.98 928.612 1965.94 928.688 1965.74 929.087C1963.47 924.604 1959.95 918.855 1955.63 916.136C1955.61 915.837 1955.61 915.537 1955.57 915.24C1954.97 910.085 1933.84 892.708 1929.22 889.322C1887.1 858.445 1834.85 852.093 1784.33 859.876C1782.24 858.129 1782.55 856.448 1782.17 853.836C1782.56 853.369 1782.86 852.939 1783.1 852.373C1787.44 841.953 1793.26 843.713 1796.6 838.072C1791.37 835.249 1787.45 832.116 1783.15 828.051Z" fill="#3C365B"/>
<path d="M1865.59 833.157C1866.88 830.285 1866.71 827.131 1868.11 824.073C1871.66 822.712 1876.08 824.413 1879.81 825.161L1878.95 827.017C1877.42 827.465 1870.38 829.075 1869.75 830.269C1868.48 832.696 1868.21 835.387 1867.8 838.059C1867.08 836.432 1866.44 834.714 1865.59 833.157Z" fill="#5B284A"/>
<path d="M1865.49 785.067L1884.62 784.831C1899.35 785.201 1948.46 802.062 1965.38 808.054C1968.45 813.265 1968.16 853.812 1966.6 860.596C1966.4 861.456 1966.06 862.268 1965.66 863.054C1948.41 847.438 1903.13 828.132 1879.81 825.161C1876.08 824.413 1871.66 822.712 1868.11 824.073C1866.71 827.131 1866.88 830.285 1865.59 833.157C1865.68 832.921 1865.77 832.689 1865.85 832.45C1867.01 828.977 1866.26 826.218 1864.67 823.1C1864.84 822.658 1865.13 821.982 1865.26 821.492C1867.15 814.524 1869.08 790.788 1865.49 785.067Z" fill="#482446"/>
<path d="M-21.4616 682.814C-11.4419 677.683 -1.2895 673.477 8.4301 667.68L8.1424 670.132C8.2292 670.279 8.3209 670.423 8.4029 670.572C9.7374 673.004 9.075 678.368 11.3452 678.955C13.4281 679.493 16.0231 679.291 18.1797 679.318C14.9765 679.407 11.2913 678.976 8.7373 681.203C6.495 685.024 7.6451 690.598 6.9201 694.919L5.1986 695.622L5.3846 696.412C6.7416 697.248 8.1984 697.555 9.7741 697.729C18.2302 698.667 30.401 695.714 39.065 694.841C57.5743 692.957 76.1137 691.443 94.683 690.298C180.502 684.913 266.376 680.666 352.307 677.559C355.002 677.449 358.63 677.9 360.798 676.139C384.639 677.767 409.39 675.182 433.237 674.31C441.194 674.019 449.181 675.496 457.137 675.351C464.235 675.222 471.324 673.882 478.445 673.657C504.719 672.828 531.325 672.916 557.643 672.563C609.337 671.869 660.75 674.27 712.382 675.469C724.511 675.75 736.762 674.944 748.869 675.52C773.498 676.693 798.243 678.763 822.873 679.93C833.073 680.413 843.406 679.992 853.556 680.607C955.792 686.501 1057.79 695.145 1159.56 706.538C1167.62 707.427 1175.82 707.137 1183.86 708.106C1220.71 712.548 1257.68 717.524 1294.48 722.659C1309.61 724.77 1331.31 729.526 1345.99 729.896L1346.68 729.069C1364.92 729.393 1382.96 736.202 1401.09 737.07C1429.48 742.924 1458.1 747.829 1486.4 754.057C1503.77 757.878 1520.79 762.829 1538.08 766.867C1561.26 772.286 1584.04 779.526 1606.73 786.662C1628.7 793.569 1650.85 800.389 1672.23 808.994C1687.83 815.276 1702.95 822.731 1718.3 829.609C1722.43 831.463 1735.51 835.132 1737.51 838.805C1737.7 839.154 1737.86 839.521 1737.97 839.903C1737.81 840.019 1737.65 840.138 1737.48 840.251C1728.64 846.281 1717.53 848.148 1708.73 854.631C1710.08 857.379 1713.13 855.996 1713.64 859.159C1716.3 860.959 1717.95 862.663 1718.63 865.928C1719.51 870.139 1718.14 874.529 1715.69 877.98C1714.83 879.19 1713.75 880.084 1712.54 880.921C1713.18 884.072 1713.39 884.169 1711.77 886.9C1707.68 892.074 1698.51 895.951 1692.97 899.905C1685 905.6 1672.98 917.778 1665.91 921.774C1663.69 925.181 1660.41 928.748 1657.01 930.983C1655.7 934.627 1639.59 956.435 1636.57 957.833C1636.35 957.934 1636.12 958.014 1635.89 958.104C1635.54 960.727 1635.36 960.99 1633.59 962.969C1633.04 967.453 1618.67 996.159 1615.97 999.064C1616.21 1007.06 1610.38 1018.05 1608.58 1026.16L1607.73 1027C1605.69 1040.89 1603.82 1054.69 1603.62 1068.76C1603.53 1075.36 1605.88 1088.27 1603.59 1094H1576.64H1557.63H1292.53H1235.56H1132.19H1100.3H854.793H802.586H609.05H582.696H542.402H487.785H452.436H396.448H342.331H51.46H-6.4055H-81V1021.92V1008.76V982.182V964.662V956.332V926.108V894.983V855.709V850.136V765.607V759.882V709.407C-70.311 712.306 -63.4779 711.567 -53.1045 708.339C-51.3104 706.512 -48.1629 704.926 -45.9904 703.468C-40.2453 697.219 -37.0063 691.742 -34.394 683.663C-33.5274 684.415 -32.7881 685.494 -31.617 685.414C-28.0452 685.17 -24.8189 683.978 -21.4616 682.814Z" fill="#482446"/>
<path d="M1117.47 743.497C1120.26 743.151 1122.75 742.632 1125.37 743.964C1127.28 745.995 1127.76 746.132 1127.94 748.864C1126.22 751.547 1125.37 752.051 1122.66 753.503L1118.89 753.638C1116.55 752.168 1116.4 751.817 1115.26 749.268C1115.63 746.546 1115.62 745.65 1117.47 743.497Z" fill="#5B284A"/>
<path d="M1651.71 851.499C1653.7 851.097 1656.06 850.671 1658.08 851.026C1660.43 851.439 1663.18 853.423 1664.36 855.489C1665.51 857.52 1665.74 859.784 1664.78 861.938C1663.61 864.584 1661.2 865.592 1658.69 866.501C1656.12 867.341 1653.91 866.784 1651.51 865.762C1649.77 864.244 1649.14 862.936 1648.75 860.723C1648.04 856.735 1649.5 854.593 1651.71 851.499Z" fill="#FEE395"/>
<path d="M468.926 706.113C472.427 705.895 476.638 705.634 479.319 708.349C480.969 710.022 481.454 711.546 481.53 713.816C481.654 717.499 479.149 720.274 476.783 722.768C473.633 723.033 469.914 722.715 467.478 720.439C465.573 718.658 464.935 716.639 464.808 714.095C464.641 710.742 466.858 708.432 468.926 706.113Z" fill="#FEE395"/>
<path d="M769.711 853.933C772.855 853.652 776.55 853.906 778.996 856.153C780.85 857.856 781.674 859.928 781.599 862.429C781.5 865.7 779.131 867.839 776.977 869.975C775.83 870.101 774.684 870.213 773.529 870.223C770.969 870.244 767.585 869.07 765.888 866.995C764.274 865.022 763.777 863.109 764.132 860.584C764.579 857.405 767.316 855.663 769.711 853.933Z" fill="#8CE1DC"/>
<path d="M497.697 787.169C499.114 787.12 500.602 787.056 502.008 787.277C504.537 787.675 506.953 789.264 508.317 791.426C509.375 793.103 509.514 795.12 509.054 797.017C508.124 800.85 505.731 802.304 502.581 804.187C501.388 804.215 500.166 804.236 498.983 804.056C496.458 803.672 494.135 802.132 492.75 799.989C491.593 798.2 491.311 795.974 491.789 793.921C492.628 790.316 494.757 788.951 497.697 787.169Z" fill="#D14B70"/>
<path d="M1322.85 827.201C1330.04 827.449 1337.76 829.281 1344.82 828.889C1356.12 830.017 1367.52 830.906 1378.75 832.5C1369.7 833.591 1359.81 835.296 1350.69 834.817C1344.53 831.892 1333.31 835.532 1326.41 834.106C1323.88 833.583 1323.15 833.28 1321.79 831.099L1322.85 827.201Z" fill="#FEE395"/>
<path d="M1562.08 815.498C1562.7 815.896 1563.29 816.246 1563.75 816.847C1565.34 818.935 1565.22 821.418 1565.08 823.875C1569.21 825.555 1573.25 827.226 1577.18 829.361C1573.59 833.618 1567.62 833.577 1565.25 840.066C1564.69 841.593 1564.19 842.69 1563.27 844.045C1563.17 844.199 1563.06 844.35 1562.95 844.502C1563.34 843.017 1562.61 840.925 1562.03 839.505C1559.75 833.908 1554.13 831.315 1548.94 829.019C1552.37 827.619 1556.46 826.5 1559.19 823.878C1561.64 821.519 1562.08 818.747 1562.08 815.498Z" fill="#EF7463"/>
<path d="M1463.6 831.5C1466.99 834.539 1466.17 841.183 1468.42 845.207C1470.59 849.079 1476.09 849.969 1480.03 851.312C1477.68 851.958 1474.8 852.56 1472.72 853.85C1468.01 856.768 1466.69 863.884 1465.35 868.814L1463.97 867.505C1464.45 864.633 1463.7 861.063 1462.05 858.639C1457.93 852.591 1448.17 851.847 1441.57 850.703C1447.51 850.285 1456.24 850.162 1460.63 845.56C1464.11 841.91 1463.8 836.191 1463.6 831.5Z" fill="#EF7463"/>
<path d="M173.669 822.345C175.546 818.433 176.971 815.198 181.287 813.585C183.669 812.695 186.417 812.414 188.802 813.459C191.048 814.444 192.96 816.67 193.779 818.967C194.588 821.237 194.072 823.911 193.75 826.241C192.752 828.184 190.478 830.533 188.586 831.528C186.876 832.428 185.056 832.616 183.209 832.061C178.003 830.496 176.076 826.854 173.669 822.345Z" fill="#EF7463"/>
<path d="M331.511 867.978L377.779 868.011C377.78 872.842 377.463 877.897 378.559 882.625C371.493 882.07 341.769 870.974 331.511 867.978Z" fill="#864561"/>
<path d="M845.572 881.098C861.656 880.541 921.36 881.673 933.68 885.24L934.03 886.206C928.09 888.274 861.078 890.243 850.544 890.01C867.67 885.138 885.802 888.113 903.146 885.128C887.076 881.817 860.118 885.613 846.294 881.333C846.052 881.258 845.812 881.176 845.572 881.098Z" fill="#5B284A"/>
<path d="M946.52 868.38C950.28 867.693 954.58 867.134 958.13 868.873C961.59 870.562 964.71 873.974 965.75 877.712C965.843 878.048 965.92 878.388 965.98 878.731C966.04 879.075 966.083 879.421 966.11 879.769C966.137 880.117 966.147 880.465 966.14 880.814C966.133 881.163 966.107 881.51 966.06 881.857C966.013 882.203 965.953 882.546 965.88 882.886C965.8 883.226 965.703 883.561 965.59 883.892C965.483 884.223 965.357 884.547 965.21 884.865C965.063 885.182 964.903 885.492 964.73 885.794C962.66 889.4 960.02 890.928 956.13 892.048C955.54 892.323 955.12 892.526 954.46 892.595C951.38 892.919 946.89 892.463 944.51 890.331C941.42 887.552 940.8 882.853 940.87 878.915C940.93 874.53 943.47 871.28 946.52 868.38Z" fill="#EF7463"/>
<path d="M1121.52 911.73C1122.2 911.074 1122.68 910.581 1123.16 909.768C1125.44 905.935 1128.42 896.475 1127.28 892.084C1130.74 896.554 1131.58 902.355 1133.75 907.426C1135.98 912.636 1145.76 914.271 1150.67 916.358L1151.28 916.62C1146.95 919.61 1140.62 920.836 1135.61 922.396C1135.5 926.497 1133.6 930.583 1131.65 934.105C1132.11 939.199 1130.34 942.369 1127.31 946.269C1128.15 942.38 1128.61 939.871 1126.25 936.33C1125.96 935.896 1125.64 935.476 1125.33 935.057C1125.35 934.744 1125.38 934.432 1125.38 934.119C1125.47 929.791 1124.05 925.384 1121.11 922.186C1116.05 918.949 1109.91 917.906 1104.08 916.979C1109.89 915.912 1116.37 914.731 1121.52 911.73Z" fill="#FEE395"/>
<path d="M1693.79 868.929C1697.94 866.485 1700.78 861.971 1705.12 859.566C1708.17 857.882 1710.49 858.237 1713.64 859.159C1716.3 860.959 1717.95 862.663 1718.63 865.928C1719.51 870.139 1718.14 874.529 1715.69 877.98C1714.83 879.19 1713.75 880.084 1712.54 880.921C1712.17 881.623 1711.92 882.077 1711.37 882.653C1708.14 886.069 1698.51 890.092 1693.84 890.042C1691.77 890.019 1691.17 889.272 1689.9 887.882C1687.74 880.641 1691.63 875.764 1693.65 869.388C1693.7 869.236 1693.75 869.082 1693.79 868.929Z" fill="#D14B70"/>
<path d="M1296.29 837.16C1299.98 836.675 1301.08 838.376 1304.05 840.488L1304.41 841.517C1307.2 849.025 1308.35 859.593 1304.97 867.161C1304.64 867.895 1304.27 868.282 1303.73 868.861C1304.67 865.345 1303.9 863.266 1302.51 860.08C1304.53 855.088 1303.18 846.572 1301.54 841.612C1298.34 845.023 1283.1 857.613 1279.38 857.878C1284.16 854.343 1295 842.755 1296.29 837.16Z" fill="#F0F4EE"/>
<path d="M1389.73 927.237C1385.77 920.348 1384.92 915.536 1387.01 907.672C1387.81 904.693 1389.7 901.87 1392.48 900.425C1396.33 898.427 1401.26 898.968 1405.17 900.454C1410.31 902.403 1414.49 906.188 1416.65 911.267C1416.8 911.607 1416.92 911.953 1417.03 912.306C1417.14 912.658 1417.24 913.015 1417.31 913.377C1417.39 913.739 1417.45 914.104 1417.49 914.471C1417.53 914.838 1417.55 915.207 1417.55 915.576C1417.56 915.945 1417.54 916.314 1417.51 916.682C1417.48 917.051 1417.43 917.417 1417.36 917.78C1417.29 918.143 1417.21 918.502 1417.1 918.857C1417 919.212 1416.88 919.56 1416.74 919.903C1415.07 923.989 1411.68 927.473 1407.59 929.084C1407.24 929.425 1407.13 929.577 1406.63 929.806C1400.71 932.529 1395.18 929.558 1389.73 927.237Z" fill="#8CE1DC"/>
<path d="M377.693 770.183C378.145 762.397 378.521 754.608 379.536 746.871C382.369 765.526 383.676 786.612 382.86 805.488C388.463 799.992 393.991 794.886 400.354 790.278C399.357 793.688 387.698 804.931 384.55 808.084C405.46 807.074 425.689 808.872 446.518 809.624C440.073 811.148 432.895 811.003 426.291 811.154C412.903 811.789 399.415 812.957 386.026 813.148C390.606 819.164 395.567 824.717 400.681 830.282L400.389 831.054C394.317 826.959 388.766 821.662 383.184 816.908C382.994 824.73 381.194 834.964 382.263 842.549C381.566 850.964 380.814 859.312 381.05 867.767L381.11 872.214L379.081 874.53C379.452 855.202 377 834.579 376.426 815.045C369.114 820.653 362.331 827.375 355.437 833.511C360.492 826.042 366.953 819.212 372.858 812.394C356.39 812.495 336.763 813.555 320.703 810.22C322.207 808.858 325.659 809.02 327.716 808.779C343.105 808.776 358.453 807.934 373.87 808.025C368.5 802.969 363.429 797.62 358.318 792.305C362.39 792.419 372.755 803.12 375.892 806.062L377.693 770.183Z" fill="#F0F4EE"/>
<path d="M1628.08 921.941C1639.69 922.229 1652.31 923.096 1663.8 921.396C1662.02 924.561 1657.81 927.778 1657.01 930.983C1655.7 934.627 1639.59 956.435 1636.57 957.833C1636.35 957.934 1636.12 958.014 1635.89 958.104C1634.46 960.408 1633.33 962.633 1630.91 964.037C1620.21 964.513 1609.47 965.189 1598.76 964.677C1603.78 955.731 1618.82 937.296 1620.99 929.966C1623.98 927.516 1625.99 925.194 1628.08 921.941Z" fill="#864561"/>
<path d="M1306.04 758.499C1309.82 762.822 1311.84 801.152 1311.56 809.001C1311.52 810.05 1311.23 811.051 1310.88 812.033C1312.75 815.074 1313 817.555 1313.23 821.064C1319.42 817.041 1330.36 811.702 1334.15 805.443C1333.54 813.301 1318.79 818.553 1319.87 826.222L1322.85 827.201L1321.79 831.099C1323.15 833.28 1323.88 833.583 1326.41 834.106C1333.31 835.532 1344.53 831.892 1350.69 834.817C1346.25 835.3 1341.77 835.961 1337.32 836.177C1330.47 836.493 1323.73 836.705 1316.88 836.407C1321.93 839.813 1332.73 850.409 1333.98 856.383C1330.99 850.866 1317.75 842.213 1311.65 840.154C1313.28 845.207 1314.03 852.414 1311.64 857.385C1311.52 857.642 1311.38 857.891 1311.25 858.143C1313.18 866.34 1311.09 900.906 1307.51 908.425C1309.1 903.962 1305.85 873.97 1303.73 868.861C1304.27 868.282 1304.64 867.895 1304.97 867.161C1308.35 859.593 1307.2 849.025 1304.41 841.517L1304.05 840.488C1301.08 838.376 1299.98 836.675 1296.29 837.16C1291.2 834.116 1275.8 834.229 1269.64 834.132C1261.66 833.183 1253.22 833.753 1245.48 831.566C1254.25 830.84 1263.05 830.239 1271.74 828.889C1279.64 828.823 1289.29 828.145 1296.79 825.757C1295.65 821.817 1279.89 808 1276.05 804.149C1281.97 806.844 1295.37 817.476 1300.76 822.343C1300.9 822.19 1301.06 822.055 1301.18 821.883C1303.62 818.356 1304.1 801.367 1303.09 797.157C1305.74 786.521 1307.44 769.345 1306.04 758.499Z" fill="#F0F4EE"/>
<path d="M386.026 813.148C399.415 812.957 412.903 811.789 426.291 811.154L426.751 812.684C431.219 812.546 440.207 811.296 444.034 813.093C443.713 816.231 441.999 818.434 441.144 821.373C440.43 823.828 440.503 826.402 439.664 828.871C436.54 838.061 428.804 846.898 421.337 853.003C409.56 862.632 398.137 866.182 383.02 865.589C383.041 858.633 384.154 849.195 382.263 842.549C381.194 834.964 382.994 824.73 383.184 816.908C388.766 821.662 394.317 826.959 400.389 831.054L400.681 830.282C395.567 824.717 390.606 819.164 386.026 813.148Z" fill="#5B284A"/>
<path d="M-21.4616 682.814C-11.4419 677.683 -1.28949 673.477 8.43011 667.68L8.14242 670.132C8.22922 670.279 8.32092 670.423 8.40292 670.572C9.73742 673.004 9.07501 678.368 11.3452 678.955C13.4281 679.493 16.0231 679.291 18.1797 679.318C14.9765 679.407 11.2913 678.976 8.73731 681.203C6.49501 685.024 7.64511 690.598 6.92011 694.919L5.19862 695.622L5.38461 696.412C2.20321 697.766 -0.238785 698.581 -3.71178 698.652C-3.93608 705.232 -21.3976 726.968 -26.6598 731.924C-29.2741 734.387 -34.441 739.079 -38.2683 739.074C-38.555 739.074 -38.8408 739.041 -39.127 739.025C-40.1228 739.238 -41.1243 739.418 -42.1315 739.567C-47.154 740.32 -51.3642 739.956 -55.5117 736.731C-57.9359 734.846 -59.495 732.201 -59.8538 729.133C-60.5172 723.458 -58.3578 719.728 -54.9744 715.391L-56.6361 712.902C-55.9915 710.915 -54.561 709.745 -53.1045 708.339C-51.3104 706.512 -48.1629 704.926 -45.9904 703.468C-40.2453 697.219 -37.0063 691.742 -34.394 683.663C-33.5274 684.415 -32.7881 685.494 -31.617 685.414C-28.0452 685.17 -24.8189 683.978 -21.4616 682.814Z" fill="#3C365B"/>
<path d="M1540.68 924.055C1549.97 924.08 1620.15 921.747 1624.13 923.968C1622.89 925.929 1621.74 927.752 1620.99 929.966C1618.82 937.296 1603.78 955.731 1598.76 964.677L1597.6 965.165C1579.65 965.269 1561.5 966.293 1543.59 965.968C1546.92 960.575 1547.37 949.209 1547.03 942.927C1546.7 936.696 1545.56 928.427 1540.68 924.055Z" fill="#5B284A"/>
<path d="M1426.75 927.068C1433.64 919.913 1438.16 911.038 1445.84 904.257C1458.3 893.258 1475.86 888.02 1492.34 889.04C1508.47 890.039 1522.29 897.082 1532.86 909.233C1536.31 913.204 1541.08 918.529 1540.68 924.055L1528.88 924.216C1525.42 923.564 1523.05 924.183 1519.74 925.187L1513.72 924.93C1493.55 925.475 1473.35 924.982 1453.18 925.801L1451.76 926.179C1443.34 926.028 1435.13 926.389 1426.75 927.068Z" fill="#5B284A"/>
<path d="M310.483 808C310.827 793.176 317.486 777.078 327.719 766.374C342.034 751.4 357.076 746.617 377.369 746.128C376.835 753.258 375.145 763.43 377.693 770.183L375.892 806.062C372.755 803.12 362.39 792.419 358.318 792.305C363.429 797.62 368.5 802.969 373.87 808.025C358.453 807.934 343.105 808.776 327.716 808.779L327.272 807.33C321.679 807.626 316.082 807.849 310.483 808Z" fill="#5B284A"/>
<path d="M1519.74 925.187C1523.05 924.183 1525.42 923.564 1528.88 924.216L1540.68 924.055C1545.56 928.427 1546.7 936.696 1547.03 942.927C1547.37 949.209 1546.92 960.575 1543.59 965.968L1542.65 966.918C1541.27 974.902 1533.28 985.751 1526.83 990.317C1525.87 990.991 1524.85 991.53 1523.79 992.016C1521.55 998.022 1510.28 1002.76 1504.8 1005.8L1501.36 1006.88C1492.67 1013.91 1474.39 1016.77 1463.62 1019.92L1460.69 1020.21C1454.66 1014.66 1446.37 1010.23 1439.77 1005.06L1438.01 1004.62C1437.23 1000.08 1430.65 994.789 1428.17 990.629C1423.95 983.521 1422.84 974.791 1418.64 967.885C1421.95 962.368 1419.31 949.638 1420.72 942.851C1421.81 937.603 1425.26 932.943 1426.6 927.681C1426.65 927.477 1426.7 927.272 1426.75 927.068C1435.13 926.389 1443.34 926.028 1451.76 926.179L1453.18 925.801C1473.35 924.982 1493.55 925.475 1513.72 924.93L1519.74 925.187Z" fill="#864561"/>
<path d="M1468.83 965.886C1468.83 965.546 1468.85 965.206 1468.85 964.866C1468.74 955.593 1460.16 951.319 1471.42 938.773C1475.01 934.768 1479.83 932.769 1485.17 932.61C1485.56 932.597 1485.94 932.594 1486.32 932.601C1486.71 932.608 1487.09 932.624 1487.47 932.649C1487.86 932.674 1488.24 932.708 1488.62 932.753C1489 932.797 1489.38 932.85 1489.76 932.913C1490.13 932.976 1490.51 933.048 1490.89 933.129C1491.26 933.21 1491.64 933.301 1492.01 933.4C1492.38 933.5 1492.74 933.609 1493.11 933.726C1493.48 933.844 1493.84 933.971 1494.2 934.106C1494.55 934.241 1494.91 934.386 1495.26 934.539C1495.61 934.692 1495.96 934.853 1496.31 935.023C1496.65 935.194 1496.99 935.372 1497.33 935.559C1497.66 935.746 1497.99 935.941 1498.32 936.144C1498.65 936.347 1498.97 936.557 1499.28 936.776C1499.59 936.995 1499.9 937.221 1500.21 937.456C1500.51 937.69 1500.81 937.931 1501.1 938.18C1501.39 938.429 1501.68 938.684 1501.96 938.947C1505.6 942.424 1508.46 947.58 1508.42 952.72C1508.39 957.896 1505.85 962.788 1502.12 966.282C1501.43 966.935 1500.73 967.392 1499.9 967.856C1496.48 971.557 1492.43 972.452 1487.61 973.201C1480.34 973.206 1474.95 969.322 1468.83 965.886Z" fill="#F0F4EE"/>
<path d="M1468.83 965.886C1474.95 969.322 1480.34 973.206 1487.61 973.201C1492.43 972.452 1496.48 971.557 1499.9 967.856C1507.51 970.082 1531.84 964.014 1542.65 966.918C1541.27 974.902 1533.28 985.751 1526.83 990.317C1525.87 990.991 1524.85 991.53 1523.79 992.016C1506.19 997.45 1490.56 999.162 1472.65 993.093C1463.26 989.009 1455.93 984.485 1450.23 975.745C1448.32 972.823 1447.66 970.335 1444.89 967.979L1445.77 967.669C1450.8 969.764 1463.34 968.876 1468.84 968.053L1468.83 965.886Z" fill="#5B284A"/>
<path d="M1474.93 988.933C1474.07 985.154 1471.91 983.586 1472.88 979.272C1473.54 976.336 1474.44 975.702 1476.82 974.165C1479.95 973.884 1482.41 974.053 1485.47 974.737C1488.31 976.581 1489.03 978.076 1490.21 981.129C1489.98 983.704 1489.86 985.23 1487.65 986.982C1484.67 989.338 1482.1 990.132 1478.32 989.55C1477.19 989.371 1476.06 989.165 1474.93 988.933Z" fill="#A47EA1"/>
<path d="M1418.64 967.885L1444.89 967.979C1447.66 970.335 1448.32 972.823 1450.23 975.745C1455.93 984.485 1463.26 989.009 1472.65 993.093C1490.56 999.162 1506.19 997.45 1523.79 992.016C1521.55 998.022 1510.28 1002.76 1504.8 1005.8L1501.36 1006.88C1492.67 1013.91 1474.39 1016.77 1463.62 1019.92L1460.69 1020.21C1454.66 1014.66 1446.37 1010.23 1439.77 1005.06L1438.01 1004.62C1437.23 1000.08 1430.65 994.789 1428.17 990.629C1423.95 983.521 1422.84 974.791 1418.64 967.885Z" fill="#3C365B"/>
<path d="M1439.77 1005.06C1446.36 1003.83 1498.12 1004.05 1502.07 1005.63L1501.36 1006.88C1492.67 1013.91 1474.39 1016.77 1463.62 1019.92L1460.69 1020.21C1454.66 1014.66 1446.37 1010.23 1439.77 1005.06Z" fill="#5B284A"/>
<path d="M-81 765.607C-63.0325 770.529 -44.1261 773.151 -25.817 776.574C-2.23293 781.141 21.3051 785.934 44.797 790.955C57.447 793.626 72.579 795.445 84.435 800.352C87.074 796.288 90.012 793.421 94.889 792.334C95.3943 792.223 95.9037 792.137 96.417 792.077C96.931 792.018 97.4467 791.984 97.964 791.977C98.4807 791.97 98.9967 791.989 99.512 792.034C100.027 792.079 100.539 792.151 101.047 792.248C101.555 792.345 102.057 792.468 102.552 792.617C103.047 792.766 103.534 792.939 104.012 793.137C104.49 793.335 104.956 793.557 105.411 793.803C105.866 794.048 106.308 794.316 106.736 794.607C109.336 796.342 111.391 799.016 112.589 801.892L113.351 805.053C132.309 813.127 154.989 813.712 173.669 822.345C176.076 826.854 178.003 830.496 183.209 832.061C185.056 832.616 186.876 832.428 188.586 831.528C190.478 830.533 192.752 828.184 193.75 826.241C204.115 831.317 218.237 833.558 229.489 836.873C254.488 844.262 279.373 852.018 304.144 860.139C292.831 861.707 279.151 859.47 267.689 858.874C250.48 858.048 233.261 857.513 216.034 857.268L-9.2119 851.847C-33.1555 851.327 -57.0418 850.251 -81 850.136V765.607Z" fill="#864561"/>
<path d="M84.435 800.352C87.074 796.288 90.012 793.421 94.889 792.334C95.3943 792.223 95.9037 792.137 96.417 792.077C96.931 792.018 97.4467 791.984 97.964 791.977C98.4807 791.97 98.9967 791.989 99.512 792.034C100.027 792.079 100.539 792.151 101.047 792.248C101.555 792.345 102.057 792.468 102.552 792.617C103.047 792.766 103.534 792.939 104.012 793.137C104.49 793.335 104.956 793.557 105.411 793.803C105.866 794.048 106.308 794.316 106.736 794.607C109.336 796.342 111.391 799.016 112.589 801.892C112.251 805.846 111.586 808.893 108.728 811.82C105.975 814.639 102.049 816.417 98.086 816.41C94.407 816.403 90.808 815.02 88.209 812.389C84.845 808.982 84.417 804.914 84.435 800.352Z" fill="#8CE1DC"/>
<path d="M1407.59 929.084C1408.52 929.266 1409.41 929.512 1410.35 929.215C1415.68 927.526 1421.19 927.431 1426.75 927.068C1426.7 927.272 1426.65 927.477 1426.6 927.681C1425.26 932.943 1421.81 937.603 1420.72 942.851C1419.31 949.638 1421.95 962.368 1418.64 967.885C1265.55 959.917 1112.35 955.295 959.06 954.018C925.69 953.857 891.995 952.478 858.664 953.097C830.129 951.518 800.784 952.961 772.171 952.994L613.792 953.273C611.625 951.106 608.139 949.205 605.018 949.326C602.404 949.428 600.819 950.624 599.087 952.446C586.452 954.759 573.602 952.593 560.982 952.418C559.774 952.164 558.222 951.246 557.066 950.731C554.069 949.713 550.592 949.752 547.437 949.53C542.661 946.453 536.88 944.176 531.816 941.51C531.006 940.021 529.627 938.957 528.394 937.822L529.086 936.438C670.479 938.421 811.877 938.982 953.28 938.123C1010.61 937.612 1068.01 934.511 1125.33 935.057C1125.64 935.476 1125.96 935.896 1126.25 936.33C1128.61 939.871 1128.15 942.38 1127.31 946.269C1130.34 942.369 1132.11 939.199 1131.65 934.105C1157.66 933.41 1385.63 929.405 1389.73 927.237C1395.18 929.558 1400.71 932.529 1406.63 929.806C1407.13 929.577 1407.24 929.425 1407.59 929.084Z" fill="#5B284A"/>
<path d="M599.087 952.446C600.819 950.624 602.404 949.428 605.018 949.326C608.139 949.205 611.625 951.106 613.792 953.273L772.171 952.994C800.784 952.961 830.129 951.518 858.664 953.097C891.995 952.478 925.69 953.857 959.06 954.018C1112.35 955.295 1265.55 959.917 1418.64 967.885C1422.84 974.791 1423.95 983.521 1428.17 990.629C1430.65 994.789 1437.23 1000.08 1438.01 1004.62L1439.77 1005.06C1446.37 1010.23 1454.66 1014.66 1460.69 1020.21L1463.62 1019.92C1474.39 1016.77 1492.67 1013.91 1501.36 1006.88L1504.8 1005.8C1510.28 1002.76 1521.55 998.022 1523.79 992.016C1524.85 991.53 1525.87 990.991 1526.83 990.317C1533.28 985.751 1541.27 974.902 1542.65 966.918L1543.59 965.968C1561.5 966.293 1579.65 965.269 1597.6 965.165L1598.76 964.677C1609.47 965.189 1620.21 964.513 1630.91 964.037C1633.33 962.633 1634.46 960.408 1635.89 958.104C1635.54 960.727 1635.36 960.99 1633.59 962.969C1633.04 967.453 1618.67 996.159 1615.97 999.064C1616.21 1007.06 1610.38 1018.05 1608.58 1026.16L1607.73 1027C1605.69 1040.89 1603.82 1054.69 1603.62 1068.76C1603.53 1075.36 1605.88 1088.27 1603.59 1094H1576.64H1557.63H1292.53H1235.56H1132.19H1100.3H854.793H802.586H609.05H582.696C584.083 1089.3 585.354 1084.74 587.979 1080.55L588.094 1079.63C592.668 1073.79 596.254 1065.77 600.488 1059.48C609.551 1046.01 620.43 1033.66 631.563 1021.88L632.239 1021.64C634.657 1016.59 643.952 1010.07 648.449 1006.28L649.765 1005.68C657.809 1005.98 666.199 1006.26 674.187 1005.15L661.733 997.975L659.757 997.403C643.526 988.497 625.837 981.918 609.993 972.476C601.723 971.409 590.865 965.034 583.112 961.63C575.652 962.024 568.232 961.994 560.764 961.911C560.301 957.685 558.931 954.525 557.066 950.731C558.222 951.246 559.774 952.164 560.982 952.418C573.602 952.593 586.452 954.759 599.087 952.446Z" fill="#482446"/>
<path d="M599.483 954.044C601.644 952.717 603.651 950.833 606.351 951.343C608.255 951.703 610.464 953.33 612.12 954.344C610.128 958.124 608.644 959.655 604.589 961.302C601.173 959.064 600.416 957.842 599.483 954.044Z" fill="#F0F4EE"/>
<path d="M557.066 950.731C558.222 951.246 559.774 952.164 560.982 952.418L583.112 961.63C575.652 962.024 568.232 961.994 560.764 961.911C560.301 957.685 558.931 954.525 557.066 950.731Z" fill="#BE7588"/>
<path d="M855.469 996.538C855.379 995.143 852.281 995.289 850.996 993.437C851.016 989.783 853.472 985.448 855.478 982.475C858.802 977.549 867.863 972.288 873.72 971.214C875.975 973.736 872.781 980.323 875.185 984.356C875.278 984.514 875.382 984.665 875.481 984.819C875.475 988.199 875.698 991.278 873.997 994.317C870.969 996.923 867.968 996.631 864.176 996.502L855.469 996.538Z" fill="#482446"/>
<path d="M880.782 992.992C880.842 992.846 880.908 992.703 880.962 992.556C883.199 986.476 878.01 972.407 883.285 968.773C889.83 968.344 896.943 973.812 901.693 977.966C903.846 979.855 905.861 981.88 907.739 984.043C907.703 987.405 908.16 991.6 906.208 994.471C903.89 995.976 899.944 994.528 898.965 996.625C893.641 996.776 884.851 997.956 880.779 994.131L880.782 992.992Z" fill="#482446"/>
<path d="M833.49 1005.06L828.752 999.556C830.645 998.334 860.344 999.425 865.376 999.3C867.459 999.452 869.529 999.295 871.156 1000.76C869.778 1002.95 867.098 1003.49 864.744 1004.5C864.473 1003.45 864.537 1003.11 864.73 1002.07C858.617 999.735 850.163 1004.05 843.931 1004.88C840.529 1005.33 836.918 1005.18 833.49 1005.06Z" fill="#2D1A37"/>
<path d="M884.493 1001.84L886.956 1001.31C887.076 1001.42 887.191 1001.53 887.317 1001.63C895.284 1008.04 1035.34 1004.61 1058.46 1006.36C1059.38 1003.85 1059.41 1003.53 1061.62 1002.09C1065.35 1002.63 1066.24 1005.34 1069.12 1005.69C1086.89 1007.9 1114.59 1006.14 1133.29 1006.13L1273.79 1005.84L1377.61 1005.23C1397.55 1005.16 1418.16 1006.17 1438.01 1004.62L1439.77 1005.06C1446.37 1010.23 1454.66 1014.66 1460.69 1020.21C1438.36 1028.87 1277.78 1021.62 1240.96 1023.26C1241.99 1024.06 1243.08 1024.76 1243.83 1025.84C1243.14 1026.09 1242.69 1026.2 1241.96 1026.05C1238.64 1025.38 1215.63 1027.46 1209.36 1027.48C1189.47 1027.55 1169.6 1026.15 1149.69 1025.84L1153.44 1024.51L1148.59 1024.04L1141.47 1023.24C1110.63 1024.6 1079.57 1023.93 1048.7 1023.87C993.027 1023.36 937.357 1023.44 881.69 1024.11C881.141 1021.13 880.888 1018.04 880.511 1015.03L879.562 1014.56C880.175 1010.93 879.278 1006.55 881.047 1003.31C882.447 1002.81 882.97 1003.33 884.303 1003.84L884.493 1001.84Z" fill="#482446"/>
<path d="M1156.76 1023.81C1175.11 1012.43 1203.08 1011.4 1223.67 1016.28C1228.56 1017.44 1232.76 1019.46 1237.15 1021.82L1238.2 1023.83C1211.03 1023.47 1183.92 1023.77 1156.76 1023.81Z" fill="#624D73"/>
<path d="M1149.69 1025.84C1169.6 1026.15 1189.47 1027.55 1209.36 1027.48C1215.63 1027.46 1238.64 1025.38 1241.96 1026.05C1242.69 1026.2 1243.14 1026.09 1243.83 1025.84C1245.49 1026.33 1247.7 1026.69 1248.92 1027.94C1267.86 1037.78 1283.92 1055.11 1290.43 1075.64C1291.91 1080.3 1293.97 1089.13 1292.53 1094H1235.56H1132.19H1100.3C1103.22 1090.04 1105.48 1076.24 1107.3 1070.87C1113.13 1053.73 1125.12 1042.97 1139.44 1032.63C1142.61 1030.34 1146.62 1028.86 1149.38 1026.16C1149.48 1026.06 1149.58 1025.94 1149.69 1025.84Z" fill="#302446"/>
<path d="M1132.19 1094C1132.29 1093.8 1132.39 1093.6 1132.49 1093.39C1142.13 1073.44 1142.41 1062.15 1167.29 1053.41C1168.15 1053.1 1169.01 1052.82 1169.88 1052.56C1170.75 1052.3 1171.63 1052.06 1172.51 1051.84C1173.4 1051.62 1174.29 1051.43 1175.18 1051.26C1176.07 1051.08 1176.97 1050.93 1177.87 1050.81C1178.77 1050.68 1179.67 1050.58 1180.58 1050.49C1181.48 1050.41 1182.39 1050.35 1183.3 1050.32C1184.21 1050.28 1185.11 1050.27 1186.02 1050.28C1186.93 1050.29 1187.84 1050.32 1188.75 1050.38C1189.66 1050.43 1190.56 1050.51 1191.47 1050.61C1192.37 1050.71 1193.27 1050.83 1194.17 1050.98C1195.06 1051.13 1195.96 1051.29 1196.85 1051.48C1197.74 1051.68 1198.62 1051.89 1199.5 1052.13C1200.37 1052.36 1201.24 1052.62 1202.11 1052.9C1202.98 1053.18 1203.84 1053.48 1204.69 1053.8C1205.54 1054.12 1206.38 1054.47 1207.21 1054.83C1208.04 1055.2 1208.87 1055.58 1209.68 1055.99C1220.91 1061.46 1229.93 1070.59 1234.02 1082.48C1235.21 1085.92 1236.51 1090.38 1235.56 1094H1132.19Z" fill="#4C486E"/>
<path d="M874.115 1023.96C874.114 1019.53 875.289 1008.31 872.286 1004.95L870.585 1005.12L870.862 1003.89L872.225 1003.63C874.457 1005.43 874.981 1008.55 875.278 1011.26C875.883 1016.77 875.409 1022.2 877.646 1027.41C878.92 1023 879.522 1019.15 879.562 1014.56L880.511 1015.03C880.888 1018.04 881.141 1021.13 881.69 1024.11C937.357 1023.44 993.027 1023.36 1048.7 1023.87C1079.57 1023.93 1110.63 1024.6 1141.47 1023.24L1148.59 1024.04L1153.44 1024.51L1149.69 1025.84C1149.58 1025.94 1149.48 1026.06 1149.38 1026.16C1146.62 1028.86 1142.61 1030.34 1139.44 1032.63C1125.12 1042.97 1113.13 1053.73 1107.3 1070.87C1105.48 1076.24 1103.22 1090.04 1100.3 1094H854.793C859.464 1070.67 853.764 1044.07 843.593 1022.92C853.784 1022.94 863.939 1023.46 874.115 1023.96Z" fill="#2D1A37"/>
<path d="M931.95 1074.65C933.29 1074.85 934.86 1075.01 936.1 1075.53C938.64 1076.59 939.19 1078.08 940.11 1080.43C939.85 1083.99 938.6 1085.35 936.28 1087.87C935.17 1087.67 934.06 1087.45 933 1087.05C930.43 1086.07 929.57 1084.82 928.42 1082.46C928.52 1079.08 930 1077.27 931.95 1074.65Z" fill="#624D73"/>
<path d="M1007.55 1058.49C1009.95 1058.01 1012.58 1057.51 1014.9 1058.56C1017.26 1059.63 1019.37 1061.8 1020.21 1064.28C1020.29 1064.53 1020.36 1064.78 1020.42 1065.03C1020.47 1065.28 1020.51 1065.53 1020.54 1065.79C1020.57 1066.04 1020.59 1066.3 1020.59 1066.56C1020.59 1066.82 1020.58 1067.07 1020.55 1067.33C1020.53 1067.58 1020.49 1067.84 1020.44 1068.09C1020.39 1068.34 1020.32 1068.59 1020.25 1068.84C1020.17 1069.08 1020.08 1069.32 1019.98 1069.56C1019.87 1069.8 1019.76 1070.03 1019.63 1070.25C1018.11 1072.92 1015.9 1073.47 1013.22 1074.35C1013.04 1074.43 1012.88 1074.54 1012.7 1074.59C1010.84 1075.12 1008.81 1074.38 1007.12 1073.7C1005.18 1071.5 1004.59 1069.71 1004.31 1066.84C1003.93 1063.08 1005.29 1061.22 1007.55 1058.49Z" fill="#8CE1DC"/>
<path d="M661.733 997.975C662.236 996.66 662.834 995.713 663.87 994.762C669.044 990.012 675.173 986.803 681.222 983.344C704.466 970.053 729.182 962.502 756.197 964.192C782.959 965.866 809.324 977.543 827.181 997.774L855.469 996.538L864.176 996.502L865.376 999.3C860.344 999.425 830.645 998.334 828.752 999.556L833.49 1005.06C837.023 1010.31 841.837 1016.83 843.593 1022.92C853.764 1044.07 859.464 1070.67 854.793 1094H802.586H609.05H582.696C584.083 1089.3 585.354 1084.74 587.979 1080.55L588.094 1079.63C592.668 1073.79 596.254 1065.77 600.488 1059.48C609.551 1046.01 620.43 1033.66 631.563 1021.88L632.239 1021.64C634.657 1016.59 643.952 1010.07 648.449 1006.28L649.765 1005.68C657.809 1005.98 666.199 1006.26 674.187 1005.15L661.733 997.975Z" fill="url(#paint2_linear_1_2)"/>
<path d="M674.187 1005.15C682.639 1009.84 691.077 1015.47 699.724 1019.71C733.665 1039.67 774.378 1066.62 802.586 1094H609.05H582.696C584.083 1089.3 585.354 1084.74 587.979 1080.55L588.094 1079.63C592.668 1073.79 596.254 1065.77 600.488 1059.48C609.551 1046.01 620.43 1033.66 631.563 1021.88L632.239 1021.64C634.657 1016.59 643.952 1010.07 648.449 1006.28L649.765 1005.68C657.809 1005.98 666.199 1006.26 674.187 1005.15Z" fill="#624D73"/>
<path d="M644.85 1050.79C647.123 1050.77 649.322 1050.91 651.583 1051.12C653.54 1053.52 652.966 1055.31 652.978 1058.36C650.794 1058.25 648.705 1057.95 646.552 1057.58C644.727 1055.11 645.013 1053.8 644.85 1050.79Z" fill="#F0F4EE"/>
<path d="M674.187 1005.15C682.639 1009.84 691.077 1015.47 699.724 1019.71C685.524 1023.76 649.116 1021.09 632.239 1021.64C634.657 1016.59 643.952 1010.07 648.449 1006.28L649.765 1005.68C657.809 1005.98 666.199 1006.26 674.187 1005.15Z" fill="#A47EA1"/>
<path d="M1630.91 964.037C1633.33 962.633 1634.46 960.408 1635.89 958.104C1635.54 960.727 1635.36 960.99 1633.59 962.969C1633.04 967.453 1618.67 996.159 1615.97 999.064C1616.21 1007.06 1610.38 1018.05 1608.58 1026.16L1607.73 1027C1605.69 1040.89 1603.82 1054.69 1603.62 1068.76C1603.53 1075.36 1605.88 1088.27 1603.59 1094H1576.64H1557.63H1292.53C1293.97 1089.13 1291.91 1080.3 1290.43 1075.64C1283.92 1055.11 1267.86 1037.78 1248.92 1027.94C1247.7 1026.69 1245.49 1026.33 1243.83 1025.84C1243.08 1024.76 1241.99 1024.06 1240.96 1023.26C1277.78 1021.62 1438.36 1028.87 1460.69 1020.21L1463.62 1019.92C1474.39 1016.77 1492.67 1013.91 1501.36 1006.88L1504.8 1005.8C1510.28 1002.76 1521.55 998.022 1523.79 992.016C1524.85 991.53 1525.87 990.991 1526.83 990.317C1533.28 985.751 1541.27 974.902 1542.65 966.918L1543.59 965.968C1561.5 966.293 1579.65 965.269 1597.6 965.165L1598.76 964.677C1609.47 965.189 1620.21 964.513 1630.91 964.037Z" fill="#2D1A37"/>
<path d="M1334.59 1044.5C1337.48 1044 1340.78 1043.21 1343.58 1044.4C1346.47 1045.61 1349.14 1048.22 1350.12 1051.23C1350.2 1051.48 1350.27 1051.73 1350.32 1051.98C1350.37 1052.24 1350.41 1052.5 1350.44 1052.76C1350.47 1053.02 1350.49 1053.28 1350.49 1053.54C1350.49 1053.81 1350.48 1054.07 1350.46 1054.33C1350.43 1054.59 1350.4 1054.85 1350.35 1055.1C1350.3 1055.36 1350.23 1055.62 1350.16 1055.87C1350.09 1056.12 1350 1056.37 1349.9 1056.61C1349.8 1056.85 1349.69 1057.09 1349.56 1057.32C1347.88 1060.45 1345.47 1061.46 1342.3 1062.5C1341.96 1062.65 1341.56 1062.86 1341.18 1062.93C1339.34 1063.31 1335.89 1062.77 1334.38 1061.67C1331.9 1059.87 1331.18 1056.99 1330.85 1054.12C1330.33 1049.76 1332 1047.71 1334.59 1044.5Z" fill="#8CE1DC"/>
<path d="M1463.62 1019.92C1477.3 1026.22 1555.17 1024.05 1574.16 1024.03L1573.12 1026.16C1570.68 1028.86 1496.91 1026.38 1488.64 1025.9C1476.19 1025.18 1463.28 1021.29 1451.11 1024.32C1450.7 1024.7 1450.03 1025.54 1449.56 1025.78C1443.64 1028.73 1431.6 1029.83 1424.77 1031.7C1411.17 1035.42 1372.85 1048.79 1361.16 1048.62C1360.52 1048.61 1359.9 1048.56 1359.27 1048.47C1373.82 1038.34 1410.98 1034.94 1429.76 1027.75L1429.66 1026.94C1429.29 1026.62 1429.01 1026.12 1428.54 1025.97C1425.75 1025.03 1418.36 1027.19 1415.01 1027.45C1406.68 1028.08 1398.12 1028.1 1389.76 1028.08C1342.97 1027.93 1295.66 1025.87 1248.92 1027.94C1247.7 1026.69 1245.49 1026.33 1243.83 1025.84C1243.08 1024.76 1241.99 1024.06 1240.96 1023.26C1277.78 1021.62 1438.36 1028.87 1460.69 1020.21L1463.62 1019.92Z" fill="#2D1A37"/>
<path d="M1504.8 1005.8C1513.86 1004.61 1571.37 1004.74 1577.34 1007.35C1577.39 1008.17 1577.53 1009.07 1577.4 1009.88C1578.9 1013.97 1576.52 1019.01 1574.78 1022.74C1574.58 1023.17 1574.38 1023.6 1574.16 1024.03C1555.17 1024.05 1477.3 1026.22 1463.62 1019.92C1474.39 1016.77 1492.67 1013.91 1501.36 1006.88L1504.8 1005.8Z" fill="#482446"/>
<path d="M1543.59 965.968C1561.5 966.293 1579.65 965.269 1597.6 965.165C1595.73 970.732 1581.52 1004.22 1578.98 1006.89L1577.4 1009.88C1577.53 1009.07 1577.39 1008.17 1577.34 1007.35C1571.37 1004.74 1513.86 1004.61 1504.8 1005.8C1510.28 1002.76 1521.55 998.022 1523.79 992.016C1524.85 991.53 1525.87 990.991 1526.83 990.317C1533.28 985.751 1541.27 974.902 1542.65 966.918L1543.59 965.968Z" fill="#2D1A37"/>
<path d="M1630.91 964.037C1633.33 962.633 1634.46 960.408 1635.89 958.104C1635.54 960.727 1635.36 960.99 1633.59 962.969C1633.04 967.453 1618.67 996.159 1615.97 999.064C1616.21 1007.06 1610.38 1018.05 1608.58 1026.16L1607.73 1027C1605.69 1040.89 1603.82 1054.69 1603.62 1068.76C1603.53 1075.36 1605.88 1088.27 1603.59 1094H1576.64H1557.63C1558.43 1090.96 1557.46 1086.71 1557.23 1083.54C1556.33 1071.01 1562.36 1062.88 1569.09 1053.06C1572.33 1046.93 1572.84 1033.19 1573.12 1026.16L1574.16 1024.03C1574.38 1023.6 1574.58 1023.17 1574.78 1022.74C1576.52 1019.01 1578.9 1013.97 1577.4 1009.88L1578.98 1006.89C1581.52 1004.22 1595.73 970.732 1597.6 965.165L1598.76 964.677C1609.47 965.189 1620.21 964.513 1630.91 964.037Z" fill="#3C365B"/>
<path d="M1578.98 1006.89C1588.06 1005.96 1602.07 1004.18 1610.88 1006.4C1610.52 1012.69 1609.2 1018.35 1606.28 1023.96C1602.65 1026.05 1579.19 1024.63 1574.16 1024.03C1574.38 1023.6 1574.58 1023.17 1574.78 1022.74C1576.52 1019.01 1578.9 1013.97 1577.4 1009.88L1578.98 1006.89Z" fill="#624D73"/>
<path d="M1569.09 1053.06C1573.04 1052.15 1576.39 1051 1580.04 1053.43C1583.34 1055.62 1584.96 1059.51 1585.56 1063.29C1587 1072.26 1583.87 1084.53 1578.49 1091.8C1577.92 1092.58 1577.29 1093.3 1576.64 1094H1557.63C1558.43 1090.96 1557.46 1086.71 1557.23 1083.54C1556.33 1071.01 1562.36 1062.88 1569.09 1053.06Z" fill="#864561"/>
<path d="M-81 850.136C-57.0418 850.251 -33.1555 851.327 -9.2119 851.847L216.034 857.268C233.261 857.513 250.48 858.048 267.689 858.874C279.151 859.47 292.831 861.707 304.144 860.139C312.123 862.512 323.412 867.623 331.511 867.978C341.769 870.974 371.493 882.07 378.559 882.625L379.081 874.53L381.11 872.214L381.05 867.767C443.354 868.361 505.684 871.445 567.981 872.8C621.867 873.809 675.739 875.331 729.596 877.365C768.266 878.447 806.945 878.789 845.572 881.098C845.812 881.176 846.052 881.258 846.294 881.333C860.118 885.613 887.076 881.817 903.146 885.128C885.802 888.113 867.67 885.138 850.544 890.01C803.053 889.977 755.258 893.307 707.799 895.391C645.837 898.112 583.886 900.076 521.945 903.405C508.625 904.121 457.065 904.959 447.475 907.777C469.815 916.713 492.271 925.334 514.508 934.527L531.816 941.51C536.88 944.176 542.661 946.453 547.437 949.53C550.592 949.752 554.069 949.713 557.066 950.731C558.931 954.525 560.301 957.685 560.764 961.911C568.232 961.994 575.652 962.024 583.112 961.63C590.865 965.034 601.723 971.409 609.993 972.476C625.837 981.918 643.526 988.497 659.757 997.403L661.733 997.975L674.187 1005.15C666.199 1006.26 657.809 1005.98 649.765 1005.68L648.449 1006.28C643.952 1010.07 634.657 1016.59 632.239 1021.64L631.563 1021.88C620.43 1033.66 609.551 1046.01 600.488 1059.48C596.254 1065.77 592.668 1073.79 588.094 1079.63L587.979 1080.55C585.354 1084.74 584.083 1089.3 582.696 1094H542.402H487.785H452.436H396.448H342.331H51.46H-6.4055H-81V1021.92V1008.76V982.182V964.662V956.332V926.108V894.983V855.709V850.136Z" fill="#864561"/>
<path d="M547.437 949.53C550.592 949.752 554.069 949.713 557.066 950.731C558.931 954.525 560.301 957.685 560.764 961.911C559.674 963.9 558.484 966.177 556.619 967.533C554.141 969.336 551.07 970.106 548.042 969.454C545.586 968.926 543.585 967.48 542.229 965.375C539.887 961.741 540.092 958.035 541.041 954.003C543.195 953.137 545.525 950.941 547.437 949.53Z" fill="#F2C180"/>
<path d="M448.756 1003.75C452.832 999.578 472.515 1000.46 478.648 1000.38C489.378 1000.24 501.793 1005.28 515.201 1005.62C559.555 1006.77 604.111 1004.74 648.449 1006.28C643.952 1010.07 634.657 1016.59 632.239 1021.64L631.563 1021.88L559.743 1021.93C549.833 1021.92 531.563 1020.02 522.415 1022.72L521.727 1022.48C514.102 1022.26 506.207 1021.59 498.602 1021.95C497.315 1021.51 495.832 1020.19 494.549 1019.55C489.205 1016.87 485.731 1017.52 480.236 1019.3L478.807 1018.66C469.601 1015.65 460.82 1010.08 452.385 1005.36L448.756 1003.75Z" fill="#BE7588"/>
<path d="M452.385 1005.36C470.106 1000.85 494.212 1004.08 510.043 1013.46C514.293 1015.97 518.352 1018.84 521.727 1022.48C514.102 1022.26 506.207 1021.59 498.602 1021.95C497.315 1021.51 495.832 1020.19 494.549 1019.55C489.205 1016.87 485.731 1017.52 480.236 1019.3L478.807 1018.66C469.601 1015.65 460.82 1010.08 452.385 1005.36Z" fill="#A47EA1"/>
<path d="M522.415 1022.72C531.563 1020.02 549.833 1021.92 559.743 1021.93L631.563 1021.88C620.43 1033.66 609.551 1046.01 600.488 1059.48C596.254 1065.78 592.668 1073.79 588.094 1079.63L587.979 1080.55C585.354 1084.74 584.083 1089.3 582.696 1094H542.402C546.88 1082.23 546.507 1068.99 544.885 1056.71L544.24 1056.82C543.338 1044.98 530.641 1030.57 522.415 1022.72Z" fill="#864561"/>
<path d="M544.885 1056.71C559.031 1064.57 574.289 1071.46 588.094 1079.63L587.979 1080.55C585.354 1084.74 584.083 1089.3 582.696 1094H542.402C546.88 1082.23 546.507 1068.99 544.885 1056.71Z" fill="#4C486E"/>
<path d="M266.246 932.762L267.061 931.386C277.499 929.873 299.309 931.889 311.267 931.981C358.796 932.345 406.322 934.02 453.853 934.653C472.586 934.903 496.479 936.88 514.508 934.527L531.816 941.51C536.88 944.176 542.661 946.453 547.437 949.53C545.525 950.941 543.195 953.137 541.041 954.003C534.976 951.574 352.943 953.129 331.694 953.402C309.82 946.705 288.21 939.205 266.246 932.762Z" fill="#BE7588"/>
<path d="M405.965 940.022C408.971 940.007 411.913 939.927 414.479 941.725C416.524 943.157 417.294 944.223 417.733 946.615C416.814 947.917 415.469 948.406 414.078 949.08C410.462 949.271 406.264 949.696 402.903 948.141C401.146 947.328 401.316 947.091 400.692 945.366C401.638 942.511 403.565 941.531 405.965 940.022Z" fill="#864561"/>
<path d="M-81 894.983C-27.4599 894.748 26.0557 895.778 79.547 898.075C94.857 898.724 119.7 898.218 133.725 900.712C136.338 901.176 142.087 903.223 143.865 901.596C159.329 903.969 176.889 907.446 191.784 912.199C214.521 917.281 238.144 922.82 260.107 930.63C258.817 931.231 -22.1739 926.919 -52.6718 927.114C-52.7646 929.175 -52.8191 931.012 -53.5049 932.98C-53.4221 930.795 -53.5058 929.412 -54.5183 927.45C-60.5336 923.168 -73.5278 926.125 -81 926.108V894.983Z" fill="#624D73"/>
<path d="M-81 850.136C-57.0418 850.251 -33.1555 851.327 -9.2119 851.847L216.034 857.268C233.261 857.513 250.48 858.048 267.689 858.874C279.151 859.47 292.831 861.707 304.144 860.139C312.123 862.512 323.412 867.623 331.511 867.978C341.769 870.974 371.493 882.07 378.559 882.625L379.081 874.53L381.11 872.214C380.694 875.443 379.674 879.533 380.939 882.579C397.375 892.338 428.497 897.267 446.69 907.704C433.062 910.318 305.214 913.23 299.455 910.222L299.41 908.653C297.415 910.13 295.402 911.718 292.853 912.013C289.194 912.435 286.802 910.206 284.188 908.034L284.41 910.865C280.296 913.767 203.182 911.457 191.784 912.199C176.889 907.446 159.329 903.969 143.865 901.596C142.087 903.223 136.338 901.176 133.725 900.712C119.7 898.218 94.857 898.724 79.547 898.075C26.0557 895.778 -27.4599 894.748 -81 894.983V855.709V850.136Z" fill="#BE7588"/>
<path d="M284.188 908.034C284.016 904.423 283.666 901.329 286.33 898.488C287.787 896.933 289.824 895.902 291.977 895.851C294.17 895.8 296.21 896.789 297.685 898.38C299.963 900.837 299.967 903.737 299.691 906.848C299.635 907.472 299.536 908.04 299.41 908.653C297.415 910.13 295.402 911.718 292.853 912.013C289.194 912.435 286.802 910.206 284.188 908.034Z" fill="#F0F4EE"/>
<path d="M-81 855.709C-60.3553 859.889 -39.405 862.728 -18.6814 866.548C24.8709 874.224 68.148 883.223 111.15 893.545C120.817 895.813 135.393 896.947 143.865 901.596C142.087 903.223 136.338 901.176 133.725 900.712C119.7 898.218 94.857 898.724 79.547 898.075C26.0557 895.778 -27.4599 894.748 -81 894.983V855.709Z" fill="#864561"/>
<path d="M-81 956.332C24.71 957.757 130.58 954.693 236.303 954.21C268.126 954.065 299.959 953.137 331.781 953.916C369.105 966.624 413.87 985.396 448.756 1003.75L452.385 1005.36C460.82 1010.08 469.601 1015.65 478.807 1018.66L480.236 1019.29C485.731 1017.52 489.205 1016.87 494.549 1019.55C495.832 1020.19 497.315 1021.51 498.602 1021.95C506.207 1021.59 514.102 1022.26 521.727 1022.48L522.415 1022.72C530.641 1030.57 543.338 1044.98 544.24 1056.82L544.885 1056.71C546.507 1068.99 546.88 1082.23 542.402 1094H487.785H452.436H396.448H342.331H51.46H-6.4055H-81V1021.92V1008.76V982.182V964.662V956.332Z" fill="#624D73"/>
<path d="M53.232 995.21C50.471 994.418 47.481 993.667 45.972 990.942C44.668 988.586 45.133 987.146 45.651 984.688C46.517 983.482 47.433 982.183 48.774 981.47C50.721 980.435 52.862 980.4 54.923 981.099C57.977 982.135 59.192 984.704 60.626 987.343C58.514 991.004 56.766 992.908 53.232 995.21Z" fill="#F0F4EE"/>
<path d="M480.236 1019.29C485.731 1017.52 489.205 1016.87 494.549 1019.55C495.832 1020.19 497.315 1021.51 498.602 1021.95C500.847 1025.94 501.378 1029.46 501.871 1033.97C498.937 1038.09 496.049 1042.35 490.738 1043.39C488.018 1043.92 484.158 1043.08 481.624 1042.1C476.974 1038.19 475.258 1036.08 474.587 1029.95L474.083 1028.71C475.635 1024.74 477.192 1022.31 480.236 1019.29Z" fill="#C6E7E8"/>
<path d="M474.083 1028.71C476.088 1026.87 478.373 1024.12 481.044 1023.42L481.786 1024.52C481.673 1024.71 481.55 1024.91 481.446 1025.11C479.192 1029.55 482.606 1033.38 480.95 1037.31C477.484 1035.94 476.648 1032.71 474.587 1029.95L474.083 1028.71Z" fill="#8CE1DC"/>
<path d="M448.756 1003.75L452.385 1005.36C460.82 1010.08 469.601 1015.65 478.807 1018.66C478.612 1018.69 478.416 1018.72 478.221 1018.76C476.634 1019.02 475.497 1019.37 474.037 1020.02C467.578 1022.89 423.556 1024.63 416.745 1022.25C422.16 1015.13 431.294 1010.83 439.005 1006.74C442.43 1006.06 445.712 1005.55 448.756 1003.75Z" fill="#7B7FA9"/>
<path d="M498.602 1021.95C506.207 1021.59 514.102 1022.26 521.727 1022.48L522.415 1022.72C530.641 1030.57 543.338 1044.98 544.24 1056.82C533.404 1050.72 509.846 1041.62 501.871 1033.97C501.378 1029.46 500.847 1025.94 498.602 1021.95Z" fill="#7B7FA9"/>
<path d="M452.436 1094C449.576 1091.23 446.862 1088.01 444.975 1084.49C444.734 1084.05 444.505 1083.61 444.287 1083.16C444.068 1082.71 443.861 1082.25 443.666 1081.79C443.471 1081.33 443.287 1080.87 443.115 1080.4C442.943 1079.93 442.783 1079.46 442.634 1078.98C442.486 1078.5 442.35 1078.02 442.226 1077.54C442.101 1077.05 441.989 1076.57 441.89 1076.08C441.79 1075.59 441.702 1075.09 441.627 1074.6C441.552 1074.11 441.489 1073.61 441.439 1073.12C441.389 1072.62 441.351 1072.12 441.326 1071.62C441.301 1071.12 441.288 1070.62 441.288 1070.12C441.287 1069.62 441.3 1069.12 441.325 1068.62C441.35 1068.12 441.387 1067.63 441.437 1067.13C441.487 1066.63 441.549 1066.14 441.624 1065.64C441.699 1065.15 441.786 1064.66 441.885 1064.17C441.984 1063.68 442.096 1063.19 442.22 1062.71C442.344 1062.22 442.48 1061.74 442.628 1061.26C444.939 1053.94 449.997 1047.71 456.9 1044.27C464.675 1040.4 472.664 1040.67 480.7 1043.37C488.737 1047.01 494.732 1051.76 497.969 1060.25C498.141 1060.71 498.302 1061.16 498.451 1061.62C498.6 1062.08 498.738 1062.55 498.863 1063.02C498.988 1063.49 499.102 1063.96 499.204 1064.43C499.305 1064.91 499.395 1065.38 499.473 1065.86C499.55 1066.34 499.615 1066.82 499.668 1067.3C499.721 1067.78 499.762 1068.26 499.791 1068.75C499.82 1069.23 499.836 1069.72 499.84 1070.2C499.844 1070.69 499.836 1071.17 499.815 1071.65C499.794 1072.14 499.762 1072.62 499.717 1073.11C499.672 1073.59 499.614 1074.07 499.545 1074.55C499.475 1075.03 499.393 1075.51 499.3 1075.98C499.206 1076.45 499.1 1076.93 498.982 1077.4C498.865 1077.87 498.735 1078.34 498.594 1078.8C498.453 1079.27 498.299 1079.73 498.134 1080.18C497.969 1080.63 497.793 1081.08 497.606 1081.53C497.418 1081.98 497.219 1082.42 497.009 1082.86C494.837 1087.43 491.656 1090.82 487.785 1094H452.436Z" fill="url(#paint3_linear_1_2)"/>
<path d="M235.014 1010.62C234.803 1007.13 235.172 1003.86 236.476 1000.59C240.528 990.451 248.555 983.294 258.557 979.172C273.06 973.196 291.647 973.673 306.052 979.782C312.316 982.439 319.274 986.896 321.784 993.562C323.782 998.869 322.999 1003.67 320.793 1008.73C307.408 1022.51 291.301 1028.06 272.317 1028.37C259.554 1028.58 250.5 1025.35 239.364 1019.45C238.285 1016.52 236.274 1013.58 235.014 1010.62Z" fill="#8CE1DC"/>
<path d="M-81 964.662C-58.4266 962.485 12.5621 971.578 35.428 978.739C42.96 986.301 33.999 993.301 50.287 996.374C51.188 995.995 52.281 995.368 53.232 995.21C56.766 992.908 58.514 991.004 60.626 987.343L60.623 986.929L60.916 987.365C61.879 988.768 62.786 989.728 64.145 990.745L65.967 990.688C66.951 988.243 67.047 986.903 69.428 985.591C98.122 986.364 125.844 999.237 153.072 1006.83C144.067 1008.7 132.78 1006.98 123.524 1006.99L44.078 1007.71C32.724 1007.8 18.1236 1006.27 7.1699 1008.49C6.201 1008.69 5.535 1009.29 5.0033 1010.1C4.8923 1010.27 4.8128 1010.46 4.7175 1010.64C2.6391 1009.67 0.659096 1008.22 -1.2909 1007.01C-1.5011 1006.79 -1.6996 1006.56 -1.9216 1006.36C-24.2684 985.728 -51.9064 981.888 -81 982.182V964.662Z" fill="#3C365B"/>
<path d="M239.364 1019.45C250.5 1025.35 259.554 1028.58 272.317 1028.37C291.301 1028.06 307.408 1022.51 320.793 1008.73L321.682 1009.91C317.23 1015.18 313.882 1019.51 307.134 1021.84L306.455 1023.36C308.118 1023.41 308.282 1022.59 309.547 1022.38C309.862 1022.33 311.473 1023.56 311.945 1023.69C314.78 1024.47 320.964 1023.54 324.103 1023.47C354.748 1022.74 385.589 1023.97 416.175 1022.27C401.644 1038.1 392.84 1055.68 393.851 1077.61C394.098 1082.96 394.71 1088.93 396.448 1094H342.331C342.023 1093.01 341.346 1092.02 340.849 1091.1C332.489 1085.36 321.198 1082 311.972 1077.61C286.423 1065.45 208.911 1025.27 185.832 1023.04L193.327 1022.84C201.082 1023.11 235.282 1021 238.625 1022.18L241.968 1022.88L239.364 1019.45Z" fill="#4C486E"/>
<path d="M241.968 1022.88C242.178 1022.95 242.389 1023.02 242.596 1023.09C245.181 1024.06 247.536 1026.59 248.686 1029.01C248.436 1031.01 248.483 1031.71 246.955 1033.19C244.688 1035.38 241.639 1035.63 238.667 1035.47C236.135 1034.08 236.063 1034.09 235.074 1031.39C235.484 1027.52 236.427 1025.38 238.625 1022.18L241.968 1022.88Z" fill="#8CE1DC"/>
<path d="M-81 982.182C-51.9064 981.888 -24.2684 985.728 -1.9216 1006.36C-1.6996 1006.56 -1.5011 1006.79 -1.2909 1007.01C0.659096 1008.23 2.6391 1009.67 4.7175 1010.64C7.362 1013.42 10.5296 1017.76 13.7407 1019.73L14.3695 1021.08C21.799 1027.16 26.924 1035.52 32.098 1043.48C41.175 1060.09 47.597 1075.46 51.46 1094H-6.4055H-81V1021.92V1008.76V982.182Z" fill="#864561"/>
<path d="M32.098 1043.48C41.175 1060.09 47.597 1075.46 51.46 1094H-6.40552C6.48748 1077.65 17.0386 1057.81 32.098 1043.48Z" fill="#5B284A"/>
<path d="M13.7407 1019.73C20.973 1022.79 169.294 1023.77 185.832 1023.04C208.911 1025.27 286.423 1065.45 311.972 1077.61C321.198 1082 332.489 1085.36 340.849 1091.1C341.346 1092.02 342.023 1093.01 342.331 1094H51.46C47.597 1075.46 41.175 1060.09 32.098 1043.48C26.924 1035.52 21.799 1027.16 14.3695 1021.08L13.7407 1019.73Z" fill="#3C365B"/>
<path d="M80.451 1039.97C82.142 1039.83 83.86 1039.71 85.557 1039.79C88.741 1039.94 91.251 1041.32 93.354 1043.67C95.234 1045.77 96.303 1048.22 95.942 1051.09C95.428 1055.19 92.873 1057.91 89.722 1060.27C89.02 1060.41 88.312 1060.51 87.603 1060.6C84.135 1061.06 81.415 1060.79 78.581 1058.43C76.535 1056.73 75.623 1054.66 75.388 1052.06C74.911 1046.76 77.282 1043.86 80.451 1039.97Z" fill="#4C486E"/>
<path d="M176.571 1037.55C177.207 1037.43 177.717 1037.38 178.369 1037.42C182.509 1037.69 186.83 1040.49 189.559 1043.49C196.321 1050.92 197.511 1060.08 197.061 1069.62C195.299 1072.17 193.53 1074.8 191.527 1077.16C186.67 1082.91 181.169 1085.19 173.759 1085.82C169.02 1085.51 164.506 1084.12 159.946 1082.87C155.772 1078.61 152.269 1074.39 150.737 1068.49C148.324 1059.2 151.203 1051.12 155.829 1043.17C163.132 1039.07 168.23 1037.66 176.571 1037.55Z" fill="#4C486E"/>
<path d="M160.911 1060.49C162.512 1056.62 164.305 1053.01 168.345 1051.22C171.218 1049.94 175.444 1050.04 178.313 1051.31C180.998 1052.5 182.949 1054.46 183.964 1057.24C185.206 1060.65 184.805 1064.68 183.246 1067.91C181.92 1070.67 179.644 1073.06 176.684 1074.02C173.448 1075.06 170.012 1074.23 167.146 1072.56C165.036 1071.34 162.909 1069.39 161.325 1067.53L160.911 1060.49Z" fill="#F0F4EE"/>
<rect x="869.303" y="1003.27" width="17.334" height="21.1389" fill="#482446"/>
<rect x="1822.95" y="715.161" width="130.236" height="101.421" fill="#2D1A37"/>
</g>
</g>
<defs>
<linearGradient id="paint0_linear_1_2" x1="931.217" y1="645.381" x2="936.81" y2="855.63" gradientUnits="userSpaceOnUse">
<stop stop-color="#2D1A37"/>
<stop offset="1" stop-color="#482446"/>
</linearGradient>
<linearGradient id="paint1_linear_1_2" x1="1858.25" y1="1041.95" x2="1841.16" y2="1035.19" gradientUnits="userSpaceOnUse">
<stop stop-color="#FEE395"/>
<stop offset="1" stop-color="#FFFFAE"/>
</linearGradient>
<linearGradient id="paint2_linear_1_2" x1="753.085" y1="1083.88" x2="773.499" y2="967.614" gradientUnits="userSpaceOnUse">
<stop stop-color="#3C365B"/>
<stop offset="1" stop-color="#6E3674"/>
</linearGradient>
<linearGradient id="paint3_linear_1_2" x1="463.088" y1="1044.42" x2="476.938" y2="1094.67" gradientUnits="userSpaceOnUse">
<stop stop-color="#8CE1DC"/>
<stop offset="1" stop-color="#C6E7E8"/>
</linearGradient>
<clipPath id="clip0_1_2">
<rect width="1920" height="1080" fill="white"/>
</clipPath>
<clipPath id="clip1_1_2">
<rect width="2048" height="1024" fill="white" transform="translate(-81 70)"/>
</clipPath>
</defs>
</svg>
