<svg width="839" height="236" viewBox="0 0 839 236" fill="none" xmlns="http://www.w3.org/2000/svg">
<path d="M1.77824 137.96L2.42265 139.83C3.27563 140.186 3.76324 140.138 4.65299 140.065C10.0707 139.618 16.3743 140.798 21.8138 141.254C36.5585 142.492 51.5236 144.236 66.2984 144.766C67.8135 144.692 68.873 144.725 70.315 145.215C75.9006 144.713 118.098 145.976 121.929 147.073C124.814 150.153 144.67 147.551 150.232 150.094L148.323 152.778L148.579 159.458C148.197 169.484 148.639 185.958 150.091 195.839C151.037 196.112 151.98 196.397 152.936 196.631C137.222 196.473 121.428 195.291 105.756 194.181C78.4846 192.25 51.5319 189.695 24.4939 185.586C17.6414 184.545 7.90106 184.167 1.9881 180.689C0.0810808 178.287 0.793007 174.368 0.901181 171.47C0.743088 164.797 -0.214263 142.987 1.77824 137.96Z" fill="#7E89D0"/>
<path d="M1.77824 137.96L2.42265 139.83C3.27563 140.186 3.76324 140.138 4.65299 140.065C10.0707 139.618 16.3743 140.798 21.8138 141.254C36.5585 142.492 51.5236 144.236 66.2984 144.766C67.8135 144.692 68.873 144.725 70.315 145.215C75.9006 144.713 118.098 145.976 121.929 147.073C124.814 150.153 144.67 147.551 150.232 150.094L148.323 152.778C129.75 150.953 110.922 150.982 92.2896 149.997C87.4274 149.74 82.6865 148.804 77.8585 148.486C72.6508 148.143 67.4283 149.29 62.2067 148.558C51.9135 147.925 33.1318 147.734 23.7302 145.665C20.4815 144.95 17.0361 145.269 13.7246 144.988C9.64536 144.64 5.77482 143.348 1.59069 143.805C-0.310585 152.592 2.90989 162.674 0.901181 171.47C0.743088 164.797 -0.214263 142.987 1.77824 137.96Z" fill="#C0BCE2"/>
<path d="M18.144 152.75C23.3788 152.586 34.849 151.898 39.342 154.157C41.2388 155.11 42.352 156.817 42.9114 158.822C43.7421 161.805 44.3015 182.019 43.0401 184.216L41.6574 184.377C36.3305 184.464 21.4723 183.204 16.8396 181.592C15.7182 178.023 14.7715 158.539 15.8568 155.04C16.324 153.534 16.8796 153.461 18.144 152.75Z" fill="#322B59"/>
<path d="M57.2666 155.647C67.2773 154.654 77.6575 155.367 87.7191 155.559C97.5909 155.467 107.22 154.051 115.341 160.681C115.301 165.656 116.673 181.064 115.811 184.382C111.023 187.448 69.2981 182.625 58.967 184.292C57.2805 176.572 57.287 163.801 57.2666 155.647Z" fill="#322B59"/>
<path d="M57.2666 155.647C67.2773 154.654 77.6575 155.367 87.7191 155.559C90.8674 155.834 94.0203 156.039 97.1778 156.175C92.9935 158.455 65.5009 153.737 59.0059 156.74C58.0418 164.161 60.8989 178.592 58.967 184.292C57.2805 176.572 57.287 163.801 57.2666 155.647Z" fill="#A8B6D9"/>
<path d="M210.958 79.365C225.463 76.9042 239.751 72.6467 254.33 70.3906C251.237 73.6034 229.448 92.9172 229.171 94.4333C226.022 97.9332 210.842 118.219 209.138 118.951C204.459 122.409 190.231 142.579 185.979 148.339C180.907 148.361 174.965 147.741 169.999 148.459C164.294 147.938 158.236 148.315 152.493 148.309L153.423 145.661C150.917 148.054 149.297 148.298 145.952 148.252C139.377 148.164 127.829 145.995 121.929 147.073C118.098 145.976 75.9004 144.714 70.3149 145.216C68.8729 144.726 67.8134 144.692 66.2982 144.766C51.5234 144.237 36.5584 142.492 21.8136 141.254C16.3741 140.798 10.0706 139.618 4.65282 140.065C3.76308 140.138 3.27546 140.187 2.42248 139.83L1.77808 137.96L2.25828 137.262C3.52765 136.112 4.8023 134.954 6.3247 134.145C12.1212 131.067 27.5476 126.579 34.1484 125.492C53.6434 118.869 73.8564 114.413 93.7546 109.204L127.397 100.685C136.862 98.1879 146.226 95.3159 155.819 93.3293L157.689 92.6921C175.374 87.9725 193.284 84.1207 210.958 79.365Z" fill="#B8C6F9"/>
<path d="M34.1487 125.492C53.6436 118.868 73.8567 114.413 93.7549 109.204L127.397 100.685C136.862 98.1876 146.226 95.3157 155.819 93.3291L155.746 93.8913C151.213 94.9693 119.529 102.682 117.584 104.642L117.729 105.158L117.746 104.396L117.942 105.305C120.799 106.335 130.915 102.415 134.622 101.908C137.436 101.524 139.927 100.042 142.644 99.2638C146.885 98.0487 151.219 97.4078 155.327 95.6584L155.789 95.9427C154.292 96.4613 152.811 96.9688 151.353 97.5866C149.379 98.4238 147.161 98.7665 145.105 99.3805C137.551 101.638 129.961 103.544 122.329 105.508C110.006 108.677 98.0762 113.303 85.7984 116.634C79.2339 118.415 72.5555 119.624 65.9511 121.212C63.2681 121.856 60.7082 122.915 58.0382 123.598C53.539 124.751 49.0916 125.687 44.798 127.511C44.259 127.74 43.9219 127.758 43.3477 127.674C43.8811 127.164 44.2303 127.176 44.9268 126.91C53.2157 123.757 62.2243 121.476 70.869 119.462C76.8787 118.062 92.0934 115.48 96.8436 112.566L95.584 109.816C94.6393 109.789 94.0596 109.927 93.1584 110.145C80.2011 113.182 67.3181 116.508 54.5096 120.123C48.5665 121.782 42.6651 123.909 36.697 125.409C35.766 125.642 35.1065 125.655 34.1487 125.492Z" fill="#656D9C"/>
<path d="M210.958 79.365C225.464 76.9042 239.751 72.6467 254.33 70.3906C251.237 73.6034 229.448 92.9172 229.171 94.4333C226.022 97.9332 210.843 118.219 209.138 118.951C204.46 122.409 190.231 142.579 185.979 148.339C180.907 148.361 174.966 147.741 170 148.459C164.295 147.938 158.237 148.315 152.494 148.309L153.423 145.661C153.53 145.242 185.371 106.23 188.359 102.746C191.387 99.2177 194.642 95.8892 197.914 92.5866C200.377 90.1008 210.311 81.9406 210.958 79.365Z" fill="#C0BCE2"/>
<path d="M398.601 1.24043C406.722 0.909796 435.815 -0.483124 442.37 1.30711C446.184 2.34902 449.721 4.81163 453.092 6.84266C461.989 13.6739 468.213 20.9487 473.046 31.09L489.064 31.454C492.294 31.3975 495.737 31.2262 498.928 31.8133C502.946 31.8282 506.942 31.7661 510.931 32.3107C511.012 32.3209 511.093 32.3301 511.174 32.3403L513.082 37.5971C513.515 39.4012 514.014 41.097 514.691 42.8252C518.753 43.1382 522.821 43.3559 526.893 43.4781C531.454 43.4874 539.909 42.9067 543.932 44.4357C545.725 45.3174 546.846 46.4066 548.238 47.8254L547.773 60.1542C561.65 61.1304 577.389 69.9862 590.652 70.9558C592.705 66.8817 593.983 62.2668 595.267 57.8991C595.868 56.3876 596.431 54.8474 597.106 53.3684C609.013 55.4615 621.14 57.0581 632.911 59.8125C635.092 64.5803 637.08 68.6738 635.092 73.9565C634.192 76.346 633.028 78.691 631.974 81.0175L641.379 82.9049L674.825 91.3477C679.677 92.5767 685.8 93.4639 690.307 95.5588C691.061 96.5118 691.612 96.6758 692.842 96.7397C693.88 96.7934 694.957 96.6906 695.994 96.6276C702.001 97.2917 708.578 99.7561 714.466 101.369C730.647 105.799 746.687 110.633 762.788 115.334C774.07 118.627 785.366 121.964 796.706 125.045C806.331 127.661 816.161 129.942 825.568 133.272C829.64 134.713 833.598 136.519 836.938 139.299C838.971 144.761 838.183 174.596 837.813 181.494C816.464 190.492 734.395 194.584 707.967 194.991C700.444 195.119 692.922 195.114 685.399 194.978C680.329 194.887 674.907 194.395 669.88 194.915C663.946 195.529 658.146 197.988 652.533 199.905C644.883 202.515 637.128 205.21 629.329 207.329C619.849 209.905 609.71 210.624 600.361 213.373C590.962 214.771 581.685 216.923 572.269 218.246C553.922 220.822 535.328 222.63 517.099 225.902C501.969 228.619 485.089 233.57 470.147 235.189C462.238 236.046 453.972 235.671 446.016 235.652C432.695 235.627 419.375 235.499 406.057 235.267C394.436 235.069 382.466 235.895 370.91 234.932C364.328 234.384 357.725 232.774 351.24 231.518C337.905 228.935 324.563 226.285 311.19 223.91C305.605 222.919 299.872 221.586 294.23 221.051C291.333 219.556 281.1 218.589 277.064 217.878C265.268 215.802 253.542 213.401 241.719 211.454C231.133 209.71 220.446 208.425 209.894 206.511C202.447 205.16 194.805 203.07 187.589 200.814C183.157 199.429 178.672 197.485 174.066 196.81C167.438 195.838 159.676 196.633 152.936 196.631C151.98 196.396 151.037 196.111 150.091 195.839C148.639 185.958 148.197 169.484 148.579 159.457L148.323 152.778L150.232 150.094C144.669 147.551 124.814 150.152 121.929 147.073C127.829 145.995 139.377 148.164 145.952 148.252C149.297 148.297 150.917 148.054 153.423 145.66L152.494 148.308C158.237 148.315 164.294 147.938 169.999 148.458C174.965 147.741 180.907 148.36 185.979 148.339C190.231 142.578 204.459 122.409 209.138 118.95C210.842 118.219 226.022 97.9325 229.171 94.4326C229.448 92.9165 251.237 73.6028 254.33 70.39C239.751 72.6461 225.463 76.9035 210.958 79.3643C193.285 84.12 175.374 87.9719 157.689 92.6915L157.724 91.7061C174.579 87.017 191.705 83.3532 208.634 78.9614C206.51 70.0501 204.38 61.2184 201.721 52.4469C217.258 51.2188 233.248 50.8743 247.771 57.1359C249.974 60.5942 250.296 66.3233 250.476 70.3576C256.932 69.2879 263.323 67.5032 269.735 66.1686C278.68 64.3071 287.632 62.8345 296.648 61.3962L296.833 60.3747C296.717 60.3006 296.595 60.2367 296.486 60.1524C294.337 58.4974 293.724 55.9347 293.458 53.3776C293.262 50.5276 293.165 47.6745 293.169 44.8182C304.079 44.7923 315.012 44.3737 325.927 44.2144C326.365 43.4161 325.869 41.1507 325.774 40.1495C326.4 38.2843 327.207 35.4234 329.064 34.4186C335.302 31.0437 368.191 33.0053 372.343 30.2741C374.907 26.8529 376.36 22.5899 378.622 18.9603C380.416 16.08 383.397 13.3516 385.715 10.8325C389.862 7.4002 394.101 4.19853 398.601 1.24043Z" fill="#322B59"/>
<path d="M466.685 200.604C469.43 199.926 473.745 200.042 476.499 200.665C476.115 200.71 475.731 200.751 475.346 200.774C473.729 200.864 467.659 201.453 466.685 200.604Z" fill="#BBB9E0"/>
<path d="M430.785 88.837C433.027 88.8685 434.972 88.7555 437.177 88.3258C435.394 88.0813 433.506 88.4165 431.723 88.5962C435.377 86.6615 448.031 87.5728 452.444 87.9775C453.68 88.1952 454.993 88.1294 455.877 89.0445C453.682 90.0253 434.203 89.2353 430.785 88.837Z" fill="#BBB9E0"/>
<path d="M150.232 150.095C150.253 151.606 149.883 152.105 149.076 153.31C150.943 153.667 151.812 154.231 153.172 155.543C153.546 156.01 154.36 156.774 154.575 157.292C156.123 161.014 153.985 172.987 155.202 178.155C156.321 182.903 161.707 185.673 162.472 188.718C159.774 187.788 156.625 183.256 155.475 180.815C152.004 173.452 154.473 164.786 153.751 156.98C152.44 156.508 150.797 155.659 149.407 156.041C149.104 157.356 149.759 158.279 149.015 159.416L148.579 159.458L148.323 152.779L150.232 150.095Z" fill="#BBB9E0"/>
<path d="M435.992 182.968L436.592 183.594L436.076 183.147L436.532 184.35C434.905 186.126 433.329 186.469 430.988 186.722C426.99 187.154 409.18 187.324 405.806 186.751C404.69 186.561 403.185 185.918 402.422 185.047C400.517 182.873 400.563 176.711 400.574 173.842C400.579 172.362 400.258 168.867 401.235 167.903C401.505 172.796 401.305 181.133 404.94 184.807C406.887 186.777 426.205 186.217 429.639 185.96C431.209 185.843 433.603 185.75 434.816 184.646C435.293 184.212 435.662 183.516 435.992 182.968Z" fill="#BBB9E0"/>
<path d="M433.582 52.3529L498.299 52.2871C491.897 53.4985 485.02 52.3325 478.474 53.179L482.807 53.4763C475.861 54.1894 447.458 54.3459 441.081 53.1382C445.172 53.1577 456.095 54.0153 459.431 52.84L458.792 52.953C455.374 51.1804 439.427 54.0283 433.582 52.3529Z" fill="#BBB9E0"/>
<path d="M596.249 59.521C596.791 58.0743 597.339 56.7213 598.082 55.3663C599.492 54.542 599.881 54.706 601.468 54.8088C600.649 56.2387 599.872 57.4798 599.578 59.1163C598.09 63.583 597.995 67.9026 597.051 72.4277L591.596 70.9616C593.264 67.1968 594.74 63.3515 596.249 59.521Z" fill="#9496AF"/>
<path d="M389.316 166.553C389.478 166.738 389.638 166.925 389.802 167.109C390.355 167.727 390.947 168.12 391.607 168.612C392.316 169.142 392.88 169.853 393.449 170.526L394.52 170.816C394.591 170.608 394.66 170.401 394.733 170.195C395.036 169.338 394.892 169.673 395.307 168.908C395.619 170.288 394.827 183.39 394.336 184.225C393.834 185.079 393.086 185.563 392.12 185.705C391.497 185.797 390.744 185.741 390.125 185.732C390.666 185.395 391.144 184.994 391.644 184.6C392.336 181.722 390.442 181.488 389.779 179.128C389.711 178.89 389.654 178.649 389.592 178.409C389.096 176.123 388.852 172.514 387.188 170.76C386.142 169.656 384.79 169.753 383.387 169.721C384.18 169.276 385.977 169.396 386.973 169.223L387.387 169.226C388.536 168.539 388.719 167.714 389.316 166.553Z" fill="url(#paint0_linear_25_119)"/>
<path d="M448.686 108.94C448.1 106.269 447.335 102.624 448.909 100.109C449.548 99.0893 450.424 98.6753 451.579 98.504C453.271 98.253 455.353 99.2199 456.597 100.306C458.079 101.602 459.078 103.304 459.047 105.316C459.033 106.214 458.717 107.095 458.432 107.938C457.703 108.571 457.138 108.881 456.235 109.22C453.986 108.686 451.05 109.023 448.686 108.94Z" fill="#92E7E8"/>
<path d="M344.863 179.318L345.158 179.317C347.2 180.65 363.869 219.172 366.244 224.07C368.066 227.829 371.124 231.019 372.505 234.977L371.092 234.482C360.79 222.952 351.19 194.366 344.863 179.318Z" fill="#BBB9E0"/>
<path d="M448.686 108.941C451.05 109.024 453.986 108.687 456.235 109.221C456.164 109.842 456.117 109.493 456.653 110.19L459.022 110.145C460.806 111.82 460.849 118.843 461.117 121.444H450.257C449.37 117.322 448.846 113.155 448.686 108.941Z" fill="#7E89D0"/>
<path d="M503.783 157.256C537.261 155.581 570.838 156.864 604.351 157.247C611.771 157.332 619.269 157.48 626.684 157.22C631.835 157.041 636.998 156.368 642.152 156.569C639.142 156.956 636.065 157.023 633.035 157.181C633.477 157.826 634.491 157.945 635.232 158.187C632.438 159.234 622.792 158.321 619.119 158.315L542.138 157.73C532.274 157.69 517.038 156.529 507.747 158.353C506.571 158.585 505.292 158.458 504.1 158.4C499.537 158.824 494.894 158.797 490.312 158.922C489.772 160.611 489.183 163.101 487.804 164.228C487.157 162.348 488.021 159.315 488.291 157.375C493.454 157.237 498.618 157.197 503.783 157.256Z" fill="#BBB9E0"/>
<path d="M121.929 147.073C127.829 145.995 139.377 148.164 145.952 148.252C149.297 148.298 150.917 148.054 153.423 145.661L152.494 148.309C158.237 148.315 164.294 147.939 169.999 148.459C172.263 150.542 202.026 149.673 208.048 149.683C201.526 150.403 192.118 150.673 185.598 149.82L185.834 150.564L185.266 150.535L185.257 150.165C185.123 151.12 185.187 151.501 185.397 152.415L186.559 152.774L186.503 153.209L184.834 153C184.537 152.081 184.527 151.412 184.473 150.449L183.992 150.557L183.504 152.47C181.481 154.305 170.716 153.18 167.529 153.239C164.243 154.129 155.912 153.369 153.782 154.628C153.466 154.814 153.375 155.237 153.172 155.543C151.812 154.231 150.943 153.667 149.076 153.31C149.883 152.105 150.253 151.606 150.232 150.095C144.669 147.551 124.814 150.153 121.929 147.073Z" fill="#7E89D0"/>
<path d="M149.076 153.31C155.227 153.24 161.378 153.216 167.529 153.239C164.242 154.129 155.912 153.369 153.782 154.628C153.466 154.814 153.375 155.237 153.172 155.543C151.812 154.23 150.943 153.666 149.076 153.31Z" fill="#A8B6D9"/>
<path d="M601.468 54.8086C603.13 55.9237 604.401 56.058 606.367 56.032C608.305 56.3052 610.19 56.6303 612.094 57.086L614.714 57.8352C612.667 62.954 611.381 69.8501 607.859 74.0789C607.707 74.2613 607.566 74.453 607.418 74.6382L607.145 74.9763L606.303 74.5586C603.204 74.1252 600.092 73.1805 597.052 72.4275C597.995 67.9024 598.091 63.5829 599.578 59.1161C599.873 57.4796 600.65 56.2386 601.468 54.8086Z" fill="#C0BCE2"/>
<path d="M606.259 56.5713C607.435 57.1038 607.918 57.0825 608.467 58.2856C607.835 61.9531 605.384 65.1622 603.709 68.4435C603.084 67.046 602.414 65.7401 601.622 64.4296C602.873 61.4984 603.966 58.8524 606.259 56.5713Z" fill="#7E89D0"/>
<path d="M381.411 127.425C380.765 125.603 380.885 124.042 380.994 122.137C381.161 122.215 381.322 122.309 381.497 122.369C382.894 122.845 429.228 123.274 435.012 123.513C437.617 123.62 441.653 123.06 444.054 123.943C444.026 124.153 443.97 124.36 443.971 124.572C443.972 124.759 444.031 124.941 444.057 125.126C444.216 126.185 444.118 125.175 444.006 126.388C443.984 126.614 444.008 126.842 444.01 127.068C439.777 127.655 435.334 127.313 431.06 127.441C419.324 127.777 407.587 127.867 395.848 127.709C391.252 127.655 386.274 127.994 381.742 127.318L381.411 127.425Z" fill="#7E89D0"/>
<path d="M600.697 180.45C607.654 178.961 616.888 179.552 623.895 180.737C625.955 183.504 626.165 186.22 625.743 189.587C625.368 192.587 624.016 196.019 621.498 197.832C621.045 198.158 620.572 198.431 620.075 198.681C612.746 197.535 601.498 200.428 594.969 197.454C593.477 195.782 593.661 192.351 593.508 190.161C593.666 188.719 593.728 187.811 594.698 186.645L594.431 187.628C596.416 184.917 597.194 182.915 600.115 180.987L600.697 180.45Z" fill="#7E89D0"/>
<path d="M599.48 182.921C605.78 182.253 615.06 182.109 621.319 182.995C622.479 184.877 621.668 187.584 621.165 189.642C620.777 191.231 620.211 192.828 619.501 194.301C612.725 194.661 604.311 195.768 597.781 193.987C596.658 189.429 597.765 187.096 599.48 182.921Z" fill="#CCF4F4"/>
<path d="M358.554 166.492C368.786 166.403 379.088 166.292 389.316 166.552C388.719 167.714 388.536 168.539 387.387 169.225L386.973 169.222C385.977 169.396 384.18 169.275 383.387 169.721C384.79 169.753 386.142 169.656 387.188 170.76C388.852 172.514 389.096 176.122 389.592 178.409C389.654 178.649 389.711 178.889 389.779 179.128C390.442 181.487 392.336 181.722 391.644 184.599C391.144 184.994 390.666 185.395 390.125 185.732C385.061 185.551 369.497 187.344 365.755 185.711C365.105 185.427 363.702 184.63 363.269 184.065C361.899 182.278 360.369 175.604 359.509 173.134C358.845 177.498 360.961 182.033 362.306 186.149C361.905 185.841 361.847 185.48 361.648 185.012C360.102 181.382 356.127 170.412 357.602 166.769L358.554 166.492Z" fill="#7E89D0"/>
<path d="M383.387 169.721C384.789 169.753 386.142 169.656 387.188 170.76C388.851 172.514 389.096 176.122 389.591 178.409C389.419 179.401 389.217 179.858 388.594 180.648C384.131 182.828 371.571 181.715 366.229 181.672C364.702 177.848 363.609 173.87 362.444 169.924C369.426 169.893 376.407 169.826 383.387 169.721Z" fill="#CCF4F4"/>
<path d="M478.626 166.692C479.52 167.884 479.21 168.81 479 170.244C478.347 174.704 477.801 179.461 475.843 183.568C472.775 185.411 469.957 186.538 466.299 185.921C461.526 186.058 456.469 186.511 451.723 185.986C448.95 185.68 447.998 185.441 446.266 183.3C445.96 182.591 445.646 181.898 445.482 181.139C444.744 177.728 444.453 171.338 446.537 168.489C447.415 167.291 448.598 167.16 449.959 166.891C459.377 167.569 469.11 166.269 478.626 166.692Z" fill="#7E89D0"/>
<path d="M449.532 170.189C455.917 168.773 468.04 169.84 475.061 169.935C473.811 173.84 472.695 177.859 471.201 181.674L449.604 181.772L449.295 175.752C449.586 173.914 449.521 172.045 449.532 170.189Z" fill="#92E7E8"/>
<path d="M259.948 177.736C266.594 176.248 274.245 176.546 281.02 177.026C284.464 179.258 287.391 181.85 288.25 186.068C288.791 188.725 288.557 191.852 287.009 194.149C285.361 196.597 282.48 197.685 279.673 198.129C274.875 198.886 269.505 198.651 264.67 198.43C264.31 198.442 263.95 198.43 263.592 198.395C263.233 198.361 262.878 198.303 262.528 198.221C262.177 198.14 261.833 198.035 261.496 197.908C261.159 197.782 260.831 197.633 260.513 197.464C257.235 195.684 255.74 191.859 254.742 188.483C254.173 186.937 254.488 185.076 255.122 183.544C256.096 181.193 258.078 179.373 259.948 177.736Z" fill="#7E89D0"/>
<path d="M263.013 181.646L264.891 181.868C264.216 182.627 263.584 183.431 262.778 184.053C261.626 184.82 260.741 185.357 260.309 186.771C260.056 187.602 260.042 188.614 259.958 189.479L259.899 190.023C259.672 189.808 259.411 189.622 259.217 189.376C258.419 188.362 258.303 186.58 258.788 185.421C259.604 183.464 261.203 182.54 263.013 181.646Z" fill="#92E7E8"/>
<path d="M261.104 191.395C266.83 191.467 276.444 190.258 281.502 192.809C280.439 193.432 279.698 193.61 278.509 193.813C272.96 193.54 265.648 195.171 261.104 191.395Z" fill="#92E7E8"/>
<path d="M264.891 181.868C268.306 180.391 275.946 181.217 279.891 181.46C281.716 182.971 283.081 184.457 283.211 186.943C283.318 188.983 282.542 191.083 281.501 192.808C276.444 190.258 266.829 191.467 261.104 191.395L259.899 190.023L259.958 189.479C260.042 188.614 260.056 187.602 260.309 186.771C260.741 185.357 261.626 184.82 262.778 184.053C263.584 183.431 264.216 182.627 264.891 181.868Z" fill="#9DDBD8"/>
<path d="M264.891 181.868C268.306 180.391 275.947 181.217 279.891 181.46L277.838 182.552L278.986 182.874L279.436 183.961C277.372 185.533 266.735 184.587 263.794 184.197C263.455 184.151 263.116 184.103 262.778 184.053C263.585 183.431 264.216 182.627 264.891 181.868Z" fill="#CCF4F4"/>
<path d="M554.593 177.422C565.01 177.316 570.881 176.924 580.738 181.213C581.928 182.906 582.06 184.57 581.752 186.58C581.254 189.816 579.183 194.926 576.318 196.785C575.337 197.421 573.958 197.753 572.81 197.906C566.624 198.863 556.386 199.651 550.3 198.687C548.452 198.394 547.033 197.801 545.944 196.213C545.558 194.802 545.889 193.843 546.267 192.488L546.981 193.494L547.631 193.035C546.744 188.694 549.528 184.219 551.889 180.716C552.686 179.533 553.626 178.466 554.593 177.422Z" fill="#7E89D0"/>
<path d="M554.414 182.628C558.38 182.628 573.068 181.859 576.117 183.068L576.731 183.757C571.319 185.492 561.05 185.255 555.204 185.082C553.979 186.83 554.137 187.928 554.229 190.002C554.289 191.338 554.242 192.067 553.69 193.275L552.736 194.011C551.648 192.627 551.058 191.444 551.091 189.665C551.139 186.936 552.539 184.526 554.414 182.628Z" fill="#9DDBD8"/>
<path d="M555.204 185.082C561.05 185.255 571.319 185.492 576.731 183.757C576.224 187.504 575.391 190.314 573.471 193.635C566.666 194.182 559.568 194.135 552.736 194.011L553.69 193.275C554.242 192.067 554.289 191.338 554.229 190.002C554.137 187.928 553.979 186.831 555.204 185.082Z" fill="#CCF4F4"/>
<path d="M557.505 185.731C558.249 185.666 559.288 185.475 560.012 185.614C561.374 185.876 561.541 186.752 562.122 187.835C561.067 187.933 560.051 187.888 558.994 187.85C557.95 187.134 557.955 186.936 557.505 185.731Z" fill="#92E7E8"/>
<path d="M407.776 167.069C411.839 165.854 430.464 165.748 434.25 167.325C435.492 168.212 436.047 168.86 436.341 170.393C437.091 174.311 436.315 179.021 435.992 182.969C435.662 183.517 435.293 184.212 434.816 184.647C433.603 185.751 431.209 185.843 429.639 185.961C426.205 186.217 406.887 186.778 404.94 184.808C401.305 181.134 401.505 172.797 401.235 167.904C403.395 167.297 405.302 167.526 407.512 167.676L407.776 167.069Z" fill="#7E89D0"/>
<path d="M408.311 180.067L407.845 175.852C407.64 174.091 407.525 173.007 408.084 171.3C409.26 170.091 409.855 170.336 411.496 170.211C411.61 174.202 410.756 176.901 408.311 180.067Z" fill="#CCF4F4"/>
<path d="M411.496 170.211C414.794 170.244 425.623 169.504 427.609 169.907C428.636 170.115 429.152 170.434 429.986 171.023C431.975 174.031 431.241 177.936 430.917 181.363C426.488 181.804 412.06 182.824 408.573 181.298L408.311 180.067C410.756 176.902 411.61 174.202 411.496 170.211Z" fill="#92E7E8"/>
<path d="M520.161 176.971C528.216 176.264 530.473 179.956 535.603 180.145C537.471 180.213 539.609 179.666 541.451 179.332C541.748 185.991 540.383 192.381 537.939 198.552L531.587 198.646C526.221 198.697 513.528 199.845 509.172 197.46C508.105 196.875 507.707 195.723 507.444 194.592C506.581 190.874 507.046 182.703 509.392 179.622C511.446 176.926 517.074 177.21 520.161 176.971Z" fill="#7E89D0"/>
<path d="M512.445 184.049C513.035 183.206 513.378 182.7 514.409 182.428C516.255 181.942 532.205 181.568 533.773 182.075C534.164 182.2 534.466 182.518 534.813 182.739C534.52 182.969 534.289 183.316 533.935 183.429C533.637 183.524 514.942 184.645 514.171 184.571C513.487 184.507 513.034 184.355 512.445 184.049Z" fill="#9DDBD8"/>
<path d="M534.813 182.74C535.772 186.291 534.689 190.407 534.047 193.953C528.749 194.05 515.484 195.332 511.146 192.951C510.143 189.861 511.272 186.952 512.445 184.05C513.034 184.355 513.486 184.508 514.171 184.572C514.942 184.645 533.637 183.525 533.935 183.43C534.289 183.317 534.52 182.97 534.813 182.74Z" fill="#CCF4F4"/>
<path d="M210.938 177.389C217.363 176.636 232.456 174.803 237.922 177.481C241.748 179.357 242.822 181.997 244.202 185.751C243.278 189.259 242.423 194.355 239.149 196.455C237.879 197.269 236.44 197.686 234.994 198.056C229.061 198.423 220.903 199.359 215.325 196.94C212.47 195.702 210.177 193.373 209.175 190.403C207.732 186.121 208.966 181.279 210.938 177.389Z" fill="#7E89D0"/>
<path d="M216.152 181.398C220.468 179.793 231.578 179.666 235.677 181.498C237.379 183.566 238.867 185.575 238.675 188.394C238.571 189.925 237.984 191.228 236.779 192.195C233.261 195.019 223.044 194.298 218.799 193.601C216.948 193.297 215.66 192.502 214.604 190.948C213.378 189.145 213.119 186.782 213.565 184.683C213.929 182.974 214.727 182.291 216.152 181.398Z" fill="#9DDBD8"/>
<path d="M216.152 181.398C220.468 179.793 231.578 179.666 235.677 181.498C235.477 181.71 235.3 181.948 235.077 182.135C233.429 183.52 218.941 182.927 216.443 182.387L216.152 181.398Z" fill="#92E7E8"/>
<path d="M295.27 193.871C294.803 189.269 293.828 183.515 296.985 179.581C299.47 176.483 304.402 175.373 308.187 175.024C313.139 174.568 320.208 174.991 324.163 178.224C327.11 181.187 329.983 184.482 330.052 188.917C330.091 191.519 328.741 195.542 327.107 197.544C325.991 198.912 324.009 198.817 322.391 198.784C318.705 198.708 315.038 198.638 311.352 198.636C308.636 199.455 304.903 199.596 302.132 198.886C301.98 198.847 301.835 198.786 301.685 198.746C299.062 198.024 297.163 195.722 295.27 193.871Z" fill="#7E89D0"/>
<path d="M301.055 183.813C303.295 181.462 305.319 181.331 308.439 181.25C312.925 181.132 317.482 181.373 321.975 181.442C322.964 182.693 324.069 183.937 324.842 185.331C318.443 186.095 311.887 185.233 305.471 185.709C303.392 185.501 302.676 185.136 301.055 183.813Z" fill="#CCF4F4"/>
<path d="M301.055 183.812C302.676 185.135 303.392 185.5 305.471 185.708C311.887 185.232 318.443 186.095 324.842 185.33C325.468 186.621 326.026 187.594 325.573 189.064C325.352 189.785 324.952 190.508 324.613 191.181C323.479 192.756 322.706 193.404 320.752 193.706C315.622 194.504 308.704 194.437 303.737 193.073C303.168 192.713 302.453 192.314 301.988 191.827C299.97 189.718 300.781 186.418 301.055 183.812Z" fill="#CCF4F4"/>
<path d="M301.055 183.812C302.676 185.135 303.392 185.5 305.471 185.708L305.774 186.188C306.493 187.784 307.19 188.246 308.607 189.239C309.231 189.675 309.653 190.101 310.114 190.704L309.634 190.711C308.087 190.719 306.946 190.545 305.467 190.098C304.685 190.412 304.567 190.252 304.226 191.091C303.942 191.79 303.83 192.335 303.737 193.073C303.168 192.713 302.453 192.314 301.988 191.827C299.97 189.718 300.781 186.418 301.055 183.812Z" fill="#92E7E8"/>
<path d="M324.842 185.331C325.468 186.621 326.026 187.595 325.573 189.064C325.352 189.786 324.952 190.508 324.613 191.181C322.09 190.406 319.405 190.586 316.793 190.6L313.435 190.695L313.629 187.602C312.729 186.441 312.116 186.484 310.731 186.09L305.774 186.189L305.471 185.709C311.888 185.233 318.443 186.095 324.842 185.331Z" fill="#9DDBD8"/>
<path d="M296.833 60.3751L297.176 59.8731L296.879 59.5073C295.97 58.3616 294.599 56.6631 294.642 55.1174C294.657 54.5339 294.786 54.6459 295.308 54.2208C315.549 53.278 335.5 53.8587 355.736 54.0745C373.857 54.2672 391.954 54.0291 410.07 54.6608C410.023 56.8891 409.87 59.1674 409.945 61.3929C381.939 61.6244 353.933 61.6241 325.927 61.392C319.549 61.3651 301.613 59.9046 296.648 61.3966L296.833 60.3751Z" fill="#7E89D0"/>
<path d="M369.093 44.7258C383.16 45.5056 397.629 44.8703 411.745 44.9267C418.397 44.9536 426.507 44.0099 432.872 46.0678C434.844 46.705 436.575 47.1995 438.671 47.1523L439.124 46.8809C437.678 46.4827 435.957 46.1826 434.67 45.4343L440.482 45.4917V51.0578C433.403 51.0782 426.313 51.6079 419.223 51.7172C412.009 51.8284 404.599 51.4496 397.433 52.1331C387.105 51.8163 376.731 52.7314 366.416 52.1488L315.717 52.7165C309.425 52.7925 302.039 53.8427 295.875 53.124C294.837 53.0036 295.255 53.2139 294.583 52.3554L294.26 45.8149C310.466 45.8409 326.661 45.1324 342.866 45.2083C350.936 44.0469 360.817 44.7915 369.093 44.7258Z" fill="#C0BCE2"/>
<path d="M294.26 45.8135C310.466 45.8394 326.661 45.1309 342.866 45.2069L343.435 45.2597C348.353 45.6755 353.362 45.5153 358.297 45.5282C349.556 46.1117 340.597 45.7088 331.828 45.7422L332.321 46.0358C334.867 47.5732 337.311 50.0163 339.95 51.2296C344.422 53.2865 359.834 50.7285 366.416 52.1474L315.717 52.7151C309.425 52.7911 302.039 53.8413 295.875 53.1226C294.837 53.0022 295.255 53.2125 294.583 52.3539L294.26 45.8135Z" fill="#CAD5FF"/>
<path d="M503.703 114.019C503.921 112.634 503.876 111.774 504.766 110.668C512.758 108.33 546.582 109.49 556.791 109.46L586.503 109.394C592.484 109.387 598.594 109.157 604.558 109.642C606.157 109.772 607.657 110.643 609.075 111.335C609.956 111.276 610.51 111.068 611.307 110.691C612.214 111.433 612.743 111.918 612.903 113.133C613.078 114.453 612.487 115.938 612.017 117.134L610.548 118.42C603.599 119.26 590.364 118.411 584.628 120.343C574.594 120.349 564.562 119.463 554.514 119.501L522.884 119.654C519.131 119.637 514.318 120.1 510.649 119.438C509.071 119.155 508.588 117.953 507.661 116.755C505.763 116.183 504.708 115.813 503.703 114.019Z" fill="#BBB9E0"/>
<path d="M380.993 122.137L382.547 121.079C384.028 118.207 383.727 113.292 383.881 110.125C384.09 105.804 383.878 98.8918 387.517 95.8245C391.296 92.6394 400.781 93.999 405.455 94.3121C406.374 95.4234 407.481 95.2141 408.868 95.3994C414.219 95.7392 422.187 97.1868 427.19 96.1819C428.702 96.2597 431.035 96.0264 432.175 96.9627C432.895 99.78 433.292 102.587 433.873 105.429C433.107 106.14 433.515 105.833 432.659 106.357L432.805 106.871C435.4 108.095 435.713 109.379 436.647 111.937C437.696 114.81 438.781 118.073 437.441 120.998C435.582 122.164 424.764 122.254 422.302 121.742C422.156 121.711 422.015 121.66 421.871 121.618L400.066 121.656L397.218 121.183C394.141 121.152 391.065 121.1 387.989 121.027L384.381 121.155L380.993 122.137Z" fill="#7E89D0"/>
<path d="M416.782 116.157L415.963 116.222C415.206 114.872 414.986 113.492 415.195 111.959C415.41 110.367 416.284 109.106 417.545 108.146C421.435 105.182 428.057 105.683 432.659 106.356L432.804 106.871C433.838 110.104 436.039 116.172 434.458 119.446C434.081 120.225 433.812 120.186 433.077 120.55C432.133 120.405 431.556 120.343 430.71 119.874C430.85 119.214 431.019 118.84 431.399 118.278C432.101 117.243 432.794 116.381 432.918 115.096C433.105 113.16 432.679 111.077 431.288 109.648C430.012 108.336 427.937 107.735 426.144 107.728C422.847 107.716 420.414 108.375 418.06 110.634L416.995 110.941C416.245 112.692 416.226 114.324 416.782 116.157Z" fill="#8BB2BA"/>
<path d="M384.381 121.155C384.403 116.379 384.752 111.503 385.179 106.746C385.485 103.328 385.869 99.1243 388.785 96.8571C391.503 94.7455 394.792 95.617 397.919 96.0652C395.474 96.4755 391.457 96.4801 389.89 98.6797C389.371 99.4086 389.349 100.385 389.331 101.264L389.419 101.68L388.803 104.061C388.602 106.08 388.424 108.027 388.48 110.061C387.99 112.122 388.063 114.197 388.042 116.303L387.988 121.027L384.381 121.155Z" fill="#C0BCE2"/>
<path d="M388.48 110.061L391.97 110.025C392.552 110.544 393.234 111.003 393.583 111.709C395.283 111.801 397.872 111.541 399.382 112.287C398.648 115.092 398.262 118.174 397.321 120.887L397.218 121.183C394.141 121.151 391.065 121.099 387.989 121.026L388.042 116.303C388.063 114.197 387.99 112.121 388.48 110.061Z" fill="#C9E3EF"/>
<path d="M388.48 110.061L391.97 110.025C392.552 110.544 393.234 111.003 393.583 111.709C393.204 112.52 393 112.675 393.101 113.594C392.787 114.593 392.473 115.558 392.065 116.525L390.111 116.673C389.757 115.694 389.59 114.474 388.716 113.892C388.475 114.693 388.244 115.491 388.042 116.303C388.063 114.197 387.99 112.121 388.48 110.061Z" fill="#8FB1D5"/>
<path d="M393.583 111.709C395.283 111.801 397.872 111.54 399.382 112.287C398.647 115.092 398.262 118.173 397.321 120.887C395.802 120.711 395.062 120.779 393.812 119.862C392.734 118.03 393.077 115.664 393.101 113.594C393 112.675 393.204 112.52 393.583 111.709Z" fill="#71BBC5"/>
<path d="M418.06 110.634C420.415 108.375 422.847 107.716 426.144 107.728C427.937 107.734 430.012 108.335 431.288 109.648C432.679 111.077 433.106 113.16 432.918 115.096C432.794 116.381 432.101 117.243 431.4 118.277C431.019 118.84 430.85 119.214 430.71 119.874C428.278 119.948 425.708 120.16 423.287 119.93C421.474 119.757 419.45 119.093 418.437 117.473C417.172 115.45 417.597 112.822 418.06 110.634Z" fill="#92E7E8"/>
<path d="M398.244 95.9229C400.104 96.4452 402.159 96.8055 403.177 98.6485C404.531 101.099 403.31 105.67 402.415 108.209C401.768 109.342 401.617 110.117 400.381 110.654L399.382 112.287C397.872 111.54 395.283 111.801 393.583 111.709C393.234 111.003 392.552 110.544 391.97 110.025L388.48 110.06C388.424 108.027 388.602 106.079 388.804 104.06L389.419 101.68L389.331 101.263C389.349 100.384 389.371 99.4079 389.89 98.6791C391.457 96.4795 395.475 96.4748 397.919 96.0646L398.244 95.9229Z" fill="#8BB2BA"/>
<path d="M391.97 110.026C394.361 110.061 398.227 109.701 400.381 110.654L399.382 112.287C397.872 111.541 395.283 111.801 393.583 111.709C393.234 111.004 392.552 110.544 391.97 110.026Z" fill="#C9E3EF"/>
<path d="M389.419 101.68C390.255 102.244 390.573 102.426 391.089 103.323C394.518 106.552 396.701 104.601 400.329 105.932C400.087 107.363 400.191 107.852 399.125 108.882C396.487 109.733 393.732 108.909 390.992 109.364C389.928 109.173 389.759 109.187 388.991 108.45C388.716 106.97 388.766 105.559 388.804 104.06L389.419 101.68Z" fill="#9DDBD8"/>
<path d="M389.331 101.263C390.924 99.3357 392.066 98.6485 394.577 98.4021C396.212 98.241 397.636 98.6485 398.888 99.7265C399.788 100.502 400.389 101.408 400.467 102.617C400.539 103.693 400.4 104.854 400.329 105.932C396.701 104.601 394.518 106.552 391.089 103.323C390.573 102.426 390.255 102.244 389.419 101.68L389.331 101.263Z" fill="#CCF4F4"/>
<path d="M373.507 209.093C373.101 208.067 372.876 207.285 372.805 206.182C375.92 204.801 406.569 205.347 412.122 205.558L471.836 205.889C471.249 209.34 469.624 224.156 467.774 226.062C457.569 226.101 447.373 226.562 437.157 226.549C431.007 226.54 424.86 225.988 418.713 226.102C406.594 226.326 393.898 227.585 381.857 225.871C380.475 225.972 379.539 226.101 378.274 225.398C375.482 222.25 374.71 213.407 373.507 209.093Z" fill="#BBB9E0"/>
<path d="M374.72 208.161L375.042 207.319C380.667 206.231 395.959 207.107 402.509 207.1C402.599 212.586 402.773 218.084 402.704 223.57C397.081 223.52 391.405 223.205 385.902 224.558C384.104 223.535 381.226 224.615 379.254 223.542C376.541 219.582 375.797 212.826 374.72 208.161Z" fill="#322B59"/>
<path d="M419.239 206.527C420.727 206.572 421.636 206.392 422.904 207.207C423.964 212.019 422.412 217.979 423.967 222.419L424.309 222.617L424.452 221.49L423.987 221.482L423.921 221.118L424.475 220.946L423.822 206.799C427.294 206.803 431.856 206.236 435.167 207.178C435.549 208.167 435.453 207.676 435.5 208.641L434.859 207.986L435.709 208.485C436.562 207.272 437.738 207.282 439.185 207.051C447.233 205.772 461.449 207.078 470.457 206.855C469.084 212.924 468.069 219.053 467.412 225.242C463.174 225.352 456.373 226.345 452.548 224.55C451.612 223.319 451.755 223.064 451.754 221.57L451.233 221.452C451.284 222.648 451.495 223.82 450.846 224.884C446.566 226.184 440.46 225.127 435.983 224.979C432.32 224.857 428.657 225.045 424.991 224.918C419.223 224.715 413.731 224.118 407.928 224.373C407.772 221.507 408.244 209.715 406.826 207.933C404.715 210.422 407.714 220.538 406.419 223.975C405.325 224.242 405.336 224.351 404.373 223.8C405.656 220.173 404.254 211.403 404.355 207.139C409.063 206.894 414.785 207.943 419.239 206.527Z" fill="#322B59"/>
<path d="M455.364 207.963C455.5 208.015 455.657 208.026 455.77 208.117C456.821 208.961 457.042 214.699 457.098 216.293C456.471 216.022 456.011 215.666 455.461 215.265C454.072 212.657 454.679 210.74 455.364 207.963Z" fill="#BBB9E0"/>
<path d="M376.691 83.2961C380.864 83.2674 385.547 82.809 389.637 83.5916C387.376 83.6314 383.462 83.1665 381.569 84.163L382.656 85.2642L385.646 85.1882C385.634 85.4151 385.615 85.642 385.612 85.8699C385.602 86.8423 385.776 87.499 386.031 88.4223L385.769 89.0141C388.807 89.4337 391.608 88.7141 394.635 88.815C400.3 89.0049 405.947 89.8106 411.609 90.1079L411.13 91.2813C419.573 92.3742 458.921 88.5825 462.258 93.1466C462.919 94.0514 463.244 95.3388 463.608 96.3936C462.757 95.4342 461.879 94.332 460.861 93.5495C457.597 91.0368 434.134 91.9583 429.003 92.3612C421.357 92.6066 413.693 92.5307 406.044 92.5455L405.455 94.3117C400.781 93.9986 391.296 92.639 387.517 95.8241C383.878 98.8914 384.09 105.803 383.881 110.125C383.727 113.291 384.028 118.206 382.547 121.079L380.993 122.137C380.885 124.042 380.765 125.603 381.411 127.425L381.742 127.318C384.304 129.738 415.372 128.823 420.609 128.754C423.751 129.149 426.899 129.48 430.055 129.746C429.821 129.769 429.586 129.78 429.355 129.815C421.639 130.975 414.231 130.928 406.44 130.944C409.062 132.548 428.612 131.914 433.007 131.612C435.372 133.34 440.068 135.848 441.348 138.49L441.182 139.063C439.469 139.687 437.581 139.339 435.798 139.2L425.67 139.331C412.617 138.903 399.446 139.282 386.381 139.276C370.035 139.745 353.687 139.852 337.336 139.595C339.116 135.934 341.437 132.405 343.454 128.862C347.812 121.114 352.268 113.422 356.823 105.787C360.576 99.4481 363.874 92.6965 368.051 86.6414C371.229 86.0736 372.408 83.3628 376.691 83.2961Z" fill="#C0BCE2"/>
<path d="M380.47 90.3809C380.666 91.4144 380.632 92.4841 379.961 93.3853C379.093 94.5494 378.4 94.6078 377.078 94.931L376.478 94.6745C377.164 92.3786 378.567 91.6413 380.47 90.3809Z" fill="#C3BCDD"/>
<path d="M393.051 131.576C397.375 131.235 402.126 130.459 406.44 130.944C409.062 132.548 428.612 131.914 433.007 131.612C435.372 133.34 440.068 135.848 441.348 138.49L441.182 139.063C439.469 139.687 437.581 139.339 435.798 139.2C436.622 138.98 437.42 138.773 438.266 138.646C438.468 138.616 438.672 138.592 438.874 138.566L439.075 138.002L435.836 134.853C424.355 134.944 409.794 135.63 398.612 134.64C397.263 134.237 395.809 134.022 394.425 133.744L394.338 133.418L395.211 134.008L394.821 133.466C403.949 132.713 413.53 133.188 422.722 132.969C421.873 132.559 422.321 132.676 421.21 132.652C416.817 132.556 395.043 132.825 393.051 131.576Z" fill="#7E89D0"/>
<path d="M411.13 91.2812C419.573 92.3741 458.921 88.5825 462.258 93.1465C462.919 94.0513 463.244 95.3387 463.608 96.3936C462.757 95.4341 461.879 94.332 460.861 93.5494C457.596 91.0367 434.134 91.9583 429.003 92.3611C421.357 92.6066 413.693 92.5306 406.044 92.5454C400.671 92.4621 386.706 90.7783 382.893 94.3366C379.556 97.4512 378.294 113.059 377.507 117.971C377.152 119.933 376.992 122.375 375.888 124.055C376.147 119.073 379.153 95.9397 381.879 93.1974C385.14 89.917 405.778 91.1349 411.13 91.2812Z" fill="#BBB9E0"/>
<path d="M398.601 1.24043C406.722 0.909796 435.815 -0.483124 442.37 1.30711C446.184 2.34902 449.721 4.81163 453.092 6.84266C461.989 13.6739 468.213 20.9487 473.046 31.09L489.064 31.454C492.293 31.3975 495.737 31.2262 498.928 31.8133C502.946 31.8282 506.942 31.7661 510.931 32.3107C511.012 32.3209 511.093 32.3301 511.174 32.3403L513.082 37.5971C513.515 39.4012 514.014 41.097 514.691 42.8252C518.753 43.1382 522.821 43.3559 526.893 43.4781C520.024 45.1248 500.326 44.0236 492.212 43.8458C464.704 44.3039 437.194 44.5262 409.682 44.5126C403.174 44.5219 372.729 43.6217 369.092 44.7247C360.816 44.7904 350.936 44.0458 342.866 45.2072C326.661 45.1313 310.466 45.8398 294.26 45.8138L294.583 52.3543L294.369 53.6138C293.577 53.4953 293.855 53.6397 293.458 53.3776C293.262 50.5276 293.165 47.6745 293.169 44.8182C304.079 44.7923 315.012 44.3737 325.927 44.2144C326.365 43.4161 325.869 41.1507 325.774 40.1495C326.4 38.2843 327.207 35.4234 329.064 34.4186C335.302 31.0437 368.191 33.0053 372.343 30.2741C374.907 26.8529 376.36 22.5899 378.621 18.9603C380.416 16.08 383.397 13.3516 385.715 10.8325C389.862 7.4002 394.101 4.19853 398.601 1.24043Z" fill="#BBB9E0"/>
<path d="M489.064 31.455C492.293 31.3985 495.737 31.2271 498.928 31.8143C501.985 33.6601 506.637 32.8756 510.124 33.0386C510.65 34.9141 511.313 36.7923 511.361 38.7502L510.771 39.3892C503.353 38.2649 481.355 39.7828 476.516 37.7286C474.677 36.9488 473.805 33.787 473.085 32.0579C478.269 31.9495 483.983 32.4376 489.064 31.455Z" fill="#322B59"/>
<path d="M397.066 3.71893C400.5 1.28966 407.162 2.1093 411.228 2.0704L411.429 3.11324C410.788 3.81433 410.281 4.02642 409.435 4.38854C399.602 8.59879 393.48 17.2036 385.064 23.0077C384.465 23.4208 384.705 23.2207 384.199 23.7773L386.403 24.4655C384.15 26.2511 382.141 24.8128 379.519 25.499L377.339 25.1314C376.898 24.3201 376.904 24.195 377.138 23.3189C378.77 17.2175 391.651 6.65944 397.066 3.71893Z" fill="#CAD5FF"/>
<path d="M440.369 43.026C440.637 41.9711 440.696 40.932 440.791 39.8511C442.305 38.5407 500.775 39.5715 508.534 40.0049L509.837 40.6097C509.877 41.508 509.96 41.1691 509.799 41.6544C503.341 41.5775 496.801 42.2934 490.357 42.7259C480.166 42.9889 469.969 42.7778 459.778 43.0241C452.925 43.189 445.67 44.1948 438.849 43.5567C428.286 42.2628 415.973 44.9014 405.68 42.9741C406.944 42.8417 408.017 42.9963 408.995 42.1443L409.138 39.3686C414.936 39.4474 434.837 38.8565 439.489 40.0067L440.369 43.026Z" fill="#322B59"/>
<path d="M386.403 24.4657C393.512 22.2504 400.366 23.2275 407.667 23.5229L403.785 24.1249L402.287 24.5102C402.278 26.5292 402.357 28.5509 401.982 30.5412L397.287 30.4597C398.794 30.8394 400.293 31.2423 401.824 31.51L401.618 31.4961C401.586 33.604 401.465 35.7517 401.605 37.855C403.504 37.8402 405.954 37.4984 407.717 38.1736C398.68 38.1192 389.643 38.1476 380.606 38.2588L376.785 38.357C375.756 38.3884 374.73 38.356 373.701 38.3356C372.8 37.5317 372.689 37.328 372.477 36.0786C371.958 33.0214 374.348 28.763 376.074 26.3764L379.164 26.3032L379.519 25.4993C382.141 24.813 384.15 26.2513 386.403 24.4657Z" fill="#C0BCE2"/>
<path d="M390.772 25.8686L390.933 25.3425C393.263 23.6903 399.291 24.4738 402.287 24.5099C402.278 26.5289 402.357 28.5507 401.983 30.541L397.287 30.4595L390.387 30.4252C390.627 29.2379 390.636 28.1228 390.67 26.917L390.772 25.8686Z" fill="#9DDBD8"/>
<path d="M411.228 2.07101C416.905 0.926298 425.577 1.75704 431.587 1.75704C426.893 9.21805 422.424 17.131 416.216 23.4658C413.384 23.4686 410.493 23.3593 407.667 23.5233C400.366 23.2278 393.512 22.2507 386.403 24.4661L384.199 23.778C384.705 23.2213 384.465 23.4214 385.064 23.0083C393.48 17.2042 399.602 8.5994 409.435 4.38915C410.281 4.02703 410.788 3.81494 411.429 3.11385L411.228 2.07101Z" fill="#AEB0D0"/>
<path d="M327.863 37.7855C327.956 37.5873 328.041 37.3854 328.142 37.1909C328.745 36.0425 329.523 35.0922 330.832 34.7486C334.276 33.8419 369.921 31.6525 371.594 32.5815L371.702 36.123C371.59 37.1103 371.5 38.0327 371.549 39.0256C375.935 39.6368 380.618 39.2988 385.044 39.2923C393.076 39.267 401.107 39.2923 409.138 39.3682L408.995 42.1439C408.017 42.9959 406.944 42.8413 405.68 42.9737C395.079 42.669 383.539 43.5665 372.782 43.6461C357.253 43.7609 341.401 43.096 325.927 44.2148C326.365 43.4164 325.869 41.1511 325.774 40.1499L326.334 41.8494L326.667 41.8059C327.022 40.4444 327.414 39.1191 327.863 37.7855Z" fill="#C0BCE2"/>
<path d="M431.587 1.75726C436.119 1.74985 441.321 1.13304 445.261 3.76792C453.611 7.82165 462.16 14.3954 465.824 23.253C465.89 23.4123 465.937 23.58 465.993 23.7439L465.59 24.4255C464.8 24.3431 464.01 24.232 463.221 24.1514C462.47 24.0755 462.23 24.1255 461.59 24.4709C461.407 24.9108 461.156 25.3878 461.051 25.8518C461.835 26.8261 462.219 27.68 462.693 28.821C462.767 27.5466 462.614 27.3864 463.504 26.5038C465.167 26.4945 466.069 27.2197 467.243 28.3691C468.631 29.7286 471.795 32.9053 471.812 34.8446C471.821 36.056 471.757 36.5886 470.923 37.4638C460.681 38.765 449.731 38.1732 439.385 38.2278C428.911 38.2816 418.156 38.7946 407.717 38.1741C405.954 37.499 403.504 37.8407 401.605 37.8555C401.465 35.7523 401.586 33.6045 401.619 31.4966L401.824 31.5105C400.293 31.2429 398.794 30.84 397.287 30.4603L401.983 30.5418C402.357 28.5515 402.278 26.5297 402.287 24.5107L403.785 24.1255L407.667 23.5235C410.493 23.3595 413.384 23.4688 416.217 23.4661C422.424 17.1312 426.893 9.21827 431.587 1.75726Z" fill="#322B59"/>
<path d="M418.527 29.5456C418.679 29.3715 418.879 29.2289 418.984 29.0233C419.553 27.9082 419.842 26.3671 420.455 25.1316C422.073 23.9758 427.465 24.7389 429.577 24.7686L432.385 24.8778C432.224 26.8783 431.744 28.6222 431.142 30.531C428.057 30.5412 420.655 31.4637 418.527 29.5456Z" fill="#92E7E8"/>
<path d="M432.385 24.8789C437.204 24.9613 442.032 24.9586 446.828 25.4735L447.257 25.4105C447.628 26.684 448.228 27.9648 447.716 29.2605C446.868 29.8773 446.473 29.9449 445.43 29.9468C440.786 30.6321 435.834 30.7108 431.142 30.5321C431.744 28.6233 432.224 26.8794 432.385 24.8789Z" fill="#71BBC5"/>
<path d="M447.257 25.4111C447.628 26.6846 448.228 27.9654 447.716 29.2611C446.868 29.8779 446.472 29.9455 445.43 29.9474C444.14 29.3685 442.994 29.1824 441.767 28.3581L441.68 27.4866C443.06 26.3493 444.8 26.9161 446.247 25.9066C446.446 25.7686 446.635 25.6177 446.828 25.4741L447.257 25.4111Z" fill="#8BB2BA"/>
<path d="M431.587 1.75726C436.119 1.74985 441.321 1.13304 445.261 3.76792C446.36 5.16825 448.001 5.66003 448.625 6.80845C448.482 6.86958 448.332 6.91403 448.197 6.99183C443.667 9.60077 440.932 19.6494 436.628 23.7337C434.319 23.9893 431.793 24.069 429.577 24.7701C427.465 24.7404 422.073 23.9773 420.455 25.1331C419.841 26.3686 419.553 27.9097 418.984 29.0248C418.879 29.2304 418.679 29.373 418.527 29.5471L417.844 29.7212C414.762 31.5846 408.583 30.4714 404.969 30.5825L401.983 30.5418C402.357 28.5515 402.278 26.5297 402.287 24.5107L403.785 24.1255L407.667 23.5235C410.493 23.3595 413.384 23.4688 416.217 23.4661C422.424 17.1312 426.893 9.21827 431.587 1.75726Z" fill="#7E89D0"/>
<path d="M417.711 24.7881C418.158 26.2431 417.932 27.2303 417.636 28.6705C416.092 28.3408 414.5 28.1981 412.944 27.8897C411.799 26.8136 411.845 26.3505 411.503 24.8538C413.566 24.8372 415.653 24.89 417.711 24.7881Z" fill="#9DDBD8"/>
<path d="M405.183 24.8193L411.503 24.8545C411.845 26.3512 411.799 26.8142 412.944 27.8904C414.5 28.1988 416.092 28.3415 417.636 28.6712L417.844 29.7205C414.761 31.5839 408.583 30.4707 404.969 30.5818L405.183 24.8193Z" fill="#CCF4F4"/>
<path d="M201.721 52.4472C217.258 51.2191 233.248 50.8746 247.771 57.1363C249.974 60.5945 250.296 66.3236 250.476 70.3579C256.932 69.2882 263.323 67.5035 269.735 66.1689C278.68 64.3074 287.632 62.8348 296.648 61.3965C301.613 59.9045 319.549 61.365 325.927 61.3919C353.933 61.624 381.939 61.6243 409.945 61.3928L412.865 61.5289C430.606 61.2215 448.406 61.9253 466.145 62.2569C481.244 62.5394 496.394 62.4319 511.495 62.3569C516.274 62.3372 521.046 62.1424 525.811 61.7725C531.762 61.2631 540.219 58.6616 545.886 60.0351C544.349 60.3092 542.812 60.6223 541.261 60.789C543.543 61.9578 545.97 62.5755 548.347 63.4979C544.418 64.0675 540.832 65.1455 537.038 66.2652C524.607 70.0485 511.767 73.7235 499.125 76.6899C493.393 78.0643 487.652 79.3995 481.902 80.6955C478.949 81.3373 475.032 81.6031 472.331 82.858C471.374 85.2966 474.033 87.5008 473.357 89.2234C472.675 88.8242 472.539 88.5881 472.078 87.9092C470.969 86.2764 469.422 85.6235 467.604 85.0289L467.955 84.1074C468.512 84.0444 468.942 83.8592 469.463 83.661L469.473 83.1173C466.525 81.0113 464.661 80.514 461.04 80.7779C461.009 80.7649 460.98 80.7464 460.947 80.7381C459.912 80.4797 436.856 79.7008 436.37 79.8397C436.012 79.9416 435.732 80.2231 435.413 80.4149L430.685 81.6531C432.264 82.1069 433.833 82.5191 435.44 82.858L435.399 82.4996L435.865 82.9756C424.289 83.0664 412.669 82.8367 401.104 83.072C400.33 83.0877 399.705 83.3933 398.957 83.4961C396.821 83.7897 394.046 83.4609 391.878 83.4128C394.89 84.0972 397.81 84.1667 400.865 84.4779L400.529 84.4251L401.175 85.1484C401.065 85.1623 400.954 85.1743 400.844 85.1891C400.685 85.2104 400.528 85.2373 400.368 85.2577C397.397 85.6263 393.438 85.4151 390.734 84.1167C390.512 84.0102 390.287 83.9129 390.065 83.8064C389.921 83.7379 389.78 83.6628 389.637 83.5915C385.547 82.8089 380.864 83.2674 376.691 83.2961C372.408 83.3628 371.229 86.0736 368.051 86.6413L366.705 86.5506C365.531 85.7652 364.153 85.4225 362.821 84.9687C359.253 84.5844 355.298 83.2155 351.783 82.369C338.555 79.184 304.696 70.7283 294.711 62.8052C289.933 63.3118 283.323 63.4025 279.008 65.6225C274.097 68.1499 254.12 89.8532 251.366 89.9004C251.506 89.1928 251.681 88.8733 252.197 88.3593C255.228 85.3429 258.721 82.6941 261.919 79.8499C267.071 75.1877 272.14 70.4366 277.126 65.5966C270.8 66.8098 263.165 67.5452 257.298 70.143C251.195 72.8446 242.66 82.6867 237.392 87.5777C235.181 89.63 231.882 93.1632 229.171 94.433C229.448 92.9169 251.237 73.6031 254.33 70.3903C239.751 72.6464 225.463 76.9039 210.958 79.3646C193.285 84.1204 175.374 87.9722 157.689 92.6918L157.724 91.7064C174.579 87.0173 191.706 83.3535 208.634 78.9617C206.51 70.0504 204.38 61.2187 201.721 52.4472Z" fill="#BBB9E0"/>
<path d="M208.523 72.4288C210.226 71.5989 212.109 71.3526 213.833 70.6061C215.052 70.0782 215.287 69.7105 215.699 68.4834C215.966 71.1081 216.541 73.8069 217.351 76.3195L218.055 76.5075C215.395 77.6152 212.369 77.9958 209.548 78.5311L208.523 72.4288Z" fill="#ADB4C5"/>
<path d="M247.771 57.1367C249.974 60.5949 250.296 66.3241 250.476 70.3583C248.321 70.5473 246.228 71.0363 244.115 71.479L242.144 60.7598C243.819 59.5512 246.086 59.7021 247.316 58.1564L247.771 57.1367Z" fill="#7E89D0"/>
<path d="M484.247 63.3633C496.791 63.5957 509.343 63.2271 521.868 63.4874C516.686 65.0442 511.141 65.4897 505.806 66.3668C498.131 67.6979 490.464 69.0733 482.805 70.4927C482.362 69.8796 481.664 69.1341 481.421 68.4071C481.084 67.3948 480.962 66.0093 481.545 65.0507C482.302 63.8014 482.946 63.7097 484.247 63.3633Z" fill="#322B59"/>
<path d="M203.029 53.1623C213.055 52.5214 225.93 50.8497 235.511 54.1588L233.651 55.1711C231.407 54.157 229.155 54.195 226.83 55.0211C223.661 56.1473 220.88 59.3378 219.644 62.4052C219.118 63.7092 218.833 65.1503 218.529 66.5182L217.795 67.2684C217.774 66.3024 217.797 65.6523 217.508 64.7271C216.483 65.5291 216.147 67.2452 215.699 68.4826C215.287 69.7097 215.052 70.0774 213.833 70.6053C212.109 71.3518 210.227 71.5981 208.523 72.4279C206.992 65.9357 205.316 59.4332 203.029 53.1623Z" fill="#CAD5FF"/>
<path d="M235.511 54.1602C239.531 55.0113 243.691 56.169 247.316 58.1565C246.086 59.7022 243.819 59.5512 242.144 60.7599C241.793 60.0495 241.432 59.4679 240.925 58.8622C240.248 58.0527 240.661 58.2648 239.653 58.1805C240.347 59.2012 241.054 60.1968 241.612 61.3007C242.028 64.7478 242.583 68.1922 242.921 71.6457C236.807 73.1905 230.698 74.2343 224.478 75.2577L218.055 76.508L217.351 76.32C216.541 73.8074 215.966 71.1086 215.699 68.4839C216.147 67.2466 216.482 65.5304 217.508 64.7284C217.797 65.6536 217.774 66.3037 217.795 67.2697L218.529 66.5195C218.833 65.1516 219.117 63.7105 219.643 62.4065C220.88 59.3392 223.661 56.1486 226.83 55.0224C229.155 54.1963 231.407 54.1583 233.651 55.1724L235.511 54.1602Z" fill="#C0BCE2"/>
<path d="M218.529 66.5191C218.833 65.1512 219.117 63.7101 219.643 62.4061C220.88 59.3387 223.661 56.1482 226.83 55.022C229.155 54.1958 231.407 54.1579 233.651 55.172L232.564 55.7351C229.147 55.5536 226.057 55.9379 223.408 58.3126C223.148 58.5466 222.901 58.7932 222.666 59.0525C222.432 59.3112 222.211 59.5814 222.003 59.8629C221.796 60.1445 221.603 60.4359 221.425 60.7372C221.248 61.0379 221.085 61.3469 220.938 61.6643C220.792 61.9816 220.662 62.3055 220.547 62.6358C220.433 62.9667 220.336 63.3023 220.257 63.6425C220.176 63.9827 220.114 64.3263 220.069 64.6733C220.023 65.0197 219.995 65.3676 219.985 65.7171C219.95 67.2656 220.38 69.1947 221.507 70.3367C222.381 71.223 223.3 71.6194 224.553 71.5934C226.005 71.5629 227.41 70.821 228.596 70.0607C229.788 70.7238 230.989 70.7636 232.326 70.7294C233.767 70.6914 234.954 70.3431 235.916 69.2077C237.801 66.9831 237.397 64.9076 237.223 62.2153C236.633 60.9261 236.251 59.511 235.814 58.1597L236.672 57.9532L237.416 57.4892L239.653 58.1801C240.347 59.2007 241.054 60.1963 241.612 61.3003C242.028 64.7474 242.583 68.1917 242.921 71.6453C236.807 73.1901 230.698 74.2339 224.478 75.2573L218.055 76.5076L217.351 76.3196C216.541 73.8069 215.966 71.1081 215.699 68.4835C216.147 67.2461 216.482 65.53 217.508 64.728C217.797 65.6532 217.774 66.3033 217.795 67.2693L218.529 66.5191Z" fill="#7E89D0"/>
<path d="M236.673 57.9533L237.416 57.4893L239.653 58.1802C240.348 59.2008 241.054 60.1964 241.612 61.3003C239.932 62.2339 239.853 62.9387 239.21 64.6446C237.833 62.6377 237.335 60.2695 236.673 57.9533Z" fill="#CAD5FF"/>
<path d="M215.699 68.483C216.147 67.2457 216.482 65.5296 217.508 64.7275C217.797 65.6528 217.774 66.3029 217.795 67.2689L218.529 66.5187C219.61 68.8841 221.224 71.3189 221.436 73.9334C222.462 74.3381 223.533 74.6854 224.478 75.2568L218.055 76.5071L217.351 76.3191C216.541 73.8065 215.966 71.1077 215.699 68.483Z" fill="#C0BCE2"/>
<path d="M410.76 62.4581C435.218 61.9941 459.795 62.8054 484.247 63.3629C482.946 63.7093 482.302 63.801 481.545 65.0504C480.962 66.0089 481.084 67.3944 481.421 68.4067C481.664 69.1337 482.362 69.8793 482.805 70.4924C481.581 70.6313 480.247 70.6897 479.053 70.9684C473.745 71.4908 468.425 71.7013 463.092 71.6C460.191 71.575 457.342 71.663 454.447 71.8677C450.51 72.366 442.558 73.1217 438.889 71.8881C432.404 72.9096 424.904 72.1428 418.337 72.0196C420.97 71.3203 424.045 71.713 426.758 71.7593C429.119 71.7992 432.931 72.1965 434.682 70.2562C435.266 69.6098 435.046 69.4745 434.95 68.6947C430.697 64.4613 416.901 68.5669 411.251 66.0923C410.558 64.8281 410.753 63.8834 410.76 62.4581Z" fill="url(#paint1_linear_25_119)"/>
<path d="M453.283 69.5927C453.479 67.9719 453.37 66.9106 454.387 65.6075C455.571 65.288 456.405 64.9518 457.595 65.4686L458.451 67.3301C459.584 67.7395 460.643 67.959 461.822 68.1757L461.25 68.2155C459.892 68.3174 458.81 68.3887 457.559 68.9879C459.239 70.0724 461.996 70.1956 463.971 70.7735C463.308 71.5061 463.633 71.269 463.092 71.6006C460.191 71.5756 457.342 71.6635 454.447 71.8682C450.51 72.3665 442.558 73.1222 438.889 71.8886C437.706 71.2866 436.381 71.1393 435.085 70.8782L434.946 70.5448C435.886 70.0224 436.816 70.1725 437.855 70.2086L438.382 70.2299C437.521 69.9946 436.939 69.6001 436.204 69.1028L436.125 68.097L436.795 67.6061C438.528 67.8219 439.852 67.6413 441.558 67.3005L441.381 67.2857C443.326 66.7198 445.408 66.2521 447.444 66.4818C450.236 66.7967 451.644 67.4162 453.283 69.5927Z" fill="#322B59"/>
<path d="M310.082 61.8555C315.826 62.6871 321.69 62.4834 327.482 62.5112C355.236 62.2083 383.004 62.5362 410.761 62.4593C410.753 63.8846 410.558 64.8293 411.252 66.0935C416.901 68.5682 430.697 64.4626 434.951 68.696C435.046 69.4758 435.266 69.611 434.682 70.2574C432.932 72.1977 429.12 71.8004 426.758 71.7606C424.045 71.7143 420.971 71.3216 418.337 72.0208C415.398 72.1727 412.487 72.1709 409.545 72.1236C399.795 71.9013 389.72 72.7784 380.036 71.7115C370.609 71.9217 360.925 71.1364 351.511 70.5807C355.225 68.1708 366.752 71.7115 371.606 69.5675C370.088 68.909 368.341 69.209 366.724 69.3146C366.621 69.3193 366.516 69.322 366.411 69.3267C360.801 69.5915 355.51 68.6015 349.952 68.4987C338.986 67.8634 327.571 65.6721 316.716 63.9189C314.397 63.4595 312.285 62.6834 310.082 61.8555Z" fill="#C0BCE2"/>
<path d="M403.33 66.6399C405.531 66.5149 407.691 66.4908 409.895 66.5297C409.72 68.3922 409.495 70.25 409.545 72.1227C399.795 71.9004 389.719 72.7775 380.036 71.7106C382.413 71.4587 384.836 71.4429 387.225 71.3438C383.337 71.1558 379.516 71.0132 375.623 71.1947C376.477 70.777 377.437 70.6853 378.368 70.5103C377.464 70.2111 377.856 70.2769 376.861 70.2204C375.931 70.1676 375.995 70.0833 375.284 69.5573L375.291 68.6793L376.096 67.9106L376.775 68.1292C381.319 68.6172 406.115 68.7534 409.083 67.4809C407.851 66.5538 405.258 67.6309 403.699 66.8835C403.565 66.8196 403.452 66.7214 403.33 66.6399Z" fill="#7E89D0"/>
<path d="M327.482 62.5109C355.235 62.208 383.004 62.5359 410.76 62.459C410.753 63.8843 410.558 64.829 411.251 66.0932C416.901 68.5678 430.697 64.4623 434.95 68.6957C435.046 69.4755 435.266 69.6107 434.682 70.2571C432.931 72.1974 429.119 71.8001 426.758 71.7603C424.045 71.7139 420.97 71.3213 418.337 72.0205C415.398 72.1724 412.487 72.1705 409.544 72.1233C409.495 70.2507 409.72 68.3928 409.895 66.5303C407.691 66.4914 405.531 66.5155 403.33 66.6405C400.633 66.7563 397.988 66.2636 395.331 65.8644C399.586 63.9658 405.069 65.6616 409.307 63.8417C409.491 63.763 409.671 63.675 409.854 63.5917C409.835 63.6222 408.946 63.9251 408.9 63.9418L408.478 63.2546C395.503 62.3247 382.125 62.7767 369.105 62.9202C355.407 62.9267 341.097 63.7176 327.482 62.5109Z" fill="#322B59"/>
<path d="M511.292 66.7738C519.273 68.7038 534.181 60.6344 539.789 63.372L540.185 64.3574C538.697 64.8974 537.759 64.7825 537.038 66.2653C524.606 70.0486 511.766 73.7235 499.125 76.69C493.393 78.0644 487.652 79.3996 481.902 80.6955C478.949 81.3374 475.032 81.6032 472.33 82.8581C471.374 85.2966 474.033 87.5008 473.356 89.2235C472.675 88.8243 472.539 88.5881 472.077 87.9093C470.969 86.2765 469.422 85.6235 467.603 85.029L467.954 84.1074C468.512 84.0445 468.942 83.8592 469.463 83.661L469.473 83.1174C466.525 81.0113 464.661 80.514 461.04 80.778C461.009 80.765 460.98 80.7465 460.947 80.7381C459.912 80.4797 436.856 79.7009 436.37 79.8398C436.012 79.9417 435.732 80.2232 435.412 80.4149L430.684 81.6532C432.264 82.107 433.832 82.5191 435.44 82.8581L435.399 82.4997L435.864 82.9757C424.289 83.0665 412.669 82.8368 401.103 83.072C400.33 83.0878 399.705 83.3934 398.957 83.4962C396.821 83.7898 394.046 83.461 391.878 83.4128C394.89 84.0973 397.81 84.1667 400.865 84.4779L400.528 84.4251L401.175 85.1484C401.065 85.1623 400.953 85.1744 400.844 85.1892C400.685 85.2105 400.527 85.2373 400.368 85.2577C397.397 85.6263 393.438 85.4152 390.733 84.1167C390.512 84.0102 390.287 83.913 390.065 83.8064C389.921 83.7379 389.78 83.6629 389.637 83.5916C385.547 82.809 380.864 83.2674 376.69 83.2961C372.408 83.3628 371.229 86.0737 368.05 86.6414L366.705 86.5506C365.53 85.7652 364.153 85.4226 362.82 84.9688C359.253 84.5844 355.298 83.2156 351.783 82.3691C338.555 79.1841 304.696 70.7284 294.711 62.8052C300.823 61.7494 309.021 62.5255 314.83 64.5908L316.716 63.9185C327.57 65.6716 338.985 67.8629 349.952 68.4982C355.509 68.601 360.801 69.5911 366.411 69.3262C366.516 69.3216 366.62 69.3188 366.724 69.3142C368.341 69.2086 370.088 68.9085 371.606 69.567C366.752 71.711 355.225 68.1704 351.51 70.5802C349.515 70.859 347.308 70.3931 345.312 70.1579L344.958 70.8905C350.555 72.2963 357.363 72.0028 363.166 72.2704C384.081 73.2355 404.913 72.903 425.834 73.0243C439.136 73.1002 452.353 74.27 465.679 73.6448C470.084 73.4374 474.583 72.4047 478.942 71.7453C484.366 72.0009 504.54 67.7731 511.292 66.7738Z" fill="url(#paint2_linear_25_119)"/>
<path d="M316.716 63.918C327.571 65.6712 338.985 67.8624 349.952 68.4978C355.51 68.6006 360.801 69.5906 366.411 69.3257C366.516 69.3211 366.621 69.3183 366.724 69.3137C368.341 69.2081 370.088 68.908 371.606 69.5665C366.752 71.7105 355.225 68.1699 351.511 70.5797C349.516 70.8585 347.308 70.3926 345.312 70.1574L344.958 70.89C334.348 71.3966 316.963 69.2553 307.062 65.3137C313.026 66.1037 318.712 66.4908 324.566 68.0449L323.343 68.1291C326.346 68.9358 328.818 69.4859 331.956 68.984L331.248 68.6996L332.351 68.1884L332.652 67.5179C329.224 65.2016 319.466 65.986 314.831 64.5903L316.716 63.918Z" fill="#322B59"/>
<path d="M373.389 81.3921C369.31 81.5181 365.887 79.8362 361.962 79.1462C354.971 77.9163 347.642 77.6181 340.75 76.0205C345.616 75.7565 357.224 77.3328 362.187 78.4942C365.348 79.2342 368.423 80.6151 371.685 80.8355C378.262 81.2791 385.02 80.9059 391.615 80.9485C398.214 80.992 404.805 81.394 411.406 81.3773C417.758 81.3606 424.374 80.9439 430.685 81.6533C432.264 82.1071 433.833 82.5192 435.44 82.8582L435.399 82.4998L435.865 82.9758C424.289 83.0666 412.669 82.8369 401.104 83.0721C400.33 83.0879 399.705 83.3935 398.957 83.4963C396.821 83.7899 394.047 83.4611 391.878 83.413C394.89 84.0974 397.81 84.1669 400.865 84.478L400.529 84.4252L401.175 85.1486C401.065 85.1625 400.954 85.1745 400.844 85.1893C400.685 85.2106 400.528 85.2375 400.368 85.2578C397.397 85.6265 393.438 85.4153 390.734 84.1168C390.512 84.0103 390.287 83.9131 390.065 83.8066C389.921 83.738 389.78 83.663 389.637 83.5917C385.547 82.8091 380.864 83.2676 376.691 83.2963C372.408 83.363 371.229 86.0738 368.051 86.6415L366.705 86.5507C365.531 85.7654 364.153 85.4227 362.821 84.9689C367.312 85.3727 369.632 83.488 373.389 81.3921Z" fill="#7E89D0"/>
<path d="M277.126 65.5971C272.14 70.4371 267.071 75.1882 261.919 79.8504C258.721 82.6946 255.228 85.3433 252.197 88.3598C251.681 88.8738 251.506 89.1933 251.366 89.9009C254.12 89.8537 274.097 68.1504 279.008 65.623C283.323 63.403 289.933 63.3123 294.711 62.8057C304.696 70.7288 338.555 79.1845 351.783 82.3695C355.299 83.216 359.253 84.5848 362.821 84.9692C364.153 85.423 365.531 85.7657 366.705 86.551C362.811 92.897 359.496 99.6597 355.676 106.08C348.519 118.111 336.558 136.397 332.133 149.293C327.304 149.641 322.194 149.209 317.346 149.097C307.683 148.827 298.018 148.634 288.35 148.519L187.266 148.489L187.568 148.024C194.23 137.951 202.503 129.045 209.138 118.951C210.842 118.22 226.022 97.9333 229.171 94.4334C231.882 93.1637 235.181 89.6305 237.392 87.5781C242.66 82.6872 251.195 72.8451 257.298 70.1435C263.165 67.5457 270.8 66.8103 277.126 65.5971Z" fill="#CAD5FF"/>
<path d="M343.45 109.822C344.905 111.65 346.786 113.332 348.501 114.923C345.487 118.284 342.358 120.991 337.633 121.231C330.198 121.609 322.616 121.275 315.171 121.23L268.866 120.828L247.041 120.808C242.57 120.831 237.723 121.202 233.295 120.596C231.525 120.354 230.207 119.26 228.89 118.146L230.743 116.528C231.853 116.401 231.797 116.364 232.691 117.027C232.404 118.059 231.712 117.551 230.807 118.24C231.099 118.181 232.302 117.919 232.568 117.933C233.661 117.989 234.72 118.404 235.893 118.417C239.698 118.459 243.522 118.126 247.332 118.113L297.941 117.76C309.742 117.631 321.881 118.485 333.626 117.821C334.982 117.745 335.806 117.567 337.002 116.905C339.874 115.316 342.55 113.09 343.45 109.822Z" fill="#C0BCE2"/>
<path d="M249.338 130.698C252.05 129.789 254.751 129.171 257.597 128.899C267.278 127.975 277.449 128.481 287.183 128.52C294.028 128.548 301.492 128.051 308.243 129.003C309.63 129.233 310.362 129.646 311.532 130.37C312.06 131.315 312.437 131.724 312.013 132.846C311.364 134.562 309.317 135.684 307.648 136.171C307.395 136.246 307.137 136.309 306.882 136.377C296.051 137.585 284.727 137.063 273.83 137.065C266.567 137.066 258.575 137.66 251.403 136.564C249.837 136.325 248.923 135.852 247.671 134.903L247.808 134.468L249.262 133.981L247.424 131.98C247.894 130.942 248.315 131.085 249.338 130.698Z" fill="#7E89D0"/>
<path d="M247.671 134.903L247.808 134.468L249.262 133.98L247.424 131.98C247.894 130.942 248.315 131.085 249.338 130.698C251.124 130.858 252.78 131.025 254.507 131.518C254.561 131.822 254.682 132.132 254.625 132.434C254.517 133.973 254.699 134.609 253.678 135.806C252.601 135.983 251.327 135.72 250.365 135.177C249.481 135.031 248.564 134.986 247.671 134.903Z" fill="#C0BCE2"/>
<path d="M228.89 118.145C229.274 116.435 229.909 115.327 231.265 114.18C233.772 112.058 237.301 111.125 240.501 110.75C248.699 109.788 257.168 110.161 265.418 110.162L303.928 110.125C312.186 110.1 320.45 110.128 328.706 110.002C333.578 109.928 338.605 109.342 343.45 109.822C342.55 113.089 339.874 115.316 337.002 116.905C335.806 117.566 334.982 117.745 333.626 117.821C321.881 118.485 309.742 117.63 297.941 117.76L247.332 118.113C243.522 118.126 239.698 118.459 235.893 118.416C234.72 118.403 233.661 117.988 232.568 117.932C232.302 117.918 231.099 118.18 230.807 118.239C231.712 117.55 232.404 118.059 232.691 117.026C231.797 116.363 231.853 116.4 230.743 116.528L228.89 118.145Z" fill="#7E89D0"/>
<defs>
<linearGradient id="paint0_linear_25_119" x1="394.357" y1="176.675" x2="389.746" y2="177.289" gradientUnits="userSpaceOnUse">
<stop stop-color="#7D7897"/>
<stop offset="1" stop-color="#3A5278"/>
</linearGradient>
<linearGradient id="paint1_linear_25_119" x1="475.962" y1="79.6101" x2="417.993" y2="49.8447" gradientUnits="userSpaceOnUse">
<stop stop-color="#393257"/>
<stop offset="1" stop-color="#5A4E6B"/>
</linearGradient>
<linearGradient id="paint2_linear_25_119" x1="424.006" y1="37.5409" x2="411.863" y2="94.7247" gradientUnits="userSpaceOnUse">
<stop stop-color="#827991"/>
<stop offset="1" stop-color="#A097C8"/>
</linearGradient>
</defs>
</svg>
