<svg width="293" height="643" viewBox="0 0 293 643" fill="none" xmlns="http://www.w3.org/2000/svg">
<path d="M74.0812 204.242C76.1804 206.048 76.853 206.768 77.0725 209.605C77.3999 213.846 76.7787 218.168 77.2619 222.438L77.2778 252.382C68.6226 252.655 59.8984 253.171 51.2414 252.978C51.2379 252.653 51.2131 252.325 51.2308 251.998C51.8946 239.895 64.7924 212.188 74.0812 204.242Z" fill="white"/>
<path d="M74.0813 204.242L75.3786 203.267L75.4105 202.463C75.7061 196.456 75.6052 188.478 77.3787 182.806C78.1469 188.455 78.8761 194.849 78.4071 200.536C91.4766 212.913 92.3881 226.471 99.8114 241.788L102.725 252.313L78.5098 252.29C78.7699 242.604 79.1204 232.569 78.3345 222.913L77.2619 222.437C76.7787 218.168 77.4 213.846 77.0725 209.605C76.853 206.768 76.1804 206.047 74.0813 204.242Z" fill="#ABB6CD"/>
<path d="M81.3206 468.29C82.3312 477.133 61.3906 511.932 55.8152 519.283C54.9992 520.361 54.1178 521.081 52.9797 521.795C51.723 521.373 51.3389 521.278 50.3867 520.297L50.4362 471.653C58.3321 471.573 66.1979 472.336 74.0955 472.041C78.0638 471.892 78.7683 471.08 81.3206 468.29Z" fill="white"/>
<path d="M51.2415 252.979C59.8985 253.172 68.6227 252.655 77.2779 252.383C77.2726 255.802 77 259.413 77.8513 262.742C80.5293 274.488 78.8903 289.602 78.724 301.696L50.7495 301.816C50.6486 288.929 50.2096 275.64 51.1778 262.799C51.4929 259.5 51.3672 256.289 51.2415 252.979Z" fill="white"/>
<path d="M51.2414 252.979C59.8983 253.172 68.6225 252.655 77.2777 252.383C77.2724 255.802 76.9998 259.413 77.8512 262.742C69.065 262.109 59.9939 262.684 51.1776 262.799C51.4927 259.5 51.367 256.289 51.2414 252.979Z" fill="#454674"/>
<path d="M50.746 309.07C59.918 309.004 69.1767 308.666 78.3169 309.507C79.3364 332.231 78.2266 355.186 78.7063 377.966C69.4263 378.623 59.8401 378.339 50.5247 378.47L50.746 309.07Z" fill="white"/>
<path d="M50.8804 384.911L78.2744 385.021C78.6443 411.305 79.6992 437.993 78.7912 464.25C69.5643 464.859 60.0188 464.495 50.7565 464.558L50.8804 384.911Z" fill="white"/>
<path d="M106.362 309.337C106.571 331.57 108.293 355.195 106.53 377.285C107.881 383.513 107.143 414.973 105.957 421.622C105.544 423.936 104.436 425.989 103.312 428.024C100.158 432.354 84.8675 460.489 84.1896 464.672L78.7912 464.251C79.6992 437.993 78.6443 411.305 78.2744 385.021C86.5331 384.972 98.1229 387.533 105.642 383.91C106.661 381.476 106.222 380.382 105.843 377.812L78.7062 377.966C78.2265 355.186 79.3363 332.232 78.3168 309.507C87.667 309.709 97.0154 309.652 106.362 309.337Z" fill="#ABB6CD"/>
<path d="M105.684 103.468C109.769 73.4048 113.784 37.4654 131.542 12.0485C136.091 5.53679 139.822 1.88711 147.709 0.522461C148.422 18.9001 148.061 37.4052 148.073 55.8006C148.084 71.6914 148.544 87.7716 147.914 103.641C147.866 109.172 149.64 119.863 145.772 123.84L142.822 124.467C131.285 125.322 119.334 124.913 107.778 124.511L106.341 123.808C103.234 120.145 103.135 113.153 103.511 108.551C103.742 105.694 103.48 105.289 105.684 103.468Z" fill="white"/>
<path d="M105.684 103.468C119.292 105.344 134.197 104.057 147.914 103.641C147.866 109.172 149.64 119.863 145.772 123.84L142.822 124.467C131.285 125.322 119.334 124.913 107.778 124.511L106.341 123.808C103.234 120.144 103.135 113.153 103.511 108.551C103.742 105.694 103.48 105.289 105.684 103.468Z" fill="#454674"/>
<path d="M147.709 0.522461C154.642 1.04814 157.929 3.05351 162.552 8.26432C179.724 27.6155 185.563 59.6821 190.075 84.4777C191.142 90.3417 193.249 97.3879 192.962 103.252L192.41 103.514C192.316 110.606 192.988 118.677 191.804 125.63C177.28 125.704 162.254 126.525 147.792 125.242L142.822 124.467L145.772 123.84C149.64 119.863 147.866 109.172 147.914 103.641C148.544 87.7716 148.084 71.6914 148.073 55.8006C148.061 37.4052 148.422 18.9001 147.709 0.522461Z" fill="#8E777D"/>
<path d="M147.914 103.64L192.41 103.513C192.316 110.605 192.988 118.676 191.804 125.629C177.28 125.703 162.254 126.524 147.792 125.241L142.822 124.466L145.772 123.839C149.64 119.862 147.866 109.171 147.914 103.64Z" fill="#211E42"/>
<path d="M103.312 428.024L104.612 428.348L105.815 426.663C107.836 436.184 107.003 447.165 107.075 456.933L107.39 504.986L107.907 571.624C107.911 583.271 108.467 595.31 107.183 606.898C83.8355 607.484 60.4276 607.027 37.0656 607.365L0.163423 607.225L0.159912 583.219C6.83449 574.037 14.4507 565.332 21.4156 556.331C30.692 544.345 39.7348 531.058 50.3865 520.297C51.3387 521.277 51.7228 521.373 52.9795 521.794C54.1176 521.081 54.9991 520.36 55.815 519.282C61.3905 511.932 82.331 477.132 81.3204 468.289L84.1895 464.672C84.8674 460.489 100.158 432.354 103.312 428.024Z" fill="url(#paint0_linear_6_4889)"/>
<path d="M142.822 124.466L147.792 125.241C162.254 126.524 177.28 125.703 191.804 125.629C190.33 143.031 191.319 161.186 191.324 178.677C191.33 196.677 190.5 215.136 191.47 233.086L191.303 262.917L154.02 262.812C137.806 262.659 121.586 263.074 105.374 262.605C105.474 254.309 105.466 246.013 105.353 237.718C106.872 220.43 104.587 130.785 106.571 125.995C106.815 125.406 107.376 125.006 107.778 124.51C119.334 124.912 131.285 125.321 142.822 124.466Z" fill="white"/>
<path d="M147.826 157.569C150.474 157.683 151.072 157.297 153.008 159.224C153.506 162.477 152.923 165.748 153.622 168.92L129.469 169.03L129.591 157.667L147.826 157.569Z" fill="#211E42"/>
<path d="M147.792 125.242C162.255 126.525 177.28 125.704 191.804 125.63C190.33 143.032 191.319 161.187 191.325 178.678C191.33 196.678 190.5 215.137 191.47 233.087L191.303 262.918L154.021 262.814C155.176 246.887 154.224 230.172 154.247 214.166C154.268 199.542 155.72 183.306 153.622 168.922C152.923 165.75 153.506 162.479 153.008 159.226C151.072 157.298 150.474 157.684 147.826 157.571L147.792 125.242Z" fill="#ABB6CD"/>
<path d="M77.8513 262.741C86.9915 263.143 96.1458 263.127 105.281 263.557C120.998 264.564 136.891 264.065 152.638 263.993L152.62 264.522C153.003 265.092 153.592 265.57 153.767 266.232C155.144 271.419 153.953 322.857 153.953 332.368L154.166 545.527C151.468 546.02 149.447 546.295 147.229 548.065C143.371 554.704 145.456 628.2 145.537 641.557C136.953 641.557 128.299 641.348 119.722 641.566C116.416 641.438 113.217 641.746 109.927 642.054L107.916 640.914C105.47 632.27 107.12 616.34 107.183 606.897C108.467 595.309 107.911 583.27 107.907 571.623L107.39 504.985L107.075 456.932C107.003 447.164 107.837 436.183 105.815 426.662L104.612 428.347L103.312 428.023C104.436 425.988 105.544 423.935 105.957 421.621C107.143 414.972 107.881 383.512 106.53 377.283C108.293 355.194 106.571 331.568 106.362 309.336L106.334 301.654L78.7239 301.695C78.8903 289.601 80.5293 274.487 77.8513 262.741Z" fill="white"/>
<path d="M77.8513 262.741C86.9915 263.143 96.1458 263.127 105.281 263.557C120.998 264.564 136.891 264.065 152.638 263.993L152.62 264.522C137.153 265.001 121.563 264.89 106.088 264.639C106.239 276.977 106.321 289.315 106.334 301.654L78.7239 301.695C78.8903 289.601 80.5293 274.487 77.8513 262.741Z" fill="#ABB6CD"/>
<path d="M218.837 471.057C218.389 469.432 217.926 467.812 217.448 466.195L218.487 465.351C225.197 465.714 238.857 464.119 244.369 467.577L244.344 468.822C241.601 470.675 239.565 471.077 236.31 471.521C230.615 471.795 224.45 472.091 218.837 471.057Z" fill="#211E42"/>
<path d="M218.837 471.058C224.45 472.091 230.614 471.796 236.31 471.521C239.146 471.582 242.541 471.281 245.109 472.536C247.474 485.007 245.971 504.94 245.454 517.872C231.407 507.705 223.457 487.918 218.117 471.799L218.837 471.058Z" fill="#ABB6CD"/>
<path d="M229.156 204.006C238.089 219.323 245.33 235.264 247.58 253.02C239.834 251.903 231.809 252.234 223.993 252.199C223.168 241.759 222.93 231.307 223.28 220.84C223.078 215.219 224.474 209.916 223.832 204.268L225.161 204.634L226.805 206.675C228.094 205.817 228.372 205.296 229.156 204.006Z" fill="#ABB6CD"/>
<path d="M236.625 309.294L246.146 309.292C246.146 318.053 247.217 373.303 245.296 377.008C243.686 377.321 242.118 377.587 240.484 377.742L226.659 377.303L225.933 309.545L236.625 309.294Z" fill="#ABB6CD"/>
<path d="M226.867 384.897L246.043 384.912C246.024 411.445 246.481 438.073 245.863 464.594L226.519 464.66C226.433 438.071 226.549 411.484 226.867 384.897Z" fill="#ABB6CD"/>
<path d="M203.174 384.459C211.063 385.022 218.964 384.914 226.867 384.898C226.549 411.485 226.433 438.073 226.519 464.66C223.86 464.86 221.117 464.947 218.487 465.352L217.448 466.196C217.925 467.813 218.389 469.434 218.837 471.059L218.117 471.8C215.931 469.223 214.131 466.096 212.231 463.288C210.327 450.569 196.054 438.137 197.843 424.733C198.599 426.761 198.909 427.823 200.304 429.507C203.635 417.499 198.026 398.398 201.297 385.53L203.174 384.459Z" fill="white"/>
<path d="M212.231 463.288C214.13 466.095 215.93 469.223 218.116 471.8C223.456 487.919 231.407 507.706 245.454 517.872C261.946 537.001 277.63 557.369 292.574 577.735C292.436 587.365 291.629 597.512 292.623 607.081C265.46 607.886 238.138 607.215 210.966 606.998C209.652 598.861 210.75 589.225 210.769 580.873C210.757 558.898 210.935 536.925 211.302 514.954C211.491 500.435 209.843 476.873 212.231 463.288Z" fill="#ABB6CD"/>
<path d="M191.912 202.605C201.39 202.598 217.251 200.853 225.975 203.241L225.161 204.634L223.832 204.267C224.474 209.915 223.078 215.218 223.28 220.84C222.93 231.306 223.168 241.759 223.993 252.198C231.809 252.234 239.834 251.903 247.58 253.02C243.624 253.471 239.857 253.538 235.88 253.409C236.795 256.648 236.724 258.761 236.045 262.045L246.564 262.372L246.578 301.687C246.666 304.029 247.157 306.574 245.771 308.595C244.51 308.611 243.417 308.517 242.155 308.376C240.308 308.17 238.188 308.195 236.625 309.292L225.933 309.544L226.658 377.302L240.484 377.741C233.404 379.566 204.465 377.406 201.596 380.561C202.783 382.198 203.566 382.879 205.665 383.122C216.2 384.343 227.453 381.677 238.006 383.507C226.563 385.849 214.449 381.913 203.174 384.458L201.296 385.529C198.026 398.397 203.635 417.498 200.303 429.506C198.909 427.822 198.599 426.76 197.843 424.732C196.879 420.546 193.723 415.767 191.432 412.172C188.294 405.062 190.916 282.203 191.075 263.843C181.954 263.85 160.116 266.546 152.638 263.993C136.891 264.066 120.998 264.565 105.281 263.558C96.1457 263.128 86.9914 263.144 77.8512 262.742C76.9999 259.413 77.2724 255.802 77.2777 252.382L77.2619 222.438L78.3344 222.914C79.1203 232.569 78.7699 242.605 78.5097 252.29L102.725 252.313L99.8113 241.789L100.71 241.586C101.234 243.136 101.507 244.228 102.558 245.508C104.758 243.17 104.712 240.821 105.353 237.718C105.466 246.013 105.473 254.309 105.374 262.606C121.586 263.075 137.806 262.659 154.02 262.813L191.303 262.917L191.47 233.086C192.147 222.953 191.928 212.756 191.912 202.605Z" fill="#211E42"/>
<path d="M200.606 301.935L224.281 301.631L225.108 301.827C224.873 303.197 224.965 305.461 223.687 306.169C218.554 309.012 207.996 307.334 202.031 307.951C200.532 306.1 200.695 304.196 200.606 301.935Z" fill="#454674"/>
<path d="M210.886 220.296C212.874 216.308 214.791 212.088 217.396 208.463C219.338 205.764 220.526 204.721 223.832 204.267C224.474 209.915 223.078 215.217 223.28 220.839C222.93 231.305 223.168 241.758 223.993 252.198L204.407 252.389L201.906 251.566C201.796 251.323 201.654 251.093 201.575 250.84C199.259 243.47 207.346 226.832 210.886 220.296Z" fill="white"/>
<path d="M224.922 309.29L225.933 309.545L226.658 377.303C218.074 377.016 209.405 377.264 200.81 377.262L200.902 309.412C208.909 309.443 216.916 309.402 224.922 309.29Z" fill="white"/>
<path d="M223.993 252.198C231.809 252.234 239.834 251.903 247.58 253.02C243.624 253.471 239.857 253.538 235.88 253.409C236.795 256.648 236.724 258.761 236.045 262.045L246.564 262.372L246.578 301.687L225.108 301.827L224.281 301.63L200.606 301.935C202.413 289.61 201.01 275.305 200.916 262.747C201.187 259.779 201.645 258.192 203.035 255.556C203.716 254.537 204.006 253.54 204.406 252.39L223.993 252.198Z" fill="#ABB6CD"/>
<path d="M223.993 252.198C231.809 252.234 239.834 251.903 247.58 253.02C243.624 253.471 239.857 253.538 235.88 253.409C236.795 256.648 236.725 258.761 236.045 262.045L224.393 261.939L210.323 261.976C207.499 262.008 204.826 261.836 202.097 262.638L200.916 262.747C201.187 259.779 201.645 258.192 203.035 255.556C203.716 254.537 204.007 253.54 204.407 252.39L223.993 252.198Z" fill="#454674"/>
<path d="M224.393 261.938C224.164 258.856 223.579 256.725 224.878 253.886C227.91 252.217 232.499 253.171 235.88 253.408C236.795 256.647 236.724 258.761 236.045 262.044L224.393 261.938Z" fill="#211E42"/>
<path d="M202.096 262.639C209.714 263.044 217.301 262.812 224.92 262.621C225 271.644 226.8 294.454 224.281 301.631L200.606 301.936C202.413 289.611 201.01 275.306 200.916 262.749L202.096 262.639Z" fill="white"/>
<path d="M152.638 263.993C160.116 266.546 181.954 263.85 191.075 263.843C190.915 282.203 188.294 405.062 191.432 412.172C193.723 415.767 196.879 420.546 197.843 424.732C196.054 438.136 210.327 450.568 212.231 463.287C209.844 476.872 211.492 500.434 211.302 514.953C210.935 536.924 210.758 558.897 210.769 580.872C210.75 589.225 209.652 598.86 210.966 606.997L187.866 607.032L187.825 640.922L171.386 640.91L157.622 640.832C157.563 621.179 157.62 601.528 157.794 581.877C157.888 571.966 159.001 560.668 157.465 550.942C157.102 548.639 155.652 547.186 154.166 545.527L153.953 332.369C153.953 322.857 155.144 271.42 153.767 266.232C153.592 265.57 153.003 265.092 152.62 264.522L152.638 263.993Z" fill="#ABB6CD"/>
<path d="M191.433 412.173C193.723 415.768 196.879 420.547 197.843 424.733C196.054 438.137 210.327 450.569 212.231 463.288C209.844 476.873 211.492 500.434 211.302 514.954C210.935 536.925 210.758 558.898 210.77 580.873C210.75 589.225 209.653 598.861 210.966 606.998L187.866 607.033C187.801 580.101 185.524 425.138 191.433 412.173Z" fill="#ABB6CD"/>
<defs>
<linearGradient id="paint0_linear_6_4889" x1="106.944" y1="517.905" x2="-1.24771" y2="520.886" gradientUnits="userSpaceOnUse">
<stop stop-color="#ABB6CD"/>
<stop offset="1" stop-color="white"/>
</linearGradient>
</defs>
</svg>
